<svg width="62" height="62" viewBox="0 0 62 62" fill="none" xmlns="http://www.w3.org/2000/svg">
<path d="M54.4638 0.711426H7.04894C3.32349 0.711426 0.275391 3.75952 0.275391 7.48497V54.8998C0.275391 58.6252 3.32349 61.6733 7.04894 61.6733H54.4638C58.1892 61.6733 61.2373 58.6252 61.2373 54.8998V7.48497C61.2373 3.75952 58.1892 0.711426 54.4638 0.711426ZM13.8225 14.2585H20.596V21.0321H13.8225V14.2585ZM13.8225 27.8056H20.596V34.5792H13.8225V27.8056ZM13.8225 41.3527H20.596V48.1263H13.8225V41.3527ZM47.6902 48.1263H27.3696V41.3527H47.6902V48.1263ZM47.6902 34.5792H27.3696V27.8056H47.6902V34.5792ZM47.6902 21.0321H27.3696V14.2585H47.6902V21.0321Z" fill="#FF7655"/>
</svg>
