<svg width="43" height="43" viewBox="0 0 43 43" fill="none" xmlns="http://www.w3.org/2000/svg">
<path d="M6.95685 35.4985C6.16935 35.4985 5.48627 35.2093 4.9076 34.631C4.32923 34.0523 4.04004 33.3692 4.04004 32.5817V10.4153C4.04004 9.62785 4.32923 8.94477 4.9076 8.3661C5.48627 7.78772 6.16935 7.49854 6.95685 7.49854H36.1232C36.9107 7.49854 37.5938 7.78772 38.1725 8.3661C38.7509 8.94477 39.04 9.62785 39.04 10.4153V32.5817C39.04 33.3692 38.7509 34.0523 38.1725 34.631C37.5938 35.2093 36.9107 35.4985 36.1232 35.4985H6.95685ZM21.54 22.6067L6.95685 13.186V32.5817H36.1232V13.186L21.54 22.6067ZM21.54 19.6903L36.0069 10.4153H7.10254L21.54 19.6903ZM6.95685 13.186V10.4153V32.5817V13.186Z" fill="#FF7655"/>
<path d="M21.54 19.6903L36.0069 10.4153H7.10254L21.54 19.6903Z" fill="#FFC3BD"/>
</svg>
