<svg width="305" height="305" viewBox="0 0 305 305" fill="none" xmlns="http://www.w3.org/2000/svg">
<g clip-path="url(#clip0_3575_465)">
<path d="M211.083 21.9424H149.339C133.519 21.9424 118.251 27.7661 106.45 38.3027C80.2117 61.7301 77.6276 101.878 100.646 128.477L175.514 214.991C179.479 219.573 178.978 226.502 174.396 230.467C169.815 234.432 162.886 233.932 158.921 229.351L84.0527 142.836C53.1915 107.174 56.6569 53.346 91.8359 21.9355C107.658 7.80855 128.128 3.74501e-05 149.339 0H232.693L211.083 21.9424Z" fill="#FF7655"/>
<path d="M129.869 73.9863C134.451 70.0213 141.38 70.5207 145.345 75.1025L220.213 161.617C251.074 197.279 247.609 251.107 212.43 282.518C196.607 296.645 176.138 304.453 154.927 304.453H71.5996L93.21 282.511H154.927C170.747 282.511 186.014 276.687 197.815 266.15C224.054 242.723 226.638 202.575 203.62 175.977L128.752 89.4619C124.787 84.8801 125.287 77.9514 129.869 73.9863Z" fill="#F5F5F5"/>
</g>
<defs>
<clipPath id="clip0_3575_465">
<rect width="304.45" height="304.45" fill="white"/>
</clipPath>
</defs>
</svg>
