<svg width="54" height="54" viewBox="0 0 54 54" fill="none" xmlns="http://www.w3.org/2000/svg">
<circle cx="27.0879" cy="27.1851" r="26.5" fill="black"/>
<path d="M21.7011 37.1136L19.0663 36.5116C19.0663 36.5116 16.6338 35.5405 15.3025 34.5543C13.7816 33.4276 11.9901 31.016 11.9901 31.016C11.9901 31.016 11.0036 27.8581 11.2374 25.8219C11.44 24.0576 12.7432 21.5308 12.7432 21.5308L14.6252 18.7454V12.5727L15.3025 11.2178C15.3025 11.2178 16.9909 11.5675 18.0128 11.9707C18.8688 12.3085 20.1206 13.0246 20.1206 13.0246L21.7011 14.5302H23.5081C23.5081 14.5302 25.1211 13.8471 26.2182 13.7021C27.0926 13.5865 27.5976 13.6294 28.4766 13.7021C29.9479 13.8237 32.1653 14.5302 32.1653 14.5302C32.1653 14.5302 33.0806 14.0911 33.5956 13.7021C34.2515 13.2067 35.058 12.1883 35.058 12.1883C35.058 12.1883 36.1268 11.3786 36.682 11.2178C37.755 10.9069 39.5427 11.2178 39.5427 11.2178L40.2202 11.9707V14.5302C40.2202 14.5302 40.4704 16.1669 40.2202 17.1649C40.0569 17.8163 39.5427 18.7454 39.5427 18.7454C39.5427 18.7454 40.3884 19.4675 40.8224 20.0255C41.2433 20.5667 41.4241 20.9152 41.7258 21.5308C42.2289 22.5578 42.455 23.1862 42.6291 24.3165C42.7947 25.3915 42.6291 26.0141 42.6291 27.1018C42.6291 27.8368 42.6291 28.9838 42.6291 28.9838C42.6291 28.9838 42.197 30.5938 41.7258 31.5433C41.0801 32.8443 40.6557 33.6213 39.5427 34.5543C38.5752 35.3653 36.682 36.0601 36.682 36.0601C36.682 36.0601 34.9133 37.3217 33.5956 37.4904C33.0415 37.5613 32.1653 37.4904 32.1653 37.4904L33.1439 38.469L34.1978 39.6735C34.1978 39.6735 34.8614 40.7893 35.1765 41.5554C36.518 44.8182 35.1765 50.589 35.1765 50.589L36.6309 51.9212L34.8594 52.5508L32.1653 53.3743L28.7445 53.682L26.2182 53.7507L22.1531 53.3743L19.4431 52.5848L17.8474 52.0252L17.4858 51.8892L19.4431 50.589V45.5453L17.5611 45.9969C17.5611 45.9969 15.701 45.9792 14.6252 45.5453C13.4364 45.0658 12.6879 44.6633 11.9901 43.588C11.3768 42.6428 11.2374 40.8027 11.2374 40.8027C11.2374 40.8027 10.9358 39.6545 10.4848 39.0712C10.0102 38.4573 8.9043 37.8668 8.9043 37.8668C8.9043 37.8668 9.55535 37.1563 10.1083 37.1136C10.5718 37.0779 11.2374 37.4904 11.2374 37.4904L12.7432 39.6735L13.9476 41.5554C13.9476 41.5554 14.6726 42.4367 15.3025 42.7599C16.4534 43.3505 18.6149 42.7599 18.6149 42.7599L19.4431 41.5554C19.4431 41.5554 19.6605 39.9654 20.1206 39.0712C20.5701 38.1975 21.7011 37.1136 21.7011 37.1136Z" fill="white"/>
</svg>
