<svg width="36" height="37" viewBox="0 0 36 37" fill="none" xmlns="http://www.w3.org/2000/svg">
<path fill-rule="evenodd" clip-rule="evenodd" d="M18.3773 27.7587C23.2186 27.7587 27.1433 23.7524 27.1433 18.8105C27.1433 13.8685 23.2186 9.8623 18.3773 9.8623C13.536 9.8623 9.61133 13.8685 9.61133 18.8105C9.61133 23.7524 13.536 27.7587 18.3773 27.7587ZM18.3773 24.7759C21.6048 24.7759 24.2213 22.1051 24.2213 18.8105C24.2213 15.5159 21.6048 12.845 18.3773 12.845C15.1498 12.845 12.5333 15.5159 12.5333 18.8105C12.5333 22.1051 15.1498 24.7759 18.3773 24.7759Z" fill="#FF7655"/>
<path d="M27.1436 8.37085C26.3367 8.37085 25.6826 9.03856 25.6826 9.86221C25.6826 10.6859 26.3367 11.3536 27.1436 11.3536C27.9505 11.3536 28.6046 10.6859 28.6046 9.86221C28.6046 9.03856 27.9505 8.37085 27.1436 8.37085Z" fill="#FF7655"/>
<path fill-rule="evenodd" clip-rule="evenodd" d="M3.26208 7.29131C2.30664 9.20544 2.30664 11.7112 2.30664 16.7226V20.8984C2.30664 25.9099 2.30664 28.4156 3.26208 30.3297C4.1025 32.0134 5.44352 33.3823 7.09296 34.2402C8.96811 35.2155 11.4228 35.2155 16.3322 35.2155H20.423C25.3324 35.2155 27.7872 35.2155 29.6622 34.2402C31.3117 33.3823 32.6527 32.0134 33.4931 30.3297C34.4486 28.4156 34.4486 25.9099 34.4486 20.8984V16.7226C34.4486 11.7112 34.4486 9.20544 33.4931 7.29131C32.6527 5.60759 31.3117 4.2387 29.6622 3.38081C27.7872 2.40552 25.3324 2.40552 20.423 2.40552H16.3322C11.4228 2.40552 8.96811 2.40552 7.09296 3.38081C5.44352 4.2387 4.1025 5.60759 3.26208 7.29131ZM20.423 5.38824H16.3322C13.8293 5.38824 12.1278 5.39057 10.8127 5.50025C9.53163 5.60709 8.87652 5.80074 8.41952 6.03843C7.3199 6.61037 6.42588 7.52297 5.86559 8.64544C5.63274 9.11194 5.44302 9.78067 5.33836 11.0884C5.23092 12.4308 5.22864 14.1677 5.22864 16.7226V20.8984C5.22864 23.4534 5.23092 25.1901 5.33836 26.5326C5.44302 27.8404 5.63274 28.5092 5.86559 28.9757C6.42588 30.0981 7.3199 31.0106 8.41952 31.5826C8.87652 31.8203 9.53163 32.014 10.8127 32.1208C12.1278 32.2304 13.8293 32.2328 16.3322 32.2328H20.423C22.926 32.2328 24.6273 32.2304 25.9425 32.1208C27.2237 32.014 27.8788 31.8203 28.3358 31.5826C29.4353 31.0106 30.3293 30.0981 30.8896 28.9757C31.1225 28.5092 31.3123 27.8404 31.4169 26.5326C31.5243 25.1901 31.5266 23.4534 31.5266 20.8984V16.7226C31.5266 14.1677 31.5243 12.4308 31.4169 11.0884C31.3123 9.78067 31.1225 9.11194 30.8896 8.64544C30.3293 7.52297 29.4353 6.61037 28.3358 6.03843C27.8788 5.80074 27.2237 5.60709 25.9425 5.50025C24.6273 5.39057 22.926 5.38824 20.423 5.38824Z" fill="#FF7655"/>
</svg>
