<svg width="40" height="41" viewBox="0 0 40 41" fill="none" xmlns="http://www.w3.org/2000/svg">
<path d="M4.50521 40.584C3.31354 40.584 2.2934 40.1515 1.44479 39.2866C0.596181 38.4217 0.171875 37.3819 0.171875 36.1673V5.25065C0.171875 4.03607 0.596181 2.99631 1.44479 2.13138C2.2934 1.26645 3.31354 0.833984 4.50521 0.833984H34.8385C36.0302 0.833984 37.0503 1.26645 37.899 2.13138C38.7476 2.99631 39.1719 4.03607 39.1719 5.25065V36.1673C39.1719 37.3819 38.7476 38.4217 37.899 39.2866C37.0503 40.1515 36.0302 40.584 34.8385 40.584H4.50521ZM4.50521 36.1673H34.8385V9.66732H4.50521V36.1673ZM8.83854 20.709V16.2923H30.5052V20.709H8.83854ZM8.83854 29.5423V25.1257H21.8385V29.5423H8.83854Z" fill="#A9C2D4"/>
</svg>
