<svg width="37" height="37" viewBox="0 0 37 37" fill="none" xmlns="http://www.w3.org/2000/svg">
<path d="M26.4437 23.2704H24.7724L24.1801 22.6993C26.3251 20.2116 27.5039 17.0355 27.5014 13.7507C27.5014 11.0311 26.695 8.37253 25.184 6.11123C23.6731 3.84994 21.5255 2.08748 19.0129 1.04672C16.5003 0.00595797 13.7355 -0.266352 11.0681 0.264222C8.40071 0.794797 5.95057 2.10442 4.0275 4.0275C2.10442 5.95057 0.794797 8.40071 0.264222 11.0681C-0.266352 13.7355 0.00595797 16.5003 1.04672 19.0129C2.08748 21.5255 3.84994 23.6731 6.11123 25.184C8.37253 26.695 11.0311 27.5014 13.7507 27.5014C17.1567 27.5014 20.2876 26.2533 22.6993 24.1801L23.2704 24.7724V26.4437L33.8479 37L37 33.8479L26.4437 23.2704ZM13.7507 23.2704C8.48314 23.2704 4.23099 19.0183 4.23099 13.7507C4.23099 8.48314 8.48314 4.23099 13.7507 4.23099C19.0183 4.23099 23.2704 8.48314 23.2704 13.7507C23.2704 19.0183 19.0183 23.2704 13.7507 23.2704Z" fill="#BFD4E3"/>
</svg>
