<svg width="42" height="48" viewBox="0 0 42 48" fill="none" xmlns="http://www.w3.org/2000/svg">
<path d="M5.34685 47.209C4.05828 47.209 2.95518 46.7488 2.03756 45.8284C1.11994 44.9079 0.661133 43.8015 0.661133 42.509V4.90898C0.661133 3.61648 1.11994 2.51003 2.03756 1.58961C2.95518 0.669193 4.05828 0.208984 5.34685 0.208984H24.0897L38.1468 14.309V24.5315C37.4049 24.2573 36.6435 24.0517 35.8626 23.9146C35.0816 23.7775 34.2811 23.709 33.4611 23.709V16.659H21.7468V4.90898H5.34685V42.509H20.224C20.5364 43.4098 20.9268 44.2519 21.3954 45.0352C21.864 45.8186 22.4107 46.5432 23.0354 47.209H5.34685ZM28.5411 46.034L25.2611 42.744L30.1811 37.809L25.2611 32.874L28.5411 29.584L33.4611 34.519L38.3811 29.584L41.6611 32.874L36.7997 37.809L41.6611 42.744L38.3811 46.034L33.4611 41.1577L28.5411 46.034Z" fill="#8594D4"/>
</svg>
