<svg width="50" height="49" viewBox="0 0 50 49" fill="none" xmlns="http://www.w3.org/2000/svg">
<path fill-rule="evenodd" clip-rule="evenodd" d="M19.3391 21.7936C20.8251 23.2489 22.691 23.9766 24.9368 23.9766C27.1827 23.9766 29.0486 23.2489 30.5346 21.7936C32.0202 20.3379 32.7631 18.5101 32.7631 16.3101C32.7631 14.1101 32.0202 12.2822 30.5346 10.8266C29.0486 9.37122 27.1827 8.64355 24.9368 8.64355C22.691 8.64355 20.8251 9.37122 19.3391 10.8266C17.8535 12.2822 17.1106 14.1101 17.1106 16.3101C17.1106 18.5101 17.8535 20.3379 19.3391 21.7936ZM8.60352 35.0101L8.60352 40.0101H12.0065V36.6766V35.0101C12.0065 34.5324 12.1397 34.0824 12.4061 33.6601C12.6726 33.2377 13.0157 32.9211 13.4356 32.7101C15.4773 31.7211 17.4225 31.0239 19.2712 30.6186C21.12 30.2129 23.0085 30.0101 24.9368 30.0101C26.8652 30.0101 28.7423 30.2129 30.5683 30.6186C32.3946 31.0239 34.3399 31.7211 36.4044 32.7101C36.8239 32.9211 37.1727 33.2377 37.4507 33.6601C37.7284 34.0824 37.8672 34.5324 37.8672 35.0101V36.6766V40.0101H41.2702V35.0101C41.2702 33.7877 40.9566 32.7201 40.3295 31.8071C39.7027 30.8941 38.8697 30.1972 37.8305 29.7166C35.6092 28.7232 33.4436 27.9682 31.3339 27.4516C29.2242 26.9349 27.0918 26.6766 24.9368 26.6766C22.7819 26.6766 20.6437 26.9294 18.5224 27.4351C16.4015 27.9407 14.2295 28.6991 12.0065 29.7101C10.9969 30.1877 10.1773 30.8849 9.54779 31.8016C8.91827 32.7182 8.60352 33.7877 8.60352 35.0101ZM28.0928 19.4016C27.2478 20.2296 26.1959 20.6436 24.9368 20.6436C23.6778 20.6436 22.6259 20.2296 21.7809 19.4016C20.9357 18.5739 20.5131 17.5434 20.5131 16.3101C20.5131 15.0767 20.9357 14.0462 21.7809 13.2186C22.6259 12.3906 23.6778 11.9766 24.9368 11.9766C26.1959 11.9766 27.2478 12.3906 28.0928 13.2186C28.938 14.0462 29.3606 15.0767 29.3606 16.3101C29.3606 17.5434 28.938 18.5739 28.0928 19.4016Z" fill="#FF7655"/>
<path d="M24.9368 20.6436C26.1959 20.6436 27.2478 20.2296 28.0928 19.4016C28.938 18.5739 29.3606 17.5434 29.3606 16.3101C29.3606 15.0767 28.938 14.0462 28.0928 13.2186C27.2478 12.3906 26.1959 11.9766 24.9368 11.9766C23.6778 11.9766 22.6259 12.3906 21.7809 13.2186C20.9357 14.0462 20.5131 15.0767 20.5131 16.3101C20.5131 17.5434 20.9357 18.5739 21.7809 19.4016C22.6259 20.2296 23.6778 20.6436 24.9368 20.6436Z" fill="#FFC3BD"/>
<path d="M37.8672 36.6766H12.0065V40.0101H37.8672V36.6766Z" fill="#FF7655"/>
</svg>
