<svg width="62" height="80" viewBox="0 0 62 80" fill="none" xmlns="http://www.w3.org/2000/svg">
<path d="M8.23791 80.0062C6.14705 80.0062 4.35777 79.2623 2.87009 77.7746C1.38241 76.287 0.6373 74.4964 0.634766 72.403V34.3873C0.634766 32.2964 1.37987 30.5071 2.87009 29.0194C4.36031 27.5318 6.14958 26.7867 8.23791 26.7841H12.0395V19.181C12.0395 13.9221 13.8934 9.44007 17.6012 5.7348C21.309 2.02953 25.791 0.175633 31.0474 0.173098C36.3037 0.170564 40.787 2.02447 44.4973 5.7348C48.2077 9.44514 50.0603 13.9272 50.0552 19.181V26.7841H53.8568C55.9477 26.7841 57.7382 27.5292 59.2284 29.0194C60.7186 30.5097 61.4625 32.2989 61.4599 34.3873V72.403C61.4599 74.4939 60.7161 76.2844 59.2284 77.7746C57.7407 79.2649 55.9502 80.0087 53.8568 80.0062H8.23791ZM31.0474 60.9983C33.1382 60.9983 34.9288 60.2544 36.419 58.7668C37.9092 57.2791 38.653 55.4885 38.6505 53.3951C38.648 51.3017 37.9041 49.5125 36.419 48.0273C34.9338 46.5422 33.1433 45.7971 31.0474 45.792C28.9514 45.7869 27.1622 46.532 25.6795 48.0273C24.1969 49.5226 23.4518 51.3119 23.4442 53.3951C23.4366 55.4784 24.1817 57.2689 25.6795 58.7668C27.1774 60.2646 28.9666 61.0084 31.0474 60.9983ZM19.6426 26.7841H42.4521V19.181C42.4521 16.013 41.3433 13.3202 39.1257 11.1026C36.9081 8.88504 34.2153 7.77625 31.0474 7.77625C27.8794 7.77625 25.1866 8.88504 22.969 11.1026C20.7514 13.3202 19.6426 16.013 19.6426 19.181V26.7841Z" fill="#FF725E"/>
</svg>
