<svg width="361" height="431" viewBox="0 0 361 431" fill="none" xmlns="http://www.w3.org/2000/svg">
<rect width="361" height="430" transform="translate(0 0.381348)" fill="white"/>
<path d="M249.589 67.6214H179.432C161.456 67.6216 144.108 74.2382 130.699 86.2105C100.884 112.831 97.9481 158.451 124.102 188.675L209.175 286.98C213.68 292.186 213.112 300.06 207.905 304.565C202.699 309.07 194.825 308.502 190.32 303.296L105.248 204.99C70.1811 164.468 74.119 103.304 114.092 67.6131C132.071 51.5609 155.331 42.6875 179.432 42.6873H274.146L249.589 67.6214Z" fill="#FF7655"/>
<path d="M153.094 126.197C158.301 121.693 166.174 122.261 170.68 127.467L255.752 225.772C290.819 266.294 286.881 327.458 246.907 363.15C228.929 379.202 205.669 388.075 181.567 388.075H86.8687L111.425 363.141H181.567C199.544 363.141 216.892 356.525 230.301 344.552C260.115 317.932 263.052 272.311 236.897 242.088L151.825 143.783C147.32 138.576 147.888 130.703 153.094 126.197Z" fill="#0B1B54"/>
</svg>
