<svg width="39" height="40" viewBox="0 0 39 40" fill="none" xmlns="http://www.w3.org/2000/svg">
<path d="M30.6234 20.0986C30.6234 16.9299 29.548 14.2419 27.3973 12.0346C25.2466 9.82728 22.6275 8.72363 19.54 8.72363V5.47363C21.5192 5.47363 23.373 5.85957 25.1015 6.63145C26.83 7.40332 28.3341 8.44603 29.614 9.75957C30.8939 11.0731 31.9098 12.6169 32.6619 14.3908C33.414 16.1648 33.79 18.0674 33.79 20.0986H30.6234ZM24.29 20.0986C24.29 18.7445 23.8282 17.5934 22.9046 16.6455C21.981 15.6976 20.8595 15.2236 19.54 15.2236V11.9736C21.7303 11.9736 23.5973 12.7658 25.1411 14.3502C26.6848 15.9346 27.4567 17.8507 27.4567 20.0986H24.29ZM32.1275 34.7236C28.8289 34.7236 25.5699 33.9856 22.3505 32.5096C19.131 31.0335 16.2018 28.9413 13.563 26.233C10.9241 23.5247 8.88552 20.5184 7.44733 17.2143C6.00914 13.9101 5.29004 10.5653 5.29004 7.17988C5.29004 6.69238 5.44837 6.28613 5.76504 5.96113C6.08171 5.63613 6.47754 5.47363 6.95254 5.47363H13.365C13.7345 5.47363 14.0643 5.60228 14.3546 5.85957C14.6449 6.11686 14.8164 6.42155 14.8692 6.77363L15.8984 12.4611C15.9511 12.8945 15.938 13.2601 15.8588 13.558C15.7796 13.8559 15.6345 14.1132 15.4234 14.3299L11.5838 18.3111C12.1116 19.3132 12.7383 20.2814 13.464 21.2158C14.1897 22.1502 14.988 23.0507 15.8588 23.9174C16.6768 24.757 17.5345 25.5356 18.4317 26.2533C19.3289 26.971 20.2789 27.6278 21.2817 28.2236L25.0025 24.4049C25.24 24.1611 25.5501 23.9783 25.9327 23.8564C26.3154 23.7346 26.6914 23.7007 27.0609 23.7549L32.5234 24.8924C32.8928 25.0007 33.1963 25.1971 33.4338 25.4814C33.6713 25.7658 33.79 26.084 33.79 26.4361V33.0174C33.79 33.5049 33.6317 33.9111 33.315 34.2361C32.9984 34.5611 32.6025 34.7236 32.1275 34.7236ZM10.0796 15.2236L12.6921 12.5424L12.0192 8.72363H8.49629C8.62823 9.83405 8.81296 10.9309 9.05046 12.0143C9.28796 13.0976 9.63101 14.1674 10.0796 15.2236ZM24.2505 29.7674C25.2796 30.2278 26.3286 30.5934 27.3973 30.8643C28.4661 31.1351 29.5414 31.3111 30.6234 31.3924V27.8174L26.9025 27.0455L24.2505 29.7674Z" fill="#FF7655"/>
</svg>
