<svg width="207" height="126" viewBox="0 0 207 126" fill="none" xmlns="http://www.w3.org/2000/svg">
<path d="M61.801 9.05469H36.3899C29.8786 9.05469 23.5946 11.4516 18.7375 15.7881C7.93821 25.4303 6.87417 41.9549 16.3479 52.9023L47.1633 88.5098C48.7948 90.3955 48.5888 93.248 46.7033 94.8799C44.8176 96.5116 41.9652 96.3055 40.3332 94.4199L9.51877 58.8115C-3.18279 44.1337 -1.75619 21.9795 12.7229 9.05176C19.235 3.23749 27.6598 0.0234375 36.3899 0.0234375H70.6955L61.801 9.05469Z" fill="#FF7655"/>
<path d="M28.3748 30.4753C30.2605 28.8437 33.113 29.0497 34.7449 30.9353L65.5593 66.5437C78.2609 81.2215 76.8342 103.376 62.3552 116.303C55.8431 122.118 47.4184 125.332 38.6882 125.332H4.38745L13.282 116.301H38.6882C45.1996 116.301 51.4835 113.904 56.3406 109.567C67.1398 99.9249 68.2039 83.4003 58.7302 72.4529L27.9148 36.8455C26.2831 34.9596 26.489 32.1072 28.3748 30.4753Z" fill="#F5F5F5"/>
<path d="M85.2144 125.305V101.598H88.4204V125.305H85.2144ZM86.84 96.3595C86.1777 96.3595 85.6208 96.1338 85.1692 95.6822C84.7176 95.2306 84.4919 94.6888 84.4919 94.0566C84.4919 93.4244 84.7176 92.8976 85.1692 92.4761C85.6208 92.0245 86.1777 91.7988 86.84 91.7988C87.5023 91.7988 88.0592 92.0095 88.5108 92.4309C88.9623 92.8524 89.1881 93.3792 89.1881 94.0114C89.1881 94.6737 88.9623 95.2306 88.5108 95.6822C88.0893 96.1338 87.5324 96.3595 86.84 96.3595Z" fill="#FF7655"/>
<path d="M101.857 125.305V101.598H104.928V108.1L104.431 106.881C105.183 105.165 106.388 103.825 108.043 102.862C109.699 101.869 111.671 101.372 113.959 101.372C115.885 101.372 117.571 101.748 119.016 102.501C120.491 103.223 121.635 104.337 122.448 105.842C123.291 107.348 123.713 109.244 123.713 111.532V125.305H120.506V111.848C120.506 109.349 119.874 107.468 118.61 106.204C117.376 104.909 115.63 104.262 113.372 104.262C111.686 104.262 110.211 104.608 108.946 105.3C107.712 105.963 106.749 106.941 106.056 108.236C105.394 109.5 105.063 111.035 105.063 112.842V125.305H101.857Z" fill="#FF7655"/>
<path d="M151.745 125.305V120.067L151.609 119.209V110.448C151.609 108.431 151.037 106.881 149.893 105.797C148.779 104.713 147.109 104.172 144.881 104.172C143.346 104.172 141.886 104.427 140.501 104.939C139.116 105.451 137.942 106.128 136.979 106.971L135.534 104.578C136.738 103.554 138.183 102.772 139.869 102.23C141.554 101.658 143.331 101.372 145.197 101.372C148.268 101.372 150.631 102.14 152.287 103.675C153.972 105.18 154.815 107.483 154.815 110.584V125.305H151.745ZM143.571 125.53C141.795 125.53 140.245 125.244 138.92 124.673C137.626 124.07 136.632 123.258 135.94 122.234C135.248 121.18 134.901 119.976 134.901 118.622C134.901 117.387 135.187 116.273 135.759 115.28C136.361 114.256 137.325 113.444 138.649 112.842C140.004 112.209 141.81 111.893 144.068 111.893H152.241V114.287H144.158C141.871 114.287 140.275 114.693 139.372 115.506C138.499 116.319 138.062 117.327 138.062 118.531C138.062 119.886 138.589 120.97 139.643 121.783C140.696 122.595 142.172 123.002 144.068 123.002C145.874 123.002 147.425 122.595 148.719 121.783C150.044 120.94 151.007 119.735 151.609 118.17L152.332 120.383C151.73 121.948 150.676 123.197 149.171 124.131C147.696 125.064 145.829 125.53 143.571 125.53Z" fill="#F5F5F5"/>
<path d="M168.039 125.305V101.598H171.11V108.055L170.794 106.926C171.456 105.12 172.57 103.75 174.135 102.817C175.701 101.854 177.642 101.372 179.96 101.372V104.488C179.84 104.488 179.719 104.488 179.599 104.488C179.479 104.458 179.358 104.443 179.238 104.443C176.739 104.443 174.782 105.21 173.367 106.745C171.953 108.251 171.245 110.403 171.245 113.203V125.305H168.039Z" fill="#F5F5F5"/>
<path d="M203.683 125.305V120.067L203.548 119.209V110.448C203.548 108.431 202.976 106.881 201.832 105.797C200.718 104.713 199.047 104.172 196.819 104.172C195.284 104.172 193.824 104.427 192.439 104.939C191.054 105.451 189.88 106.128 188.917 106.971L187.472 104.578C188.676 103.554 190.121 102.772 191.807 102.23C193.493 101.658 195.269 101.372 197.136 101.372C200.206 101.372 202.569 102.14 204.225 103.675C205.911 105.18 206.754 107.483 206.754 110.584V125.305H203.683ZM195.51 125.53C193.734 125.53 192.183 125.244 190.859 124.673C189.564 124.07 188.571 123.258 187.878 122.234C187.186 121.18 186.84 119.976 186.84 118.622C186.84 117.387 187.126 116.273 187.698 115.28C188.3 114.256 189.263 113.444 190.588 112.842C191.943 112.209 193.749 111.893 196.007 111.893H204.18V114.287H196.097C193.809 114.287 192.213 114.693 191.31 115.506C190.437 116.319 190.001 117.327 190.001 118.531C190.001 119.886 190.528 120.97 191.581 121.783C192.635 122.595 194.11 123.002 196.007 123.002C197.813 123.002 199.363 122.595 200.658 121.783C201.982 120.94 202.946 119.735 203.548 118.17L204.27 120.383C203.668 121.948 202.614 123.197 201.109 124.131C199.634 125.064 197.768 125.53 195.51 125.53Z" fill="#F5F5F5"/>
</svg>
