<svg width="96" height="164" viewBox="0 0 96 164" fill="none" xmlns="http://www.w3.org/2000/svg">
<path d="M79.2407 12.3545H46.2622C37.812 12.3546 29.6573 15.4649 23.354 21.0928C9.33883 33.6063 7.95852 55.0514 20.2534 69.2588L60.2436 115.47L60.435 115.703C62.3421 118.147 62.0177 121.685 59.6469 123.736C57.1998 125.854 53.4992 125.586 51.3813 123.14L11.3901 76.9287C-5.09427 57.8801 -3.24253 29.1282 15.5483 12.3506C23.9995 4.80485 34.9325 0.633893 46.2622 0.633789H90.7836L79.2407 12.3545Z" fill="#FF7655"/>
<path d="M35.8613 40.1543C38.3086 38.0367 42.0091 38.3039 44.127 40.751L84.1182 86.9619C100.602 106.011 98.7508 134.763 79.96 151.54C71.5088 159.086 60.5756 163.257 49.2461 163.257H4.72949L16.2725 151.536H49.2461C57.6961 151.536 65.851 148.426 72.1543 142.798C86.1694 130.284 87.5497 108.839 75.2549 94.6318L35.2646 48.4209L35.0732 48.1875C33.1658 45.7435 33.4907 42.2061 35.8613 40.1543Z" fill="#F5F5F5"/>
</svg>
