<svg width="41" height="39" viewBox="0 0 41 39" fill="none" xmlns="http://www.w3.org/2000/svg">
<path fill-rule="evenodd" clip-rule="evenodd" d="M13.363 16.2288C15.1797 18.008 17.4608 18.8976 20.2065 18.8976C22.9521 18.8976 25.2332 18.008 27.0499 16.2288C28.8662 14.4491 29.7743 12.2145 29.7743 9.52496C29.7743 6.83537 28.8662 4.60077 27.0499 2.82115C25.2332 1.04195 22.9521 0.152344 20.2065 0.152344C17.4608 0.152344 15.1797 1.04195 13.363 2.82115C11.5467 4.60077 10.6386 6.83537 10.6386 9.52496C10.6386 12.2145 11.5467 14.4491 13.363 16.2288ZM0.238281 32.3865L0.238281 38.4992H4.39852V34.4238V32.3865C4.39852 31.8025 4.56139 31.2524 4.88712 30.736C5.21285 30.2197 5.63239 29.8326 6.14574 29.5746C8.64176 28.3655 11.0198 27.5132 13.28 27.0177C15.5401 26.5217 17.849 26.2738 20.2065 26.2738C22.5639 26.2738 24.8588 26.5217 27.0911 27.0177C29.3238 27.5132 31.7021 28.3655 34.226 29.5746C34.7389 29.8326 35.1653 30.2197 35.5052 30.736C35.8446 31.2524 36.0144 31.8025 36.0144 32.3865V34.4238V38.4992H40.1746V32.3865C40.1746 30.8921 39.7913 29.5869 39.0246 28.4707C38.2583 27.3545 37.2399 26.5026 35.9695 25.915C33.2538 24.7006 30.6063 23.7775 28.0271 23.1459C25.4479 22.5143 22.841 22.1984 20.2065 22.1984C17.5719 22.1984 14.9579 22.5075 12.3646 23.1257C9.77163 23.7439 7.11628 24.671 4.39852 25.907C3.16424 26.491 2.1623 27.3433 1.39269 28.464C0.623085 29.5846 0.238281 30.8921 0.238281 32.3865ZM24.0647 13.3044C23.0317 14.3167 21.7457 14.8228 20.2065 14.8228C18.6672 14.8228 17.3812 14.3167 16.3482 13.3044C15.3149 12.2926 14.7982 11.0328 14.7982 9.52496C14.7982 8.01716 15.3149 6.75733 16.3482 5.74547C17.3812 4.7332 18.6672 4.22708 20.2065 4.22708C21.7457 4.22708 23.0317 4.7332 24.0647 5.74547C25.098 6.75733 25.6147 8.01716 25.6147 9.52496C25.6147 11.0328 25.098 12.2926 24.0647 13.3044Z" fill="#FF7655"/>
<path d="M20.2065 14.8228C21.7457 14.8228 23.0317 14.3167 24.0647 13.3044C25.098 12.2926 25.6147 11.0328 25.6147 9.52496C25.6147 8.01716 25.098 6.75733 24.0647 5.74547C23.0317 4.7332 21.7457 4.22708 20.2065 4.22708C18.6672 4.22708 17.3812 4.7332 16.3482 5.74547C15.3149 6.75733 14.7982 8.01716 14.7982 9.52496C14.7982 11.0328 15.3149 12.2926 16.3482 13.3044C17.3812 14.3167 18.6672 14.8228 20.2065 14.8228Z" fill="white"/>
<path d="M36.0144 34.4238H4.39852V38.4992H36.0144V34.4238Z" fill="#FF7655"/>
</svg>
