<svg width="512" height="506" viewBox="0 0 512 506" fill="none" xmlns="http://www.w3.org/2000/svg">
<circle cx="248.786" cy="249.499" r="248.595" fill="white"/>
<path d="M370.332 445.302L237.788 445.215C233.998 445.214 230.246 444.466 226.745 443.014C223.244 441.563 220.063 439.436 217.384 436.755C214.705 434.074 212.58 430.891 211.131 427.389C209.682 423.887 208.937 420.134 208.938 416.344L209.004 84.0736C209.006 76.4202 212.048 69.081 217.46 63.6692C222.872 58.2575 230.211 55.2159 237.864 55.213L370.397 55.2889C374.191 55.2889 377.948 56.0363 381.452 57.4884C384.957 58.9406 388.142 61.069 390.824 63.7521C393.506 66.4352 395.633 69.6205 397.084 73.1259C398.535 76.6313 399.281 80.3882 399.279 84.1819L399.214 416.441C399.213 420.233 398.465 423.987 397.013 427.489C395.56 430.992 393.432 434.173 390.751 436.853C388.069 439.533 384.885 441.659 381.382 443.108C377.878 444.558 374.124 445.303 370.332 445.302Z" fill="#263238"/>
<path d="M369.987 67.1453H344.291C342.603 67.1851 341.001 67.8916 339.833 69.1102C338.665 70.3288 338.027 71.9603 338.059 73.6479V78.308C338.091 79.9956 337.454 81.6271 336.286 82.8457C335.118 84.0643 333.515 84.7708 331.828 84.8106H281.736C280.048 84.7708 278.444 84.0646 277.274 82.8464C276.105 81.6281 275.465 79.9966 275.494 78.308V73.6045C275.526 71.917 274.888 70.2854 273.72 69.0668C272.552 67.8482 270.949 67.1418 269.262 67.1019H237.725C232.366 67.0962 227.224 69.2187 223.43 73.0028C219.636 76.7869 217.499 81.9229 217.491 87.2816L217.426 411.597C217.429 416.958 219.559 422.098 223.348 425.89C227.138 429.681 232.277 431.814 237.638 431.82L369.857 431.896C372.513 431.899 375.144 431.378 377.598 430.363C380.053 429.349 382.284 427.861 384.163 425.984C386.042 424.106 387.533 421.877 388.55 419.424C389.567 416.97 390.091 414.34 390.091 411.684L390.156 87.3683C390.156 82.0142 388.032 76.8786 384.252 73.0876C380.471 69.2966 375.341 67.1596 369.987 67.1453Z" fill="white"/>
<path d="M389.722 121.268C389.722 121.354 351.161 121.43 303.606 121.43C256.051 121.43 217.479 121.354 217.479 121.268C217.479 121.181 256.029 121.105 303.606 121.105C351.183 121.105 389.722 121.17 389.722 121.268Z" fill="#EBEBEB"/>
<path d="M241.46 105.857C241.33 105.857 241.203 105.811 241.103 105.727L236.063 101.306C236.008 101.254 235.965 101.192 235.935 101.123C235.905 101.054 235.89 100.98 235.89 100.905C235.888 100.828 235.904 100.753 235.936 100.683C235.968 100.614 236.015 100.552 236.074 100.504L241.113 96.3203C241.168 96.2761 241.23 96.243 241.297 96.2229C241.363 96.2028 241.434 96.1961 241.503 96.2032C241.573 96.2102 241.64 96.2309 241.701 96.264C241.763 96.2971 241.817 96.342 241.861 96.3961C241.907 96.448 241.942 96.5086 241.964 96.5744C241.985 96.6401 241.993 96.7096 241.987 96.7786C241.981 96.8476 241.961 96.9146 241.928 96.9755C241.895 97.0365 241.851 97.0901 241.796 97.1331L237.234 100.926L241.807 104.936C241.911 105.032 241.975 105.164 241.985 105.305C241.995 105.446 241.951 105.585 241.861 105.695C241.809 105.748 241.747 105.79 241.678 105.818C241.609 105.846 241.535 105.859 241.46 105.857Z" fill="#263238"/>
<path d="M292.801 176.735C294.918 175.459 297.196 174.471 299.575 173.798L300.973 167.09L312.298 166.895L313.924 173.549C316.325 174.134 318.637 175.042 320.795 176.248L326.528 172.498L334.667 180.366L331.123 186.218C332.405 188.334 333.397 190.612 334.071 192.992L340.769 194.379L340.964 205.704L334.331 207.341C333.74 209.742 332.829 212.053 331.622 214.212L335.382 219.934L327.514 228.084L321.662 224.529C319.545 225.809 317.267 226.801 314.888 227.477L313.49 234.186L302.165 234.381L300.539 227.726C298.139 227.136 295.828 226.229 293.668 225.028L287.946 228.778L279.796 220.91L283.34 215.057C282.062 212.94 281.071 210.662 280.392 208.284L273.64 206.886L273.445 195.571L280.089 193.935C280.68 191.533 281.591 189.222 282.798 187.064L279.059 181.341L286.927 173.192L292.78 176.735H292.801ZM298.838 191.821C297.166 193.55 296.044 195.736 295.614 198.103C295.185 200.47 295.466 202.911 296.424 205.117C297.382 207.323 298.973 209.196 300.995 210.498C303.017 211.801 305.38 212.474 307.785 212.433C310.19 212.392 312.529 211.639 314.506 210.268C316.483 208.898 318.009 206.972 318.891 204.735C319.773 202.497 319.972 200.048 319.462 197.697C318.952 195.346 317.756 193.2 316.026 191.529C313.708 189.289 310.595 188.062 307.371 188.117C304.148 188.172 301.079 189.504 298.838 191.821Z" fill="#FF7655"/>
<path d="M343.875 149.588C344.733 149.437 345.607 149.405 346.473 149.492L347.807 147.457L351.583 148.877L351.254 151.285C351.996 151.79 352.666 152.393 353.246 153.078L355.628 152.584L357.291 156.256L355.359 157.72C355.502 158.579 355.531 159.452 355.446 160.318L357.481 161.652L356.026 165.463L353.61 165.125C353.103 165.845 352.5 166.492 351.817 167.048L352.311 169.43L348.647 171.101L347.175 169.161C346.316 169.304 345.443 169.333 344.577 169.248L343.234 171.283L339.467 169.872L339.796 167.464C339.08 166.952 338.434 166.349 337.873 165.671L335.491 166.165L333.82 162.492L335.76 161.02C335.617 160.161 335.587 159.288 335.673 158.422L333.638 157.088L335.049 153.312L337.466 153.641C337.973 152.926 338.573 152.282 339.25 151.727L338.765 149.336L342.429 147.673L343.901 149.613L343.875 149.588ZM343.875 155.364C343.094 155.718 342.436 156.295 341.983 157.023C341.53 157.75 341.304 158.596 341.332 159.453C341.36 160.309 341.642 161.138 342.142 161.834C342.641 162.531 343.336 163.063 344.139 163.364C344.941 163.665 345.815 163.722 346.649 163.526C347.484 163.33 348.241 162.891 348.826 162.264C349.411 161.638 349.797 160.852 349.934 160.006C350.072 159.16 349.956 158.292 349.6 157.512C349.124 156.476 348.259 155.669 347.192 155.267C346.125 154.865 344.942 154.9 343.901 155.364H343.875Z" fill="#FF7655"/>
<path d="M261.266 144.654C262.184 143.748 263.222 142.971 264.35 142.345L264.248 138.779L269.963 137.317L271.585 140.489C272.876 140.5 274.159 140.687 275.4 141.044L277.855 138.442L282.927 141.453L281.831 144.844C282.729 145.77 283.505 146.806 284.14 147.928L287.706 147.826L289.168 153.555L285.996 155.178C285.984 156.463 285.802 157.74 285.456 158.978L288.043 161.433L285.032 166.505L281.641 165.409C280.723 166.315 279.685 167.092 278.557 167.718L278.659 171.284L272.944 172.746L271.322 169.574C270.031 169.563 268.748 169.376 267.507 169.019L265.052 171.62L259.98 168.609L261.076 165.219C260.179 164.293 259.403 163.257 258.767 162.135L255.201 162.237L253.739 156.508L256.926 154.885C256.938 153.6 257.12 152.323 257.466 151.085L254.879 148.63L257.89 143.558L261.281 144.654H261.266ZM266.133 151.567C265.495 152.643 265.19 153.885 265.256 155.134C265.323 156.383 265.758 157.585 266.508 158.587C267.257 159.589 268.286 160.347 269.466 160.764C270.646 161.181 271.922 161.239 273.135 160.931C274.348 160.623 275.442 159.962 276.279 159.032C277.116 158.102 277.659 156.945 277.839 155.707C278.019 154.468 277.827 153.205 277.289 152.075C276.751 150.946 275.89 150.001 274.815 149.36C274.096 148.94 273.3 148.665 272.474 148.552C271.648 148.438 270.808 148.489 270.002 148.701C269.195 148.913 268.439 149.281 267.775 149.786C267.111 150.29 266.553 150.92 266.133 151.641V151.567Z" fill="#FF7655"/>
<path d="M358.031 313.549H252.548C245.833 313.549 240.389 318.993 240.389 325.708V327.172C240.389 333.887 245.833 339.331 252.548 339.331H358.031C364.747 339.331 370.191 333.887 370.191 327.172V325.708C370.191 318.993 364.747 313.549 358.031 313.549Z" fill="#F5F5F5"/>
<path d="M300.386 313.549H252.548C245.833 313.549 240.389 318.993 240.389 325.708V327.172C240.389 333.887 245.833 339.331 252.548 339.331H300.386C307.101 339.331 312.545 333.887 312.545 327.172V325.708C312.545 318.993 307.101 313.549 300.386 313.549Z" fill="url(#paint0_linear_1828_219)"/>
<path d="M343.586 328.321C343.586 329.665 342.665 330.684 340.79 330.684C340.274 330.701 339.759 330.614 339.277 330.428C338.794 330.241 338.354 329.96 337.983 329.6L338.287 329.156C338.612 329.483 339.001 329.74 339.43 329.91C339.859 330.08 340.318 330.159 340.78 330.142C342.253 330.142 343.012 329.394 343.012 328.332C343.012 327.27 342.308 326.5 340.14 326.5H338.525L338.948 322.631H343.185V323.152H339.436L339.132 325.969H340.27C342.698 325.98 343.586 326.945 343.586 328.321Z" fill="#FF725E"/>
<path d="M349.904 328.321C349.904 329.665 348.983 330.684 347.108 330.684C346.591 330.701 346.076 330.614 345.594 330.428C345.112 330.241 344.672 329.96 344.301 329.6L344.593 329.156C344.921 329.483 345.312 329.739 345.743 329.908C346.173 330.078 346.634 330.158 347.097 330.142C348.571 330.142 349.264 329.394 349.264 328.332C349.264 327.27 348.571 326.5 346.403 326.5H344.788L345.211 322.631H349.492V323.152H345.753L345.439 325.969H346.588C349.015 325.98 349.904 326.945 349.904 328.321Z" fill="#FF725E"/>
<path d="M350.768 324.777C350.768 323.476 351.494 322.609 352.534 322.609C353.575 322.609 354.301 323.465 354.301 324.777C354.301 326.088 353.564 326.944 352.534 326.944C351.505 326.944 350.768 326.055 350.768 324.777ZM353.867 324.777C353.867 323.693 353.325 323.01 352.534 323.01C351.743 323.01 351.201 323.682 351.201 324.777C351.201 325.871 351.743 326.543 352.534 326.543C353.325 326.543 353.824 325.86 353.824 324.777H353.867ZM357.4 322.609H357.888L352.469 330.596H351.981L357.4 322.609ZM355.547 328.483C355.547 327.182 356.273 326.315 357.314 326.315C358.354 326.315 359.069 327.172 359.069 328.483C359.069 329.794 358.354 330.651 357.314 330.651C356.273 330.651 355.547 329.816 355.547 328.516V328.483ZM358.636 328.483C358.636 327.399 358.094 326.716 357.314 326.716C356.533 326.716 355.97 327.378 355.97 328.483C355.97 329.588 356.512 330.25 357.314 330.25C358.115 330.25 358.636 329.61 358.636 328.516V328.483Z" fill="#FF725E"/>
<path d="M358.031 339.331C359.009 339.267 359.98 339.126 360.936 338.909C363.674 338.212 366.082 336.579 367.742 334.292C368.924 332.652 369.67 330.739 369.909 328.732C370.028 327.58 370.053 326.42 369.985 325.264C369.947 324.019 369.705 322.789 369.27 321.623C368.543 319.616 367.29 317.841 365.643 316.484C363.996 315.127 362.015 314.237 359.906 313.906C358.323 313.736 356.729 313.682 355.138 313.744L252.516 313.83C251.296 313.849 250.085 314.038 248.918 314.394C247.758 314.763 246.662 315.308 245.667 316.009C243.677 317.392 242.163 319.357 241.332 321.634C239.901 326.099 240.367 331.485 243.499 334.953C245.008 336.692 246.988 337.956 249.2 338.594C251.367 339.255 253.698 339.017 255.973 339.06H269.304L315.439 339.125L346.543 339.212L354.997 339.266H346.543L315.439 339.353L269.304 339.418H252.625C251.444 339.417 250.27 339.253 249.135 338.93C246.798 338.263 244.709 336.924 243.125 335.081C241.542 333.237 240.534 330.97 240.226 328.559C240.1 327.342 240.071 326.117 240.14 324.896C240.195 323.651 240.444 322.423 240.877 321.254C241.748 318.875 243.324 316.818 245.396 315.359C246.439 314.633 247.581 314.064 248.788 313.668C250.012 313.3 251.282 313.103 252.56 313.083L355.181 313.169C356.791 313.107 358.403 313.165 360.004 313.343C361.535 313.594 363.006 314.131 364.339 314.925C366.792 316.379 368.659 318.644 369.617 321.33C371.166 326.38 370.256 331.312 367.937 334.238C366.233 336.543 363.768 338.171 360.979 338.833C360.567 338.941 360.146 339.017 359.722 339.06C359.418 339.113 359.109 339.139 358.801 339.136C358.291 339.342 358.031 339.331 358.031 339.331Z" fill="#0B1854"/>
<path d="M257.524 406.47V415.14C257.525 415.311 257.48 415.48 257.394 415.627C257.308 415.775 257.183 415.897 257.033 415.98C256.884 416.063 256.715 416.105 256.543 416.1C256.372 416.095 256.206 416.044 256.061 415.953L249.233 411.618C249.097 411.532 248.984 411.413 248.906 411.272C248.828 411.13 248.787 410.972 248.787 410.81C248.787 410.649 248.828 410.49 248.906 410.349C248.984 410.208 249.097 410.089 249.233 410.003L256.061 405.668C256.205 405.577 256.371 405.526 256.541 405.521C256.711 405.516 256.879 405.556 257.029 405.638C257.178 405.72 257.303 405.84 257.39 405.986C257.477 406.133 257.523 406.3 257.524 406.47Z" fill="#E0E0E0"/>
<path d="M313.609 410.719C313.609 411.902 313.258 413.059 312.601 414.043C311.944 415.026 311.009 415.793 309.916 416.246C308.823 416.699 307.62 416.817 306.46 416.586C305.299 416.356 304.233 415.786 303.397 414.949C302.56 414.112 301.99 413.046 301.759 411.886C301.529 410.726 301.647 409.523 302.1 408.43C302.553 407.336 303.319 406.402 304.303 405.745C305.287 405.087 306.444 404.737 307.627 404.737C309.213 404.739 310.733 405.371 311.854 406.492C312.975 407.613 313.606 409.133 313.609 410.719Z" fill="#E0E0E0"/>
<path d="M365.593 405.516H358.603C357.484 405.516 356.576 406.423 356.576 407.543V414.533C356.576 415.652 357.484 416.56 358.603 416.56H365.593C366.712 416.56 367.62 415.652 367.62 414.533V407.543C367.62 406.423 366.712 405.516 365.593 405.516Z" fill="#E0E0E0"/>
<path d="M373.596 98.954C373.219 98.954 372.85 98.8421 372.536 98.6325C372.223 98.423 371.978 98.1251 371.834 97.7765C371.689 97.428 371.652 97.0445 371.725 96.6745C371.799 96.3045 371.98 95.9646 372.247 95.6978C372.514 95.4311 372.854 95.2494 373.224 95.1758C373.594 95.1022 373.977 95.14 374.326 95.2844C374.674 95.4287 374.972 95.6732 375.182 95.9869C375.391 96.3005 375.503 96.6693 375.503 97.0466C375.503 97.5525 375.302 98.0376 374.945 98.3953C374.587 98.753 374.102 98.954 373.596 98.954Z" fill="#263238"/>
<path d="M373.595 104.459C373.216 104.458 372.845 104.345 372.53 104.133C372.215 103.921 371.971 103.62 371.828 103.268C371.686 102.916 371.651 102.53 371.729 102.159C371.807 101.787 371.995 101.448 372.267 101.183C372.539 100.919 372.884 100.741 373.257 100.674C373.631 100.607 374.016 100.652 374.363 100.805C374.711 100.958 375.005 101.211 375.208 101.531C375.411 101.852 375.513 102.226 375.503 102.605C375.488 103.102 375.281 103.573 374.925 103.919C374.569 104.265 374.092 104.459 373.595 104.459Z" fill="#263238"/>
<path d="M373.596 109.953C373.219 109.953 372.852 109.842 372.538 109.633C372.225 109.425 371.981 109.128 371.836 108.781C371.691 108.434 371.652 108.051 371.724 107.682C371.795 107.312 371.975 106.972 372.24 106.705C372.504 106.437 372.842 106.254 373.211 106.178C373.579 106.102 373.962 106.137 374.311 106.278C374.66 106.419 374.959 106.66 375.171 106.971C375.383 107.281 375.499 107.648 375.503 108.024C375.506 108.277 375.459 108.527 375.364 108.761C375.27 108.995 375.13 109.208 374.952 109.387C374.775 109.566 374.564 109.709 374.331 109.806C374.098 109.903 373.848 109.953 373.596 109.953Z" fill="#263238"/>
<path d="M445.049 428.471C445.645 425.859 446.923 422.77 449.579 422.51C450.373 422.485 451.16 422.672 451.857 423.053C452.555 423.434 453.138 423.995 453.545 424.678C454.393 426.035 454.878 427.587 454.954 429.186C455.59 440.519 454.616 451.885 452.06 462.945L442.307 463.78C441.418 451.939 442.342 440.032 445.049 428.471Z" fill="#0B1B54"/>
<path d="M449.58 422.51C449.936 422.914 450.255 423.349 450.533 423.811C451.146 425.151 451.429 426.619 451.357 428.091C451.357 429.956 451.357 432.21 451.194 434.681C451.032 437.152 450.88 439.883 450.566 442.722C449.948 448.423 449.135 453.56 448.658 457.288C448.409 459.152 448.236 460.669 448.138 461.71C448.138 462.197 448.062 462.598 448.041 462.924C448.024 463.064 448.024 463.206 448.041 463.346C448.086 463.212 448.119 463.074 448.138 462.934C448.138 462.609 448.247 462.208 448.322 461.731C448.485 460.648 448.713 459.141 448.983 457.331C449.536 453.614 450.403 448.488 451.021 442.776C451.335 439.915 451.53 437.184 451.617 434.692C451.617 433.456 451.617 432.264 451.682 431.159C451.747 430.053 451.682 428.991 451.682 428.081C451.722 426.576 451.383 425.085 450.696 423.746C450.423 423.254 450.041 422.831 449.58 422.51Z" fill="#263238"/>
<path d="M444.364 425.133C444.299 425.242 444.841 425.686 445.567 426.13C446.293 426.575 446.943 426.856 447.008 426.748C447.073 426.64 446.532 426.195 445.805 425.751C445.079 425.307 444.429 425.025 444.364 425.133Z" fill="#263238"/>
<path d="M442.254 432.937C442.254 433.056 443.034 433.153 443.988 432.937C444.942 432.72 445.635 432.362 445.592 432.254C445.548 432.145 444.812 432.319 443.901 432.492C442.991 432.666 442.243 432.807 442.254 432.937Z" fill="#263238"/>
<path d="M454.295 433.619C454.295 433.738 455.021 433.933 455.953 433.912C456.885 433.89 457.622 433.673 457.6 433.554C457.058 433.422 456.495 433.392 455.942 433.467C455.053 433.489 454.316 433.489 454.295 433.619Z" fill="#263238"/>
<path d="M452.657 426.553C452.657 426.672 453.405 426.629 454.174 426.184C454.944 425.74 455.345 425.155 455.258 425.101C455.171 425.046 454.651 425.426 453.947 425.827C453.242 426.228 452.635 426.423 452.657 426.553Z" fill="#263238"/>
<path d="M441.884 441.151C441.96 441.248 442.675 440.836 443.488 440.229C444.3 439.622 444.886 439.048 444.81 438.94C444.734 438.831 444.019 439.265 443.217 439.872C442.415 440.479 441.884 441.053 441.884 441.151Z" fill="#263238"/>
<path d="M447.702 434.431C447.811 434.485 448.201 433.943 448.569 433.217C448.938 432.491 449.155 431.852 449.046 431.798C448.938 431.743 448.548 432.285 448.168 433.011C447.789 433.737 447.583 434.377 447.702 434.431Z" fill="#263238"/>
<path d="M448.451 443.481C448.559 443.481 448.353 442.69 447.974 441.801C447.595 440.912 447.194 440.251 447.085 440.305C446.977 440.36 447.183 441.107 447.562 441.985C447.941 442.863 448.331 443.535 448.451 443.481Z" fill="#263238"/>
<path d="M446.16 453.256C446.586 452.731 446.896 452.122 447.071 451.468C447.379 450.863 447.549 450.197 447.569 449.517C447.45 449.517 447.038 450.276 446.659 451.306C446.352 451.912 446.182 452.577 446.16 453.256Z" fill="#263238"/>
<path d="M453.523 460.334C453.61 460.247 453.176 459.683 452.559 459.087C451.941 458.491 451.377 458.079 451.291 458.166C451.204 458.253 451.637 458.816 452.255 459.413C452.873 460.009 453.436 460.42 453.523 460.334Z" fill="#263238"/>
<path d="M453.741 446.321C453.741 446.44 454.392 446.386 455.107 446.191C455.822 445.996 456.386 445.746 456.353 445.627C456.321 445.508 455.714 445.573 454.988 445.757C454.261 445.941 453.709 446.158 453.741 446.321Z" fill="#263238"/>
<path d="M435.531 430.735C435.618 430.833 436.236 430.399 436.907 429.771C437.579 429.142 438.067 428.568 437.991 428.481C437.915 428.394 437.287 428.817 436.615 429.445C435.943 430.074 435.444 430.648 435.531 430.735Z" fill="#263238"/>
<path d="M413.904 402.894C413.438 400.184 413.467 397.412 413.99 394.712C414.673 392.057 416.505 389.532 419.138 388.784C422.151 387.939 425.413 389.64 427.321 392.133C429.228 394.625 430.03 397.747 430.745 400.803C435.743 421.792 438.557 443.242 439.145 464.81L426.714 467.432C419.68 445.389 416.537 425.903 413.904 402.894Z" fill="#0B1B54"/>
<path d="M420.87 388.566C420.87 388.566 420.87 388.631 420.935 388.761L421.184 389.314L422.171 391.417C422.376 391.872 422.647 392.37 422.875 392.934L423.612 394.787C423.883 395.448 424.165 396.163 424.468 396.955L425.292 399.393C426.609 403.395 427.695 407.469 428.543 411.596C429.551 416.246 430.364 421.426 431.101 426.866C432.52 437.78 433.268 447.718 434.114 454.892C434.504 458.48 434.829 461.395 435.111 463.378C435.241 464.343 435.349 465.112 435.436 465.676L435.522 466.272C435.522 466.413 435.522 466.478 435.522 466.478V466.272C435.522 466.109 435.522 465.903 435.522 465.665C435.522 465.102 435.382 464.332 435.284 463.357C435.056 461.352 434.775 458.447 434.428 454.86C433.713 447.685 432.965 437.737 431.545 426.812C430.808 421.393 429.974 416.17 428.944 411.51C428.084 407.358 426.977 403.261 425.628 399.241L424.772 396.814C424.457 396.066 424.154 395.351 423.883 394.646C423.612 393.942 423.341 393.378 423.103 392.804C422.864 392.229 422.582 391.72 422.355 391.297L421.271 389.227L420.989 388.696C420.952 388.65 420.913 388.607 420.87 388.566Z" fill="#263238"/>
<path d="M419.71 388.654C419.112 389.47 418.658 390.383 418.367 391.352C417.592 394.004 417.396 396.79 417.792 399.524C418.616 406.406 419.96 415.889 421.477 426.336C422.994 436.784 424.642 446.234 425.812 453.051C426.43 456.465 426.896 459.217 427.318 461.114L427.752 463.282L427.882 463.845C427.882 463.975 427.882 464.04 427.936 464.04C427.946 463.972 427.946 463.903 427.936 463.834C427.936 463.683 427.936 463.498 427.85 463.26L427.492 461.092C427.167 459.142 426.701 456.389 426.137 453.008C424.988 446.18 423.449 436.751 421.878 426.282C420.307 415.813 418.974 406.362 418.074 399.502C417.65 396.808 417.79 394.055 418.486 391.417C418.811 390.462 419.221 389.537 419.71 388.654Z" fill="#263238"/>
<path d="M413.338 421.632C414.152 421.515 414.938 421.25 415.658 420.852C416.449 420.595 417.184 420.191 417.825 419.66C417.013 419.784 416.228 420.048 415.506 420.44C414.717 420.702 413.982 421.106 413.338 421.632Z" fill="#263238"/>
<path d="M410.92 408.996C412.419 409.864 414.059 410.462 415.765 410.763C414.266 409.895 412.626 409.297 410.92 408.996Z" fill="#263238"/>
<path d="M410.964 398.537C411.58 398.688 412.223 398.688 412.839 398.537C413.47 398.519 414.09 398.356 414.648 398.06C414.033 397.909 413.389 397.909 412.774 398.06C412.142 398.078 411.522 398.241 410.964 398.537Z" fill="#263238"/>
<path d="M423.396 390.963C423.505 391.017 424.003 390.302 424.48 389.348C424.856 388.804 425.104 388.181 425.206 387.527C425.098 387.527 424.588 388.188 424.122 389.142C423.748 389.687 423.5 390.309 423.396 390.963Z" fill="#263238"/>
<path d="M428.111 396.944C428.111 397.074 428.924 397.096 429.9 397.009C430.875 396.923 431.655 396.749 431.644 396.619C431.062 396.455 430.448 396.437 429.856 396.565C429.253 396.55 428.654 396.68 428.111 396.944Z" fill="#263238"/>
<path d="M432.062 409.31C432.062 409.429 432.929 409.137 433.894 408.671C434.858 408.205 435.585 407.728 435.53 407.587C434.879 407.666 434.254 407.888 433.699 408.237C432.734 408.736 432.008 409.202 432.062 409.31Z" fill="#263238"/>
<path d="M433.14 419.876C433.14 419.995 433.855 420.201 434.776 420.32C435.33 420.464 435.912 420.464 436.467 420.32C436.467 420.19 435.752 419.995 434.83 419.865C433.909 419.735 433.161 419.746 433.14 419.876Z" fill="#263238"/>
<path d="M435.805 437.086C436.346 437.358 436.944 437.495 437.55 437.487C438.514 437.585 439.305 437.574 439.316 437.487C439.327 437.401 438.558 437.184 437.593 437.075C436.629 436.967 435.816 436.956 435.805 437.086Z" fill="#263238"/>
<path d="M437.442 446.57C437.388 446.689 438.06 447.09 438.927 447.469C439.794 447.848 440.531 448.065 440.585 447.957C440.639 447.848 439.967 447.437 439.1 447.057C438.233 446.678 437.496 446.461 437.442 446.57Z" fill="#263238"/>
<path d="M430.405 457.971C431.273 456.862 431.89 455.58 432.215 454.21C431.353 455.322 430.737 456.604 430.405 457.971Z" fill="#263238"/>
<path d="M426.874 440.11C426.798 440.197 427.459 440.901 428.358 441.66C429.258 442.418 430.06 442.971 430.136 442.874C430.212 442.776 429.55 442.082 428.651 441.324C427.751 440.565 426.96 440.013 426.874 440.11Z" fill="#263238"/>
<path d="M426.714 430.617C426.811 430.693 427.353 430.184 427.917 429.479C428.48 428.775 428.86 428.146 428.762 428.07C428.665 427.994 428.123 428.504 427.559 429.208C426.996 429.913 426.616 430.541 426.714 430.617Z" fill="#263238"/>
<path d="M424.304 418.64C424.218 418.727 424.77 419.41 425.551 420.168C426.331 420.927 427.035 421.458 427.122 421.371C427.209 421.285 426.645 420.602 425.865 419.843C425.085 419.085 424.391 418.554 424.304 418.64Z" fill="#263238"/>
<path d="M422.813 409.928C422.899 410.015 423.571 409.408 424.308 408.573C425.045 407.739 425.566 406.991 425.479 406.915C425.392 406.839 424.709 407.436 423.972 408.27C423.235 409.105 422.715 409.852 422.813 409.928Z" fill="#263238"/>
<path d="M420.206 398.201C420.387 398.833 420.705 399.418 421.138 399.913C421.745 400.791 422.319 401.452 422.428 401.377C422.247 400.744 421.928 400.16 421.496 399.664C420.932 398.786 420.358 398.125 420.206 398.201Z" fill="#263238"/>
<path d="M416.252 387.439C416.399 388.069 416.684 388.658 417.087 389.163C417.651 390.051 418.171 390.723 418.301 390.658C418.156 390.025 417.871 389.432 417.466 388.924C416.903 388.035 416.361 387.374 416.252 387.439Z" fill="#263238"/>
<path d="M412.956 392.685C412.956 392.805 413.433 393.119 414.126 393.39C414.82 393.661 415.416 393.791 415.459 393.682C415.503 393.574 414.983 393.249 414.289 392.978C413.595 392.707 412.999 392.577 412.956 392.685Z" fill="#263238"/>
<path d="M415.667 432.145C416.52 432.1 417.348 431.839 418.073 431.386C418.86 431.06 419.553 430.542 420.089 429.88C419.331 430.165 418.604 430.528 417.921 430.964C417.132 431.281 416.377 431.677 415.667 432.145Z" fill="#263238"/>
<path d="M417.751 440.404C418.283 440.683 418.874 440.832 419.475 440.837C420.059 440.976 420.668 440.976 421.252 440.837C421.252 440.707 420.493 440.512 419.529 440.404C418.564 440.295 417.773 440.274 417.751 440.404Z" fill="#263238"/>
<path d="M420.601 454.601C420.687 454.688 421.587 453.962 422.389 452.791C422.948 452.127 423.322 451.327 423.473 450.472C422.941 451.118 422.47 451.811 422.064 452.542C421.517 453.185 421.028 453.874 420.601 454.601Z" fill="#263238"/>
<path d="M441.169 459.727C441.245 459.629 440.692 459.098 439.944 458.545C439.196 457.993 438.524 457.613 438.449 457.722C438.373 457.83 438.925 458.35 439.673 458.903C440.421 459.456 441.093 459.824 441.169 459.727Z" fill="#263238"/>
<path d="M466.559 413.644C467.053 411.273 468.322 409.133 470.167 407.563C472.012 405.993 474.327 405.082 476.747 404.974C481.082 405.733 482.751 409.992 483.249 414.36C483.748 418.727 482.404 423.03 481.082 427.246C476.747 440.684 472.451 454.116 468.196 467.54L455.971 466.196C459.883 448.195 462.094 431.516 466.559 413.644Z" fill="#0B1B54"/>
<path d="M476.567 404.606C477.106 405.231 477.599 405.893 478.041 406.589C479.161 408.535 479.796 410.72 479.895 412.962C479.945 416.275 479.436 419.573 478.388 422.716C477.304 426.346 476.145 430.302 474.909 434.496L468.689 455.911C467.919 458.632 467.301 460.843 466.846 462.414L466.369 464.191C466.303 464.396 466.256 464.607 466.228 464.82C466.328 464.627 466.404 464.424 466.456 464.213C466.597 463.769 466.781 463.183 467.02 462.457L468.992 455.955C470.628 450.438 472.872 442.895 475.354 434.561C476.567 430.389 477.738 426.411 478.789 422.781C479.839 419.576 480.323 416.213 480.22 412.843C480.1 410.54 479.403 408.304 478.193 406.34C477.744 405.681 477.196 405.096 476.567 404.606Z" fill="#263238"/>
<path d="M458.685 464.896C458.798 464.711 458.892 464.515 458.966 464.311C459.118 463.921 459.378 463.346 459.66 462.598C460.234 461.103 460.982 458.892 461.752 456.096C462.521 453.3 463.28 449.994 464.017 446.277C464.754 442.56 465.502 438.463 466.314 434.16C467.127 429.858 468.103 425.826 469.197 422.239C470.147 419.028 471.331 415.891 472.741 412.854C473.694 410.812 474.78 408.835 475.992 406.936C476.415 406.254 476.794 405.766 477.076 405.408C477.214 405.241 477.328 405.055 477.412 404.856C477.26 405.009 477.123 405.176 477 405.354C476.751 405.69 476.35 406.167 475.917 406.839C474.623 408.704 473.478 410.668 472.492 412.713C471.028 415.745 469.803 418.886 468.829 422.109C467.745 425.75 466.759 429.815 465.903 434.106C465.046 438.398 464.342 442.495 463.648 446.234C462.955 449.973 462.207 453.278 461.481 456.042C460.755 458.805 460.05 461.027 459.519 462.544C459.281 463.303 459.042 463.888 458.912 464.289C458.818 464.484 458.742 464.687 458.685 464.896Z" fill="#263238"/>
<path d="M480.901 425.219C480.901 425.338 481.541 425.598 482.386 425.804C483.231 426.01 483.947 426.075 483.968 425.956C483.99 425.836 483.34 425.576 482.494 425.37C481.649 425.164 480.901 425.089 480.901 425.219Z" fill="#263238"/>
<path d="M482.166 416.897C482.832 417.084 483.524 417.157 484.214 417.113C484.9 417.227 485.599 417.227 486.284 417.113C485.645 416.815 484.94 416.681 484.236 416.723C483.542 416.608 482.831 416.667 482.166 416.897Z" fill="#263238"/>
<path d="M480.791 409.31C480.866 409.408 481.528 408.974 482.265 408.356C483.001 407.739 483.533 407.153 483.457 407.056C483.381 406.958 482.709 407.392 481.972 408.01C481.235 408.627 480.715 409.223 480.791 409.31Z" fill="#263238"/>
<path d="M477.072 402.287C476.953 402.287 476.985 402.904 477.007 403.62C477.029 404.335 477.007 404.931 477.148 404.953C477.289 404.974 477.473 404.378 477.451 403.609C477.43 402.839 477.191 402.254 477.072 402.287Z" fill="#263238"/>
<path d="M469.486 405.603C469.377 405.668 469.681 406.264 470.147 406.936C470.613 407.608 471.079 408.095 471.231 408.019C471.382 407.943 471.035 407.347 470.569 406.675C470.103 406.004 469.583 405.527 469.486 405.603Z" fill="#263238"/>
<path d="M464.552 414.155C464.552 414.274 465.138 414.632 465.961 414.968C466.785 415.304 467.489 415.488 467.544 415.369C467.598 415.25 466.958 414.892 466.135 414.556C465.311 414.22 464.639 414.047 464.552 414.155Z" fill="#263238"/>
<path d="M461.575 422.965C462.12 423.429 462.792 423.719 463.504 423.799C464.183 424.026 464.913 424.053 465.606 423.875C464.948 423.625 464.259 423.465 463.558 423.398C462.919 423.167 462.252 423.021 461.575 422.965Z" fill="#263238"/>
<path d="M475.297 420.461C475.405 420.461 475.297 419.811 475.102 419.095C474.907 418.38 474.603 417.838 474.484 417.871C474.365 417.903 474.484 418.521 474.668 419.236C474.853 419.952 475.178 420.493 475.297 420.461Z" fill="#263238"/>
<path d="M473.38 431.516C473.338 430.871 473.149 430.244 472.827 429.684C472.415 428.719 471.982 427.983 471.863 428.026C471.908 428.67 472.097 429.296 472.415 429.857C472.838 430.822 473.261 431.559 473.38 431.516Z" fill="#263238"/>
<path d="M478.101 434.539C478.101 434.658 478.924 434.442 479.856 434.149C480.788 433.856 481.547 433.596 481.515 433.466C480.906 433.382 480.286 433.472 479.726 433.726C478.729 434.019 478.057 434.431 478.101 434.539Z" fill="#263238"/>
<path d="M475.385 443.557C475.309 443.654 475.829 444.153 476.545 444.641C477.26 445.128 477.899 445.475 477.975 445.378C478.051 445.28 477.52 444.781 476.805 444.294C476.089 443.806 475.483 443.448 475.385 443.557Z" fill="#263238"/>
<path d="M473.196 452.542C473.196 452.661 473.814 452.921 474.638 453.116C475.461 453.311 476.155 453.387 476.187 453.268C476.22 453.148 475.57 452.888 474.746 452.682C473.922 452.476 473.229 452.422 473.196 452.542Z" fill="#263238"/>
<path d="M461.329 430.465C461.329 430.573 461.817 431.007 462.63 431.31C463.442 431.614 464.136 431.646 464.158 431.527C464.179 431.408 463.551 431.18 462.781 430.888C462.012 430.595 461.394 430.357 461.329 430.465Z" fill="#263238"/>
<path d="M459.637 444.445C459.692 444.554 460.342 444.359 461.1 444.001C461.859 443.643 462.433 443.264 462.379 443.156C462.325 443.047 461.675 443.242 460.916 443.6C460.158 443.958 459.583 444.337 459.637 444.445Z" fill="#263238"/>
<path d="M456.646 454.448C457.323 454.419 457.985 454.242 458.586 453.928C459.237 453.744 459.842 453.427 460.363 452.996C459.686 453.022 459.023 453.2 458.423 453.516C457.394 453.917 456.603 454.329 456.646 454.448Z" fill="#263238"/>
<path d="M472.715 462.284C472.715 462.175 471.978 461.634 471.057 460.907C470.135 460.181 469.42 459.531 469.323 459.618C469.225 459.704 469.81 460.506 470.775 461.265C471.314 461.778 471.986 462.131 472.715 462.284Z" fill="#263238"/>
<path d="M464.806 457.201C464.937 457.201 465.099 456.54 465.413 455.759C465.728 454.979 466.031 454.361 465.934 454.286C465.836 454.21 465.316 454.752 464.991 455.597C464.666 456.442 464.644 457.19 464.806 457.201Z" fill="#263238"/>
<path d="M466.899 445.172C466.975 445.269 467.484 445.031 468.048 444.63C468.611 444.229 468.99 443.817 468.925 443.719C468.86 443.622 468.34 443.86 467.842 444.261C467.343 444.662 466.812 445.074 466.899 445.172Z" fill="#263238"/>
<path d="M414.832 462.046H478.558V473.339H414.832V462.046Z" fill="#FF725E"/>
<path d="M473.802 471.107L466.053 504.855H428.067L419.592 471.107H473.802Z" fill="#FF725E"/>
<path d="M414.867 473.36C414.867 473.48 429.249 473.577 446.968 473.577C464.688 473.577 479.08 473.48 479.08 473.36C479.08 473.241 464.709 473.133 446.968 473.133C429.227 473.133 414.867 473.252 414.867 473.36Z" fill="#263238"/>
<path d="M155.672 413.082C155.672 415.249 121.891 505.201 121.891 505.201H108.301L141.984 413.082H155.672Z" fill="#455A64"/>
<path d="M190.481 408.747H204.028V505.191H190.481V408.747Z" fill="#455A64"/>
<path d="M115.608 442.17H158.73V451.772H115.608V442.17Z" fill="#455A64"/>
<path d="M129.043 407.045H204.028V416.647H129.043V407.045Z" fill="#455A64"/>
<path d="M102.146 477.295H146.775V486.897H102.146V477.295Z" fill="#455A64"/>
<path d="M128.612 416.95C128.612 417.102 145.53 417.232 166.392 417.232C187.254 417.232 204.172 417.102 204.172 416.95C204.172 416.799 187.265 416.669 166.392 416.669C145.519 416.669 128.612 416.788 128.612 416.95Z" fill="#263238"/>
<path d="M190.225 505.191C190.377 505.191 190.507 485.434 190.507 461.071C190.507 436.708 190.377 416.951 190.225 416.951C190.073 416.951 189.943 436.697 189.943 461.071C189.943 485.445 190.063 505.191 190.225 505.191Z" fill="#263238"/>
<path d="M121.896 505.19C122.048 505.19 129.482 485.433 138.521 460.94C147.559 436.447 154.777 416.56 154.626 416.505C154.474 416.451 147.039 436.252 137.99 460.745C128.94 485.238 121.755 505.135 121.896 505.19Z" fill="#263238"/>
<path d="M108.088 505.19C108.229 505.19 115.675 485.433 124.713 460.94C133.752 436.447 140.97 416.56 140.818 416.505C140.666 416.451 133.232 436.252 124.182 460.745C115.133 485.238 107.947 505.135 108.088 505.19Z" fill="#263238"/>
<path d="M65.6267 208.814C66.6346 204.479 69.0839 200.589 71.5007 196.828C75.3874 199.229 79.5745 201.106 83.9531 202.409L82.6743 224.973C77.6456 225.125 72.0751 224.854 68.4878 221.332C65.3016 218.221 64.608 213.204 65.6267 208.814Z" fill="#FFBE9D"/>
<path d="M81.5957 169.106L92.5742 194.032C88.5284 198.008 85.3575 202.784 83.2647 208.056C76.6895 204.826 70.7062 200.51 65.5669 195.289C70.9532 187.779 77.1848 172.606 81.5957 169.106Z" fill="#FF725E"/>
<path d="M96.8127 113.997L101.234 157.033C101.993 164.348 104.594 174.947 116.104 173.224C125.987 170.981 127.548 161.205 126.833 154.378C126.497 151.126 126.226 148.439 126.215 148.103C126.215 148.103 137.053 145.935 136.738 135.022C136.587 129.744 135.373 118.895 134.17 109.098C133.545 104.019 131.03 99.3619 127.126 96.054C123.221 92.7461 118.214 91.0304 113.102 91.2485H112.018C100.725 92.4406 95.3604 102.704 96.8127 113.997Z" fill="#FFBE9D"/>
<path d="M126.23 147.94C121.193 148.249 116.179 147.049 111.827 144.494C111.827 144.494 115.523 152.21 126.371 150.769L126.23 147.94Z" fill="#EB996E"/>
<path d="M132.775 114.603C132.591 114.831 131.041 114.603 129.112 115.156C127.183 115.709 125.947 116.879 125.698 116.782C125.449 116.684 125.698 116.37 126.24 115.861C127.015 115.17 127.932 114.659 128.927 114.365C129.883 114.044 130.902 113.963 131.897 114.126C132.58 114.257 132.861 114.527 132.775 114.603Z" fill="#263238"/>
<path d="M116.018 117.116C115.758 117.247 114.49 116.314 112.506 116.033C110.523 115.751 108.919 116.163 108.735 115.957C108.551 115.751 108.941 115.61 109.635 115.393C110.631 115.124 111.674 115.076 112.691 115.252C113.681 115.39 114.625 115.761 115.443 116.336C115.996 116.694 116.148 117.062 116.018 117.116Z" fill="#263238"/>
<path d="M115.955 120.694C115.968 121.002 115.863 121.304 115.662 121.537C115.46 121.77 115.178 121.919 114.871 121.951C114.719 121.971 114.565 121.96 114.417 121.918C114.27 121.876 114.132 121.805 114.012 121.709C113.893 121.613 113.794 121.494 113.722 121.358C113.65 121.223 113.606 121.075 113.592 120.922C113.574 120.611 113.677 120.306 113.879 120.069C114.081 119.833 114.367 119.684 114.676 119.654C114.829 119.637 114.983 119.651 115.13 119.695C115.277 119.738 115.414 119.81 115.533 119.907C115.652 120.004 115.75 120.123 115.823 120.258C115.895 120.394 115.94 120.542 115.955 120.694Z" fill="#263238"/>
<path d="M131.928 119.415C131.946 119.724 131.843 120.028 131.64 120.263C131.438 120.497 131.152 120.644 130.844 120.672C130.687 120.691 130.528 120.678 130.376 120.634C130.224 120.589 130.084 120.513 129.963 120.411C129.841 120.31 129.743 120.184 129.672 120.042C129.602 119.901 129.562 119.746 129.554 119.588C129.536 119.278 129.639 118.972 129.841 118.736C130.043 118.499 130.328 118.35 130.638 118.32C130.796 118.3 130.956 118.314 131.108 118.359C131.261 118.405 131.402 118.481 131.523 118.584C131.644 118.687 131.743 118.814 131.813 118.957C131.882 119.1 131.921 119.256 131.928 119.415Z" fill="#263238"/>
<path d="M122.171 127.737C123.043 127.432 123.949 127.232 124.869 127.141C125.303 127.076 125.704 126.968 125.758 126.675C125.782 126.231 125.664 125.791 125.422 125.418L124.024 122.167C122.062 117.593 120.632 113.833 120.772 113.757C120.913 113.681 122.691 117.322 124.642 121.885C125.118 122.969 125.563 124.053 125.996 125.136C126.289 125.644 126.393 126.239 126.289 126.816C126.232 126.968 126.143 127.105 126.027 127.218C125.91 127.33 125.77 127.415 125.617 127.466C125.381 127.54 125.137 127.584 124.891 127.597C123.994 127.758 123.08 127.805 122.171 127.737Z" fill="#263238"/>
<path d="M114.591 108.934C114.461 109.357 112.976 109.216 111.253 109.509C109.53 109.801 108.142 110.343 107.893 109.986C107.785 109.812 108.012 109.411 108.554 108.978C109.285 108.448 110.133 108.102 111.025 107.97C111.907 107.818 112.813 107.893 113.659 108.187C114.352 108.425 114.688 108.728 114.591 108.934Z" fill="#263238"/>
<path d="M132.23 110.312C132.078 110.659 130.626 110.453 128.902 110.604C127.179 110.756 125.781 111.125 125.565 110.81C125.467 110.659 125.716 110.323 126.28 109.998C127.056 109.59 127.908 109.347 128.782 109.281C129.656 109.216 130.534 109.331 131.363 109.618C131.991 109.857 132.295 110.193 132.23 110.312Z" fill="#263238"/>
<path d="M98.05 122.037C97.8549 121.972 90.4636 120.14 91.0055 127.597C91.5474 135.053 98.9278 132.95 98.917 132.744C98.9061 132.539 98.05 122.037 98.05 122.037Z" fill="#FFBE9D"/>
<path d="M96.4352 130.091C96.4352 130.091 96.316 130.188 96.0992 130.307C95.8009 130.459 95.4554 130.49 95.1347 130.394C94.6323 130.122 94.2105 129.722 93.9118 129.235C93.6131 128.748 93.448 128.191 93.4332 127.62C93.3619 126.982 93.4398 126.336 93.6608 125.734C93.7084 125.492 93.8156 125.267 93.9727 125.078C94.1298 124.888 94.3318 124.741 94.5603 124.65C94.7052 124.594 94.8654 124.594 95.0109 124.647C95.1565 124.701 95.2775 124.806 95.3514 124.943C95.4706 125.149 95.4273 125.3 95.4706 125.311C95.514 125.322 95.6224 125.17 95.5357 124.867C95.4831 124.685 95.368 124.528 95.2105 124.422C94.9951 124.285 94.7356 124.235 94.4844 124.282C94.1823 124.366 93.9065 124.525 93.6828 124.745C93.4592 124.965 93.2949 125.238 93.2056 125.539C92.9404 126.21 92.84 126.934 92.913 127.652C93.0755 129.148 93.9425 130.502 95.0805 130.73C95.2842 130.774 95.4952 130.771 95.6979 130.723C95.9005 130.674 96.0895 130.58 96.2509 130.448C96.4352 130.264 96.4677 130.101 96.4352 130.091Z" fill="#EB996E"/>
<path d="M121.024 133.082C121.089 132.886 119.583 132.615 118.402 131.369C117.907 130.821 117.488 130.208 117.155 129.548C116.874 129.039 116.668 128.725 116.592 128.757C116.516 128.79 116.592 129.147 116.765 129.722C117.014 130.486 117.425 131.188 117.968 131.781C118.535 132.371 119.25 132.797 120.038 133.016C120.623 133.179 121.013 133.147 121.024 133.082Z" fill="#263238"/>
<path d="M142.648 101.273C142.988 101.375 143.296 101.565 143.539 101.824C143.782 102.083 143.954 102.401 144.035 102.746C144.114 103.263 144.02 103.79 143.767 104.247C143.514 104.704 143.117 105.064 142.637 105.272C142.151 105.466 141.622 105.53 141.103 105.458C140.585 105.386 140.094 105.18 139.679 104.86C140.08 105.077 140.446 105.354 140.762 105.683C141.061 106.033 141.224 106.479 141.221 106.938C141.219 107.398 141.051 107.842 140.749 108.188C140.447 108.535 140.031 108.762 139.576 108.827C139.121 108.893 138.657 108.792 138.27 108.545C138.021 109.143 137.804 109.755 137.62 110.376V110.495C137.49 110.875 137.359 111.254 137.186 111.579L135.181 116.759C134.672 113.725 134.433 109.39 133.924 106.366C131.625 106.564 129.309 106.294 127.117 105.573C124.925 104.853 122.901 103.696 121.168 102.172C119.293 100.525 117.722 98.3681 115.37 97.5227C112.335 96.439 109.041 97.8587 106.136 99.2568L106.245 99.1267C104.752 100.04 103.45 101.232 102.408 102.638C103.782 108.577 103.863 114.742 102.647 120.715C102.462 121.615 101.888 123.479 101.075 123.966C99.482 124.801 98.8426 123.154 97.7372 122.363C96.7782 121.859 95.6693 121.721 94.6159 121.972C93.4971 119.542 92.52 117.049 91.6898 114.505L90.3568 112.002V109.011C91.6031 106.214 88.1892 105.239 88.6769 102.226C89.1646 99.2134 90.4651 95.9946 93.207 94.6399H93.2829C95.7322 93.3069 98.8968 92.9276 101.216 94.4774C101.292 90.5541 104.316 87.1078 107.968 85.6881C112.352 84.2975 117.032 84.1288 121.504 85.2004C124.419 86.0024 127.389 87.9856 131.052 90.9876C132.602 92.2556 134.585 96.905 135.896 98.4006L142.648 101.273Z" fill="#263238"/>
<path d="M102.95 82.0138C102.43 82.1656 89.9447 86.9991 88.1456 97.089C86.3466 107.179 87.723 109.997 87.723 109.997C87.2691 110.389 86.8748 110.845 86.5525 111.351C86.1082 112.067 87.3328 114.982 88.9693 114.386C100.75 106.94 115.597 104.166 132.32 102.226L145.021 100.178C148.652 100.069 149.757 98.9313 148.121 98.2594C146.875 97.75 136.2 95.1815 136.2 95.1815L134.032 94.0327L127.692 87.5302C127.692 87.5302 128.191 86.4464 126.782 85.7636C125.373 85.0809 113.267 79.0227 102.95 82.0138Z" fill="#FF725E"/>
<path d="M133.932 94.0653L133.433 94.1412L132.003 94.3146C130.767 94.4446 128.979 94.7264 126.779 95.1057C121.066 96.1605 115.456 97.7126 110.013 99.7442C104.576 101.787 99.2609 104.139 94.0926 106.789C92.0984 107.786 90.4945 108.631 89.389 109.195C88.8797 109.466 88.4679 109.682 88.1102 109.856L87.6659 110.072L88.0994 109.823L89.3565 109.13C90.4403 108.534 92.0334 107.667 94.0167 106.648C99.1766 103.954 104.497 101.58 109.948 99.5383C115.397 97.4933 121.024 95.9586 126.757 94.954C131.168 94.217 133.932 94.0653 133.932 94.0653Z" fill="#263238"/>
<g opacity="0.3">
<path d="M92.0062 89.4599C92.0062 89.4599 105.586 85.1249 112.251 87.2274L111.471 86.9673L117.745 88.6904C118.249 88.9091 118.795 89.0137 119.344 88.9968C119.893 88.98 120.431 88.842 120.921 88.5929C117.935 86.8532 114.654 85.6776 111.243 85.1249C105.141 84.0194 95.7668 84.5396 92.0062 89.4599Z" fill="black"/>
</g>
<path d="M91.8316 89.6009C92.1665 89.2377 92.5288 88.9007 92.9153 88.593C93.9944 87.7376 95.1691 87.0102 96.4159 86.4255C98.2654 85.5688 100.229 84.9847 102.246 84.6915C104.717 84.2716 107.249 84.3899 109.67 85.0383C110.917 85.3989 112.141 85.8369 113.333 86.3496C114.482 86.8373 115.598 87.26 116.639 87.7694C117.588 88.2864 118.577 88.725 119.598 89.0807C120.495 89.3406 121.441 89.3889 122.361 89.2216C125.786 88.7664 127.78 87.7477 127.596 87.5526C127.555 87.6818 127.471 87.7929 127.357 87.8669C127.046 88.0747 126.711 88.2456 126.36 88.3763C125.075 88.8535 123.741 89.1879 122.383 89.3733C121.44 89.5536 120.468 89.5128 119.543 89.2541C118.511 88.9028 117.51 88.4641 116.552 87.9428C115.533 87.4551 114.385 87.0324 113.301 86.5447C112.108 86.0425 110.884 85.6154 109.638 85.2659C107.245 84.63 104.744 84.5081 102.301 84.9082C100.298 85.1899 98.3457 85.7555 96.5026 86.5881C95.2551 87.1425 94.0766 87.8409 92.9912 88.6689C92.601 88.9507 92.3084 89.1891 92.1133 89.3625L91.8316 89.6009Z" fill="#263238"/>
<g opacity="0.3">
<path d="M87.4907 101.316C89.7932 100.844 92.036 100.117 94.1775 99.1488C96.7244 98.1843 99.2712 97.339 101.764 96.2552C103.671 95.4315 105.936 94.6079 107.02 93.0039C107.189 93.4776 107.232 93.9867 107.147 94.4821C107.061 94.9776 106.85 95.4427 106.532 95.8325C105.387 96.8544 104.079 97.6785 102.663 98.271C97.7707 100.637 92.6313 102.454 87.339 103.69C87.3606 102.912 87.4366 102.137 87.5666 101.371" fill="black"/>
</g>
<path d="M88.3937 96.0169C86.9089 96.9272 86.0094 97.5341 86.1611 98.8888C86.2912 99.9726 86.7247 101.349 87.8518 101.382C88.1992 101.37 88.5413 101.293 88.8597 101.154L105.56 95.1499C106.149 95.0104 106.671 94.6692 107.034 94.1853C107.205 93.7564 107.202 93.2778 107.026 92.851C106.85 92.4242 106.515 92.0827 106.091 91.8986C105.222 91.5732 104.278 91.5055 103.371 91.7035C98.2049 92.461 93.1659 93.9195 88.3937 96.0386" fill="#FF725E"/>
<path d="M106.81 94.4769C106.995 94.2358 107.118 93.953 107.168 93.6533C107.209 93.2462 107.134 92.8359 106.952 92.4696C106.77 92.1032 106.488 91.796 106.138 91.5833C105.009 91.0968 103.748 91.0089 102.562 91.334C101.185 91.605 99.679 91.9193 98.1184 92.3094C95.4375 92.9496 92.8189 93.8273 90.2937 94.9321C89.3291 95.3548 88.5705 95.7449 88.0503 96.0159L87.4434 96.341C87.3025 96.406 87.2375 96.4494 87.2266 96.4385L87.4217 96.2976L88.007 95.94C88.5163 95.6474 89.2641 95.2247 90.1745 94.7804C92.6913 93.6282 95.316 92.7279 98.0101 92.0927C99.5815 91.7025 101.088 91.3882 102.464 91.1281C103.695 90.8005 105.002 90.9116 106.16 91.4424C106.528 91.663 106.826 91.9842 107.018 92.3681C107.21 92.7521 107.288 93.1829 107.244 93.6099C107.208 93.8405 107.119 94.0596 106.984 94.2493L106.81 94.4769Z" fill="#263238"/>
<path d="M129.58 89.5997L118.721 90.9653L120.086 93.8806L131.823 91.8973L129.58 89.5997Z" fill="white"/>
<path d="M114.588 101.619C114.588 101.619 119.292 100.167 125.144 98.4979C130.996 96.8289 135.743 95.5067 135.754 95.5718C135.765 95.6368 131.05 97.024 125.198 98.7038C119.346 100.384 114.588 101.684 114.588 101.619Z" fill="#263238"/>
<path d="M37.8989 249.575L32.3609 235.182L18.272 228.929L7.38019 237.404L4.2915 234.305C5.62393 228.565 8.46207 223.284 12.5137 219.005C16.5654 214.727 21.6841 211.606 27.343 209.963C33.0018 208.321 38.9962 208.216 44.7089 209.66C50.4217 211.104 55.6464 214.044 59.8451 218.178L205.828 162.365C206.175 156.485 208.082 150.804 211.352 145.906C214.623 141.007 219.139 137.068 224.436 134.494C229.733 131.919 235.621 130.801 241.493 131.256C247.365 131.711 253.01 133.721 257.848 137.08L260.937 140.169L243.857 142.467L237.604 156.556L243.142 170.937L257.23 177.201L272.089 172.682L274.311 174.915C271.189 183.747 260.222 191.626 250.825 195.257C244.89 197.543 238.422 198.073 232.194 196.783C225.966 195.494 220.24 192.439 215.701 187.985L69.6965 243.82C69.3066 250.17 67.0989 256.274 63.3365 261.405C59.5741 266.535 54.4158 270.476 48.4764 272.756C37.8122 276.853 25.013 275.683 16.2887 269.635L31.6131 263.653L37.8989 249.575Z" fill="#E0E0E0"/>
<g opacity="0.3">
<path d="M37.8989 249.575L32.3609 235.182L18.272 228.929L7.38019 237.404L4.2915 234.305C5.62393 228.565 8.46207 223.284 12.5137 219.005C16.5654 214.727 21.6841 211.606 27.343 209.963C33.0018 208.321 38.9962 208.216 44.7089 209.66C50.4217 211.104 55.6464 214.044 59.8451 218.178L205.828 162.365C206.175 156.485 208.082 150.804 211.352 145.906C214.623 141.007 219.139 137.068 224.436 134.494C229.733 131.919 235.621 130.801 241.493 131.256C247.365 131.711 253.01 133.721 257.848 137.08L260.937 140.169L243.857 142.467L237.604 156.556L243.142 170.937L257.23 177.201L272.089 172.682L274.311 174.915C271.254 183.91 260.384 191.583 250.825 195.257C244.89 197.543 238.422 198.073 232.194 196.783C225.966 195.494 220.24 192.439 215.701 187.985L69.6965 243.82C69.3066 250.17 67.0989 256.274 63.3365 261.405C59.5741 266.535 54.4158 270.476 48.4764 272.756C37.8122 276.853 25.013 275.683 16.2887 269.635L31.6131 263.653L37.8989 249.575Z" fill="black"/>
</g>
<path d="M40.988 252.664L35.4717 238.271L21.3828 232.018L7.40225 237.437C8.73627 231.698 11.575 226.419 15.6263 222.141C19.6777 217.864 24.7955 214.743 30.4532 213.099C36.1109 211.456 42.1043 211.349 47.8169 212.791C53.5295 214.232 58.755 217.169 62.9558 221.3L208.873 165.464C209.224 159.586 211.133 153.908 214.404 149.011C217.675 144.115 222.191 140.178 227.487 137.604C232.783 135.029 238.669 133.911 244.54 134.364C250.411 134.817 256.055 136.824 260.894 140.18L246.913 145.599L240.649 159.688L246.187 174.08L260.276 180.334L274.268 174.915C272.935 180.65 270.099 185.926 266.051 190.202C262.004 194.479 256.892 197.6 251.239 199.246C245.586 200.893 239.597 201.004 233.886 199.57C228.176 198.136 222.95 195.207 218.746 191.084L72.7205 246.909C72.3642 252.784 70.4508 258.458 67.1767 263.349C63.9026 268.24 59.3858 272.172 54.0901 274.74C48.7944 277.309 42.9105 278.421 37.0426 277.964C31.1746 277.507 25.5341 275.497 20.7 272.139L34.6805 266.72L40.988 252.664Z" fill="#E0E0E0"/>
<path d="M209.959 171.901C209.913 172.195 209.913 172.495 209.959 172.79C209.975 173.602 210.044 174.413 210.165 175.217C210.562 177.876 211.358 180.459 212.527 182.88C213.687 185.301 215.211 187.53 217.047 189.49C217.596 190.091 218.186 190.652 218.813 191.17C219.257 191.528 219.507 191.723 219.539 191.69C219.572 191.658 218.661 190.769 217.372 189.23C213.922 185.205 211.583 180.349 210.587 175.141C210.1 173.158 209.959 171.901 209.959 171.901Z" fill="#263238"/>
<path d="M40.9906 252.663L40.5787 253.563C40.2969 254.17 39.896 255.059 39.3649 256.24L34.6614 266.72L20.67 272.074L20.475 272.149L20.6484 272.269C24.5019 274.941 28.8673 276.786 33.4692 277.687C39.314 278.798 45.3497 278.324 50.9491 276.313C56.5484 274.303 61.5072 270.829 65.3102 266.254C69.8297 260.78 72.514 254.024 72.9832 246.941L72.8531 247.115L218.912 191.333L218.63 191.279C222.754 195.285 227.83 198.176 233.38 199.678C239.055 201.234 245.045 201.234 250.72 199.678C256.511 198.127 261.778 195.046 265.969 190.759C270.229 186.378 273.225 180.925 274.639 174.979L274.758 174.47L274.259 174.654L260.279 180.073H260.496L246.407 173.82L246.558 173.972L241.02 159.59V159.785L247.263 145.696L247.111 145.837L261.092 140.418L261.59 140.223L261.157 139.92C256.193 136.464 250.384 134.422 244.35 134.012C238.317 133.602 232.285 134.838 226.899 137.59C221.624 140.231 217.158 144.244 213.97 149.208C210.84 154.085 209.008 159.68 208.648 165.464L208.833 165.236L62.8717 221.104H63.0776C58.1032 216.262 51.7566 213.072 44.9029 211.968C39.0407 211.041 33.0372 211.695 27.5122 213.863C21.9873 216.031 17.1411 219.635 13.4739 224.301C10.4808 228.138 8.34811 232.573 7.22055 237.307V237.545L7.44815 237.458L21.4287 232.039H21.3419L35.4308 238.271C37.3383 243.191 38.7363 246.779 39.6575 249.109C40.1127 250.29 40.4595 251.157 40.6871 251.742C40.9147 252.327 41.0339 252.598 41.0339 252.598C41.0339 252.598 40.9472 252.317 40.7305 251.742C40.5137 251.168 40.1777 250.279 39.7334 249.109C38.8339 246.735 37.4575 243.126 35.5717 238.184L21.4828 231.899L7.29642 237.274L7.46982 237.426C8.59372 232.718 10.7192 228.308 13.7014 224.496C17.34 219.892 22.1393 216.339 27.6059 214.204C33.0725 212.069 39.0091 211.428 44.8054 212.347C51.5747 213.458 57.8397 216.62 62.7525 221.408L62.85 221.505L62.9692 221.451L209.017 165.702L209.19 165.648V165.464C209.531 159.631 211.421 153.994 214.665 149.134C217.909 144.274 222.39 140.366 227.646 137.814C232.902 135.262 238.744 134.156 244.569 134.612C250.394 135.068 255.993 137.068 260.788 140.407L260.853 139.909L246.862 145.328H246.753V145.425C244.68 150.1 242.595 154.796 240.5 159.514V159.612V159.72C242.397 164.651 244.282 169.561 246.038 174.112V174.221L246.147 174.275L260.235 180.528H260.344H260.452L274.433 175.109L274.053 174.784C272.713 180.584 269.819 185.908 265.682 190.187C261.544 194.466 256.319 197.537 250.568 199.071C244.989 200.605 239.1 200.605 233.521 199.071C228.057 197.596 223.06 194.754 218.998 190.813L218.879 190.694L218.717 190.759L72.7231 246.746H72.6039V246.865C72.1359 253.874 69.4827 260.56 65.0175 265.983C61.2519 270.505 56.3481 273.94 50.812 275.935C45.2758 277.929 39.3078 278.411 33.5235 277.33C28.9585 276.449 24.6237 274.638 20.7893 272.009V272.204L34.7698 266.785C36.8072 262.157 38.357 258.624 39.4083 256.251L40.5679 253.563C40.893 252.967 40.9906 252.663 40.9906 252.663Z" fill="#263238"/>
<path d="M139.123 163.654L149.506 246.562C149.748 248.509 149.271 250.479 148.163 252.099C147.055 253.72 145.394 254.88 143.491 255.362L89.9639 264.628C89.2155 264.758 88.4477 264.724 87.7136 264.529C86.9795 264.333 86.2967 263.98 85.7123 263.495C85.1279 263.01 84.656 262.403 84.3291 261.717C84.0022 261.032 83.8281 260.283 83.819 259.523C83.689 248.111 83.223 223.412 81.5973 208.023C79.8091 191.051 75.2682 177.201 81.5973 169.105C87.9265 161.009 98.9375 155.374 98.9375 155.374L100.14 150.291C100.14 150.291 123.246 150.291 127.235 153.781L129.684 158.018L139.123 163.654Z" fill="#FF7655"/>
<path d="M79.335 182.739C79.3018 182.914 79.3018 183.094 79.335 183.27C79.335 183.682 79.335 184.191 79.4108 184.798C79.5084 186.207 79.6493 188.049 79.8118 190.401C80.1695 195.126 80.7005 201.651 81.3291 208.825C81.9577 216 82.5646 222.556 83.0198 227.249C83.2582 229.536 83.4533 231.421 83.605 232.83L83.7892 234.348C83.794 234.525 83.827 234.701 83.8868 234.868C83.9127 234.692 83.9127 234.513 83.8868 234.337C83.8868 233.914 83.8868 233.416 83.8109 232.809C83.7134 231.4 83.5725 229.557 83.4099 227.206C83.0523 222.48 82.5104 215.945 81.8818 208.782C81.2532 201.618 80.6572 195.061 80.1912 190.358C79.9527 188.06 79.7685 186.174 79.6168 184.766C79.5409 184.169 79.4867 183.682 79.4325 183.248C79.42 183.075 79.3873 182.904 79.335 182.739Z" fill="#263238"/>
<path d="M98.9855 155.374C99.3802 155.462 99.7841 155.502 100.188 155.493L103.44 155.656C106.225 155.797 110.062 156.035 114.277 156.425C118.493 156.815 122.319 157.26 125.115 157.574L128.366 157.943C128.766 158.021 129.174 158.043 129.58 158.008C129.197 157.872 128.801 157.778 128.399 157.726C127.629 157.585 126.524 157.401 125.147 157.184C122.384 156.761 118.569 156.252 114.31 155.862C110.051 155.472 106.225 155.287 103.472 155.255C102.085 155.255 100.958 155.255 100.221 155.255C99.8057 155.238 99.39 155.278 98.9855 155.374Z" fill="#263238"/>
<path d="M183.808 373.546L174.704 393.834C174.704 393.834 198.656 403.198 198.851 407.663L152.249 406.818L152.303 402.927L162.588 369.471L183.808 373.546Z" fill="#FF725E"/>
<path d="M161.061 390.138C160.607 390.268 160.217 390.561 159.967 390.962C159.717 391.362 159.624 391.841 159.706 392.306C159.817 392.76 160.099 393.153 160.492 393.406C160.885 393.658 161.361 393.749 161.82 393.661C162.297 393.526 162.707 393.218 162.969 392.797C163.232 392.376 163.328 391.873 163.239 391.385C163.076 390.922 162.74 390.541 162.301 390.323C161.862 390.104 161.355 390.065 160.888 390.214" fill="#E0E0E0"/>
<path d="M152.249 406.774L152.303 402.884L197.051 405.214C197.051 405.214 199.11 406.157 198.85 407.62L152.249 406.774Z" fill="#263238"/>
<path d="M175.476 393.562C175.476 393.79 174.316 393.866 173.189 394.581C172.062 395.296 171.444 396.239 171.238 396.142C171.032 396.044 171.39 394.744 172.777 393.909C174.164 393.075 175.519 393.356 175.476 393.562Z" fill="#263238"/>
<path d="M180.32 395.676C180.374 395.893 179.377 396.261 178.586 397.215C177.795 398.168 177.557 399.176 177.329 399.155C177.101 399.133 176.982 397.854 177.99 396.695C178.998 395.535 180.32 395.459 180.32 395.676Z" fill="#263238"/>
<path d="M182.993 401.571C182.776 401.571 182.483 400.488 183.09 399.241C183.697 397.995 184.77 397.529 184.868 397.713C184.965 397.897 184.282 398.559 183.784 399.588C183.285 400.618 183.209 401.55 182.993 401.571Z" fill="#263238"/>
<path d="M177.166 388.274C177.068 388.48 176.028 388.144 174.738 388.209C173.448 388.274 172.44 388.664 172.332 388.469C172.224 388.274 173.199 387.472 174.716 387.385C176.234 387.298 177.285 388.1 177.166 388.274Z" fill="#263238"/>
<path d="M103.384 439.081L102.344 477.76L122.686 477.706L123.77 439.97L103.384 439.081Z" fill="#FF725E"/>
<path d="M112.422 475.799C112.584 475.799 112.844 467.552 112.985 457.375C113.126 447.199 113.115 438.951 112.985 438.951C112.855 438.951 112.563 447.188 112.422 457.375C112.281 467.563 112.27 475.799 112.422 475.799Z" fill="#263238"/>
<path d="M123.028 465.666C122.91 465.362 122.742 465.08 122.53 464.831C122.001 464.116 121.406 463.452 120.752 462.848C119.787 461.933 118.691 461.166 117.501 460.572C115.441 459.511 113.094 459.138 110.806 459.509C108.518 459.879 106.409 460.974 104.789 462.631C104.175 463.277 103.656 464.007 103.25 464.799C103.082 465.08 102.965 465.388 102.903 465.709C103.546 464.722 104.271 463.79 105.07 462.924C107.147 460.967 109.912 459.907 112.765 459.976C115.608 460.132 118.312 461.256 120.427 463.162C122.172 464.582 122.942 465.666 123.028 465.666Z" fill="#263238"/>
<path d="M102.418 477.794L122.663 477.707L122.814 473.133L102.396 473.231L102.418 477.794Z" fill="#263238"/>
<path d="M100.253 262.612L144.742 254.928L144.937 259.751C155.677 268.356 184.299 292.957 201.585 309.81C201.585 309.81 207.99 318.306 205.454 326.142L181.459 387.635L153.943 381.284L170.73 329.263L119.089 305.139C109.042 301.432 100.004 288.752 97.8689 281.491C96.0374 275.259 99.9822 270.588 100.253 262.612Z" fill="#0B1B54"/>
<path d="M135.664 311.414L125.076 453.451L98.7837 454.112C98.7837 454.112 94.2644 412.171 94.8279 385.38C95.3915 358.59 95.424 292.914 95.424 292.914L135.664 311.414Z" fill="#0B1B54"/>
<path d="M100.249 262.613L86.3548 265.171C86.3548 265.171 85.8454 299.244 86.8316 302.669C87.8179 306.093 96.0978 315.891 96.0978 315.891L134.68 323.26V292.731L100.249 262.613Z" fill="#0B1B54"/>
<path d="M96.0967 280.7L95.0996 290.291H84.5438L86.3428 280.7H96.0967Z" fill="#0B1B54"/>
<path d="M103.815 290.291C103.906 290.543 104.018 290.786 104.151 291.018C104.475 291.709 104.836 292.382 105.235 293.033C106.706 295.459 108.533 297.651 110.654 299.536C113.802 302.304 117.296 304.654 121.047 306.526C125.23 308.694 129.999 310.731 134.919 313.029L160.192 324.614L167.887 328.061L169.99 328.971C170.227 329.094 170.478 329.189 170.737 329.253C170.511 329.111 170.275 328.985 170.033 328.873L167.974 327.865L160.387 324.246L135.179 312.498C130.259 310.2 125.49 308.163 121.318 306.049C117.593 304.218 114.113 301.928 110.957 299.232C108.845 297.394 107.002 295.267 105.484 292.914C104.368 291.256 103.88 290.259 103.815 290.291Z" fill="#455A64"/>
<path d="M94.8309 313.939C97.4668 315.918 100.213 317.745 103.057 319.412C105.806 321.238 108.657 322.906 111.597 324.408C108.954 322.434 106.204 320.607 103.36 318.935C100.613 317.11 97.7657 315.442 94.8309 313.939Z" fill="#455A64"/>
<path d="M86.3469 280.7C86.0477 281.568 85.8229 282.46 85.675 283.366C85.3173 285.046 84.8296 287.441 84.2878 290.248L84.2227 290.551H84.5479H89.7716H95.1037H95.3421V290.324C95.613 287.506 95.8298 285.111 95.9599 283.409C96.0836 282.512 96.1236 281.605 96.0791 280.7C95.864 281.579 95.7191 282.474 95.6456 283.377C95.418 285.067 95.1362 287.462 94.8219 290.258L95.082 290.031H89.7499H84.5262L84.7863 290.345C85.2957 287.527 85.7075 285.121 85.9784 283.42C86.1703 282.524 86.2935 281.615 86.3469 280.7Z" fill="#455A64"/>
<path d="M136.632 274.197L136.166 274.251L134.779 274.49L129.512 275.433L111.229 278.879H110.98V279.139C111.424 282.152 111.912 285.382 112.41 288.73V289.034L112.714 288.969L113.006 288.904C123.551 286.487 133.002 284.287 139.277 282.792L139.472 282.737L139.407 282.553C138.54 279.941 137.835 277.839 137.326 276.321C137.098 275.65 136.914 275.108 136.762 274.685C136.708 274.503 136.639 274.325 136.556 274.154C136.59 274.364 136.641 274.57 136.708 274.772C136.838 275.216 137.001 275.769 137.196 276.462L139.06 282.661L139.19 282.423C132.893 283.81 123.432 285.934 112.876 288.351L112.584 288.416L112.93 288.655C112.421 285.306 111.933 282.065 111.478 279.063L111.261 279.367L129.328 275.715L134.616 274.631L136.047 274.316C136.246 274.302 136.443 274.262 136.632 274.197Z" fill="#455A64"/>
<path d="M188.63 326.944C187.686 326.633 186.706 326.443 185.715 326.38C183.331 326.111 180.924 326.111 178.54 326.38C176.153 326.642 173.806 327.192 171.55 328.017C170.601 328.312 169.699 328.743 168.873 329.295C169.824 329.046 170.761 328.745 171.68 328.396C173.937 327.694 176.256 327.208 178.605 326.944C180.952 326.69 183.316 326.639 185.671 326.792C186.653 326.903 187.641 326.954 188.63 326.944Z" fill="#455A64"/>
<path d="M137.425 260.131C137.577 260.131 137.588 259.361 137.425 258.462C137.263 257.562 137.035 256.858 136.883 256.88C136.731 256.901 136.721 257.66 136.883 258.549C137.046 259.437 137.273 260.163 137.425 260.131Z" fill="#455A64"/>
<path d="M135.255 260.836C135.407 260.836 135.385 259.936 135.201 258.885C135.017 257.834 134.735 257.01 134.583 257.042C134.431 257.075 134.453 257.942 134.637 258.993C134.821 260.044 135.103 260.836 135.255 260.836Z" fill="#455A64"/>
<path d="M117.263 263.793C117.415 263.793 117.426 262.959 117.263 261.983C117.1 261.008 116.873 260.238 116.721 260.26C116.569 260.282 116.559 261.095 116.721 262.07C116.884 263.045 117.111 263.815 117.263 263.793Z" fill="#455A64"/>
<path d="M115.22 264.736C115.372 264.736 115.383 263.761 115.22 262.569C115.057 261.377 114.83 260.488 114.667 260.51C114.505 260.531 114.516 261.485 114.667 262.677C114.819 263.869 115.068 264.758 115.22 264.736Z" fill="#455A64"/>
<path d="M97.8632 267.727C98.015 267.727 98.0475 266.784 97.9391 265.657C97.8307 264.53 97.6031 263.641 97.4514 263.663C97.2997 263.684 97.2563 264.595 97.3755 265.722C97.4948 266.849 97.7007 267.738 97.8632 267.727Z" fill="#455A64"/>
<path d="M95.2318 268.421C95.3944 268.421 95.4594 267.338 95.3835 266.102C95.3076 264.867 95.1234 263.805 94.9608 263.815C94.6815 265.35 94.7744 266.93 95.2318 268.421Z" fill="#455A64"/>
<path d="M158.64 208.814L125.628 218.352C125.628 218.352 120.589 199.722 118.172 188.743C115.517 176.724 117.641 170.471 125.65 164.9C127.459 163.634 129.55 162.826 131.741 162.549C134.833 162.194 137.957 162.846 140.65 164.408C143.342 165.97 145.459 168.358 146.686 171.219C148.786 176.158 150.57 181.226 152.029 186.391C155.182 197.11 158.64 208.814 158.64 208.814Z" fill="#FF725E"/>
<path d="M118.177 188.764C118.177 188.955 118.203 189.144 118.253 189.328L118.589 190.964C118.892 192.384 119.347 194.454 119.965 197.077C121.2 202.311 123.065 209.724 125.384 218.438L125.449 218.698L125.698 218.622L146.485 212.64L158.72 209.096L158.991 209.02L158.905 208.76C155.653 197.922 152.911 188.418 150.755 181.731C149.671 178.393 148.663 175.77 147.926 173.982C147.558 173.093 147.254 172.421 147.048 171.955C146.957 171.718 146.837 171.492 146.691 171.283C146.762 171.527 146.849 171.766 146.951 171.999L147.753 174.058C148.425 175.857 149.367 178.49 150.419 181.839C152.478 188.537 155.155 198.041 158.384 208.933L158.569 208.597L146.333 212.065L125.557 218.091L125.871 218.275C123.509 209.605 121.536 202.181 120.268 196.968C119.618 194.4 119.109 192.352 118.74 190.889C118.578 190.217 118.437 189.686 118.339 189.274C118.296 189.101 118.242 188.93 118.177 188.764Z" fill="#263238"/>
<path d="M120.388 170.623C120.475 170.677 121.125 169.691 122.479 168.379C124.232 166.66 126.325 165.327 128.624 164.467C130.927 163.615 133.38 163.246 135.831 163.383C137.706 163.502 138.855 163.828 138.877 163.741C138.898 163.654 138.606 163.578 138.096 163.427C137.366 163.22 136.619 163.075 135.864 162.993C133.342 162.708 130.788 163.022 128.41 163.909C126.032 164.796 123.896 166.231 122.176 168.098C121.657 168.653 121.185 169.251 120.767 169.886C120.605 170.111 120.477 170.359 120.388 170.623Z" fill="#263238"/>
<path d="M155.341 209.899L157.01 215.437L188.59 201.77L195.418 212.261C195.418 212.261 170.622 230.685 162.851 236.548C155.08 242.411 146.085 240.374 140.861 233.503C135.497 226.448 133.416 216.325 133.416 216.325L155.341 209.899Z" fill="#FFBE9D"/>
<path d="M153.605 222.361C153.768 222.361 154.147 220.703 155.09 218.817C156.033 216.932 157.127 215.566 156.997 215.479C155.988 216.33 155.165 217.381 154.581 218.565C153.997 219.75 153.665 221.042 153.605 222.361Z" fill="#EB996E"/>
<path d="M183.677 204.305L187.85 201.422C190.017 194.822 194.19 182.868 195.436 183.226C196.682 183.584 197.332 184.798 196.953 187.344C196.032 193.424 197.538 196.112 201.093 195.31C202.318 195.028 212.96 193.327 212.96 193.327C212.96 193.327 215.897 195.007 212.96 197.889C212.96 197.889 214.402 201.639 210.479 202.539C210.479 202.539 209.991 206.787 207.054 206.96C203.903 208.584 200.644 209.989 197.3 211.165L192 214.341L183.677 204.305Z" fill="#FFBE9D"/>
<path d="M204.866 200.231C204.866 200.437 206.979 199.971 209.396 199.147C210.263 198.865 211.076 198.594 211.748 198.432L211.661 197.966L211.26 198.052L211.347 198.475C211.928 198.366 212.483 198.15 212.983 197.835C212.394 197.812 211.804 197.886 211.239 198.052L211.325 198.486H211.737L211.65 198.02C210.822 198.175 210.007 198.393 209.212 198.67C207.731 199.095 206.279 199.616 204.866 200.231Z" fill="#EB996E"/>
<path d="M204.059 205.021C205.224 204.964 206.365 204.665 207.408 204.143C208.527 203.811 209.567 203.255 210.464 202.507C209.342 202.741 208.251 203.104 207.213 203.59C206.11 203.946 205.052 204.426 204.059 205.021Z" fill="#EB996E"/>
<path d="M259.027 273.879V263.727C259.027 262.719 259.321 261.915 259.909 261.315C260.509 260.703 261.361 260.397 262.465 260.397C262.861 260.397 263.233 260.439 263.581 260.523C263.941 260.607 264.241 260.739 264.481 260.919L263.869 262.611C263.701 262.479 263.509 262.383 263.293 262.323C263.077 262.251 262.855 262.215 262.627 262.215C262.159 262.215 261.805 262.347 261.565 262.611C261.325 262.863 261.205 263.247 261.205 263.763V264.843L261.277 265.851V273.879H259.027ZM257.443 266.139V264.339H263.851V266.139H257.443ZM269.545 274.005C268.561 274.005 267.685 273.795 266.917 273.375C266.149 272.943 265.543 272.355 265.099 271.611C264.655 270.867 264.433 270.021 264.433 269.073C264.433 268.113 264.655 267.267 265.099 266.535C265.543 265.791 266.149 265.209 266.917 264.789C267.685 264.369 268.561 264.159 269.545 264.159C270.541 264.159 271.423 264.369 272.191 264.789C272.971 265.209 273.577 265.785 274.009 266.517C274.453 267.249 274.675 268.101 274.675 269.073C274.675 270.021 274.453 270.867 274.009 271.611C273.577 272.355 272.971 272.943 272.191 273.375C271.423 273.795 270.541 274.005 269.545 274.005ZM269.545 272.079C270.097 272.079 270.589 271.959 271.021 271.719C271.453 271.479 271.789 271.131 272.029 270.675C272.281 270.219 272.407 269.685 272.407 269.073C272.407 268.449 272.281 267.915 272.029 267.471C271.789 267.015 271.453 266.667 271.021 266.427C270.589 266.187 270.103 266.067 269.563 266.067C269.011 266.067 268.519 266.187 268.087 266.427C267.667 266.667 267.331 267.015 267.079 267.471C266.827 267.915 266.701 268.449 266.701 269.073C266.701 269.685 266.827 270.219 267.079 270.675C267.331 271.131 267.667 271.479 268.087 271.719C268.519 271.959 269.005 272.079 269.545 272.079ZM276.827 273.879V264.267H278.969V266.913L278.717 266.139C279.005 265.491 279.455 264.999 280.067 264.663C280.691 264.327 281.465 264.159 282.389 264.159V266.301C282.293 266.277 282.203 266.265 282.119 266.265C282.035 266.253 281.951 266.247 281.867 266.247C281.015 266.247 280.337 266.499 279.833 267.003C279.329 267.495 279.077 268.233 279.077 269.217V273.879H276.827ZM296.429 264.159C297.197 264.159 297.875 264.309 298.463 264.609C299.063 264.909 299.531 265.371 299.867 265.995C300.203 266.607 300.371 267.399 300.371 268.371V273.879H298.121V268.659C298.121 267.807 297.935 267.171 297.563 266.751C297.191 266.331 296.657 266.121 295.961 266.121C295.469 266.121 295.031 266.229 294.647 266.445C294.275 266.661 293.981 266.979 293.765 267.399C293.561 267.819 293.459 268.353 293.459 269.001V273.879H291.209V268.659C291.209 267.807 291.023 267.171 290.651 266.751C290.279 266.331 289.745 266.121 289.049 266.121C288.557 266.121 288.119 266.229 287.735 266.445C287.363 266.661 287.069 266.979 286.853 267.399C286.649 267.819 286.547 268.353 286.547 269.001V273.879H284.297V264.267H286.439V266.823L286.061 266.067C286.385 265.443 286.853 264.969 287.465 264.645C288.089 264.321 288.797 264.159 289.589 264.159C290.489 264.159 291.269 264.381 291.929 264.825C292.601 265.269 293.045 265.941 293.261 266.841L292.379 266.535C292.691 265.815 293.207 265.239 293.927 264.807C294.647 264.375 295.481 264.159 296.429 264.159ZM307.315 274.005C306.499 274.005 305.779 273.855 305.155 273.555C304.531 273.243 304.045 272.775 303.697 272.151C303.349 271.515 303.175 270.717 303.175 269.757V264.267H305.425V269.451C305.425 270.315 305.617 270.963 306.001 271.395C306.397 271.815 306.955 272.025 307.675 272.025C308.203 272.025 308.659 271.917 309.043 271.701C309.439 271.485 309.745 271.161 309.961 270.729C310.189 270.297 310.303 269.763 310.303 269.127V264.267H312.553V273.879H310.411V271.287L310.789 272.079C310.465 272.703 309.991 273.183 309.367 273.519C308.743 273.843 308.059 274.005 307.315 274.005ZM315.498 273.879V260.523H317.748V273.879H315.498ZM326.624 273.879V271.935L326.498 271.521V268.119C326.498 267.459 326.3 266.949 325.904 266.589C325.508 266.217 324.908 266.031 324.104 266.031C323.564 266.031 323.03 266.115 322.502 266.283C321.986 266.451 321.548 266.685 321.188 266.985L320.306 265.347C320.822 264.951 321.434 264.657 322.142 264.465C322.862 264.261 323.606 264.159 324.374 264.159C325.766 264.159 326.84 264.495 327.596 265.167C328.364 265.827 328.748 266.853 328.748 268.245V273.879H326.624ZM323.6 274.005C322.88 274.005 322.25 273.885 321.71 273.645C321.17 273.393 320.75 273.051 320.45 272.619C320.162 272.175 320.018 271.677 320.018 271.125C320.018 270.585 320.144 270.099 320.396 269.667C320.66 269.235 321.086 268.893 321.674 268.641C322.262 268.389 323.042 268.263 324.014 268.263H326.804V269.757H324.176C323.408 269.757 322.892 269.883 322.628 270.135C322.364 270.375 322.232 270.675 322.232 271.035C322.232 271.443 322.394 271.767 322.718 272.007C323.042 272.247 323.492 272.367 324.068 272.367C324.62 272.367 325.112 272.241 325.544 271.989C325.988 271.737 326.306 271.365 326.498 270.873L326.876 272.223C326.66 272.787 326.27 273.225 325.706 273.537C325.154 273.849 324.452 274.005 323.6 274.005ZM323.06 262.953L325.49 260.487H328.136L325.004 262.953H323.06ZM331.635 273.879V264.267H333.777V266.913L333.525 266.139C333.813 265.491 334.263 264.999 334.875 264.663C335.499 264.327 336.273 264.159 337.197 264.159V266.301C337.101 266.277 337.011 266.265 336.927 266.265C336.843 266.253 336.759 266.247 336.675 266.247C335.823 266.247 335.145 266.499 334.641 267.003C334.137 267.495 333.885 268.233 333.885 269.217V273.879H331.635ZM339.106 273.879V264.267H341.356V273.879H339.106ZM340.24 262.683C339.82 262.683 339.472 262.551 339.196 262.287C338.932 262.023 338.8 261.705 338.8 261.333C338.8 260.949 338.932 260.631 339.196 260.379C339.472 260.115 339.82 259.983 340.24 259.983C340.66 259.983 341.002 260.109 341.266 260.361C341.542 260.601 341.68 260.907 341.68 261.279C341.68 261.675 341.548 262.011 341.284 262.287C341.02 262.551 340.672 262.683 340.24 262.683ZM348.629 274.005C347.645 274.005 346.769 273.795 346.001 273.375C345.233 272.943 344.627 272.355 344.183 271.611C343.739 270.867 343.517 270.021 343.517 269.073C343.517 268.113 343.739 267.267 344.183 266.535C344.627 265.791 345.233 265.209 346.001 264.789C346.769 264.369 347.645 264.159 348.629 264.159C349.625 264.159 350.507 264.369 351.275 264.789C352.055 265.209 352.661 265.785 353.093 266.517C353.537 267.249 353.759 268.101 353.759 269.073C353.759 270.021 353.537 270.867 353.093 271.611C352.661 272.355 352.055 272.943 351.275 273.375C350.507 273.795 349.625 274.005 348.629 274.005ZM348.629 272.079C349.181 272.079 349.673 271.959 350.105 271.719C350.537 271.479 350.873 271.131 351.113 270.675C351.365 270.219 351.491 269.685 351.491 269.073C351.491 268.449 351.365 267.915 351.113 267.471C350.873 267.015 350.537 266.667 350.105 266.427C349.673 266.187 349.187 266.067 348.647 266.067C348.095 266.067 347.603 266.187 347.171 266.427C346.751 266.667 346.415 267.015 346.163 267.471C345.911 267.915 345.785 268.449 345.785 269.073C345.785 269.685 345.911 270.219 346.163 270.675C346.415 271.131 346.751 271.479 347.171 271.719C347.603 271.959 348.089 272.079 348.629 272.079ZM259.441 296.005C259.033 296.005 258.685 295.867 258.397 295.591C258.109 295.303 257.965 294.943 257.965 294.511C257.965 294.055 258.109 293.695 258.397 293.431C258.685 293.155 259.033 293.017 259.441 293.017C259.849 293.017 260.197 293.155 260.485 293.431C260.773 293.695 260.917 294.055 260.917 294.511C260.917 294.943 260.773 295.303 260.485 295.591C260.197 295.867 259.849 296.005 259.441 296.005ZM263.836 296.005C263.428 296.005 263.08 295.867 262.792 295.591C262.504 295.303 262.36 294.943 262.36 294.511C262.36 294.055 262.504 293.695 262.792 293.431C263.08 293.155 263.428 293.017 263.836 293.017C264.244 293.017 264.592 293.155 264.88 293.431C265.168 293.695 265.312 294.055 265.312 294.511C265.312 294.943 265.168 295.303 264.88 295.591C264.592 295.867 264.244 296.005 263.836 296.005ZM268.23 296.005C267.822 296.005 267.474 295.867 267.186 295.591C266.898 295.303 266.754 294.943 266.754 294.511C266.754 294.055 266.898 293.695 267.186 293.431C267.474 293.155 267.822 293.017 268.23 293.017C268.638 293.017 268.986 293.155 269.274 293.431C269.562 293.695 269.706 294.055 269.706 294.511C269.706 294.943 269.562 295.303 269.274 295.591C268.986 295.867 268.638 296.005 268.23 296.005Z" fill="#FF7655"/>
<path d="M277.136 249.792H282.176V250.982H277.136V249.792ZM277.262 254.146H282.974V255.364H275.862V245.564H282.778V246.782H277.262V254.146ZM289.007 247.874C289.613 247.874 290.145 247.991 290.603 248.224C291.069 248.457 291.433 248.812 291.695 249.288C291.956 249.764 292.087 250.366 292.087 251.094V255.364H290.743V251.248C290.743 250.529 290.565 249.988 290.211 249.624C289.865 249.26 289.375 249.078 288.741 249.078C288.265 249.078 287.849 249.171 287.495 249.358C287.14 249.545 286.865 249.82 286.669 250.184C286.482 250.548 286.389 251.001 286.389 251.542V255.364H285.045V247.944H286.333V249.946L286.123 249.414C286.365 248.929 286.739 248.551 287.243 248.28C287.747 248.009 288.335 247.874 289.007 247.874ZM296.383 255.364L293.135 247.944H294.535L297.419 254.664H296.747L299.687 247.944H301.003L297.755 255.364H296.383ZM302.257 255.364V247.944H303.601V255.364H302.257ZM302.929 246.516C302.668 246.516 302.449 246.432 302.271 246.264C302.103 246.096 302.019 245.891 302.019 245.648C302.019 245.396 302.103 245.186 302.271 245.018C302.449 244.85 302.668 244.766 302.929 244.766C303.191 244.766 303.405 244.85 303.573 245.018C303.751 245.177 303.839 245.377 303.839 245.62C303.839 245.872 303.755 246.087 303.587 246.264C303.419 246.432 303.2 246.516 302.929 246.516ZM310.774 255.364V253.796L310.704 253.502V250.828C310.704 250.259 310.536 249.82 310.2 249.512C309.873 249.195 309.378 249.036 308.716 249.036C308.277 249.036 307.848 249.111 307.428 249.26C307.008 249.4 306.653 249.591 306.364 249.834L305.804 248.826C306.186 248.518 306.644 248.285 307.176 248.126C307.717 247.958 308.282 247.874 308.87 247.874C309.887 247.874 310.671 248.121 311.222 248.616C311.772 249.111 312.048 249.867 312.048 250.884V255.364H310.774ZM308.338 255.448C307.787 255.448 307.302 255.355 306.882 255.168C306.471 254.981 306.154 254.725 305.93 254.398C305.706 254.062 305.594 253.684 305.594 253.264C305.594 252.863 305.687 252.499 305.874 252.172C306.07 251.845 306.382 251.584 306.812 251.388C307.25 251.192 307.838 251.094 308.576 251.094H310.928V252.06H308.632C307.96 252.06 307.507 252.172 307.274 252.396C307.04 252.62 306.924 252.891 306.924 253.208C306.924 253.572 307.068 253.866 307.358 254.09C307.647 254.305 308.048 254.412 308.562 254.412C309.066 254.412 309.504 254.3 309.878 254.076C310.26 253.852 310.536 253.525 310.704 253.096L310.97 254.02C310.792 254.459 310.48 254.809 310.032 255.07C309.584 255.322 309.019 255.448 308.338 255.448ZM318.497 247.874C319.103 247.874 319.635 247.991 320.093 248.224C320.559 248.457 320.923 248.812 321.185 249.288C321.446 249.764 321.577 250.366 321.577 251.094V255.364H320.233V251.248C320.233 250.529 320.055 249.988 319.701 249.624C319.355 249.26 318.865 249.078 318.231 249.078C317.755 249.078 317.339 249.171 316.985 249.358C316.63 249.545 316.355 249.82 316.159 250.184C315.972 250.548 315.879 251.001 315.879 251.542V255.364H314.535V247.944H315.823V249.946L315.613 249.414C315.855 248.929 316.229 248.551 316.733 248.28C317.237 248.009 317.825 247.874 318.497 247.874ZM327.13 255.448C326.411 255.448 325.767 255.289 325.198 254.972C324.638 254.655 324.195 254.211 323.868 253.642C323.541 253.073 323.378 252.41 323.378 251.654C323.378 250.898 323.541 250.24 323.868 249.68C324.195 249.111 324.638 248.667 325.198 248.35C325.767 248.033 326.411 247.874 327.13 247.874C327.755 247.874 328.32 248.014 328.824 248.294C329.328 248.574 329.729 248.994 330.028 249.554C330.336 250.114 330.49 250.814 330.49 251.654C330.49 252.494 330.341 253.194 330.042 253.754C329.753 254.314 329.356 254.739 328.852 255.028C328.348 255.308 327.774 255.448 327.13 255.448ZM327.242 254.272C327.709 254.272 328.129 254.165 328.502 253.95C328.885 253.735 329.183 253.432 329.398 253.04C329.622 252.639 329.734 252.177 329.734 251.654C329.734 251.122 329.622 250.665 329.398 250.282C329.183 249.89 328.885 249.587 328.502 249.372C328.129 249.157 327.709 249.05 327.242 249.05C326.766 249.05 326.341 249.157 325.968 249.372C325.595 249.587 325.296 249.89 325.072 250.282C324.848 250.665 324.736 251.122 324.736 251.654C324.736 252.177 324.848 252.639 325.072 253.04C325.296 253.432 325.595 253.735 325.968 253.95C326.341 254.165 326.766 254.272 327.242 254.272ZM329.776 255.364V253.362L329.86 251.64L329.72 249.918V244.976H331.064V255.364H329.776ZM336.785 255.448C336.038 255.448 335.376 255.285 334.797 254.958C334.218 254.631 333.761 254.183 333.425 253.614C333.089 253.035 332.921 252.382 332.921 251.654C332.921 250.917 333.089 250.263 333.425 249.694C333.761 249.125 334.218 248.681 334.797 248.364C335.376 248.037 336.038 247.874 336.785 247.874C337.522 247.874 338.18 248.037 338.759 248.364C339.347 248.681 339.804 249.125 340.131 249.694C340.467 250.254 340.635 250.907 340.635 251.654C340.635 252.391 340.467 253.045 340.131 253.614C339.804 254.183 339.347 254.631 338.759 254.958C338.18 255.285 337.522 255.448 336.785 255.448ZM336.785 254.272C337.261 254.272 337.686 254.165 338.059 253.95C338.442 253.735 338.74 253.432 338.955 253.04C339.17 252.639 339.277 252.177 339.277 251.654C339.277 251.122 339.17 250.665 338.955 250.282C338.74 249.89 338.442 249.587 338.059 249.372C337.686 249.157 337.261 249.05 336.785 249.05C336.309 249.05 335.884 249.157 335.511 249.372C335.138 249.587 334.839 249.89 334.615 250.282C334.391 250.665 334.279 251.122 334.279 251.654C334.279 252.177 334.391 252.639 334.615 253.04C334.839 253.432 335.138 253.735 335.511 253.95C335.884 254.165 336.309 254.272 336.785 254.272Z" fill="#0B1B54"/>
<path d="M297.708 91.4415H293.347C292.23 91.4415 291.152 91.8528 290.319 92.5969C288.466 94.2514 288.283 97.0866 289.909 98.965L295.196 105.075L295.221 105.106C295.473 105.429 295.43 105.896 295.117 106.168C294.803 106.439 294.334 106.414 294.051 106.118L294.024 106.089L288.737 99.9791C286.557 97.4606 286.802 93.6592 289.286 91.441C290.404 90.4434 291.849 89.892 293.347 89.892H299.234L297.708 91.4415Z" fill="#FF7655"/>
<path d="M291.741 95.0976C292.054 94.8264 292.523 94.851 292.807 95.147L292.834 95.1764L298.121 101.286C300.301 103.805 300.056 107.606 297.571 109.824C296.454 110.822 295.008 111.373 293.51 111.373H287.625L289.151 109.824H293.51C294.628 109.824 295.706 109.413 296.539 108.668C298.392 107.014 298.575 104.179 296.949 102.3L291.662 96.1906L291.637 96.1596C291.385 95.8365 291.428 95.3688 291.741 95.0976Z" fill="#0B1B54"/>
<path d="M322.053 111.357V110.458L322.03 110.311V108.808C322.03 108.462 321.932 108.196 321.735 108.01C321.544 107.824 321.258 107.731 320.875 107.731C320.612 107.731 320.361 107.775 320.124 107.862C319.886 107.95 319.685 108.067 319.519 108.211L319.272 107.8C319.478 107.625 319.726 107.491 320.015 107.398C320.305 107.299 320.609 107.25 320.93 107.25C321.457 107.25 321.862 107.382 322.146 107.646C322.435 107.904 322.58 108.299 322.58 108.831V111.357H322.053ZM320.651 111.396C320.346 111.396 320.08 111.347 319.853 111.248C319.631 111.145 319.46 111.006 319.341 110.83C319.222 110.649 319.163 110.443 319.163 110.21C319.163 109.998 319.212 109.807 319.31 109.637C319.414 109.461 319.579 109.322 319.806 109.218C320.039 109.11 320.349 109.056 320.736 109.056H322.138V109.466H320.751C320.359 109.466 320.085 109.536 319.93 109.676C319.78 109.815 319.705 109.988 319.705 110.195C319.705 110.427 319.796 110.613 319.977 110.753C320.157 110.892 320.411 110.962 320.736 110.962C321.046 110.962 321.312 110.892 321.534 110.753C321.761 110.608 321.927 110.401 322.03 110.133L322.154 110.512C322.051 110.781 321.87 110.995 321.611 111.155C321.358 111.316 321.038 111.396 320.651 111.396Z" fill="#0B1B54"/>
<path d="M315.828 111.357V107.289H316.355V108.397L316.301 108.203C316.414 107.893 316.606 107.658 316.874 107.498C317.143 107.333 317.476 107.25 317.874 107.25V107.785C317.853 107.785 317.832 107.785 317.812 107.785C317.791 107.78 317.77 107.777 317.75 107.777C317.321 107.777 316.985 107.909 316.742 108.172C316.5 108.431 316.378 108.8 316.378 109.28V111.357H315.828Z" fill="#0B1B54"/>
<path d="M312.878 111.357V110.458L312.855 110.311V108.808C312.855 108.462 312.757 108.196 312.561 108.01C312.37 107.824 312.083 107.731 311.701 107.731C311.437 107.731 311.187 107.775 310.949 107.862C310.711 107.95 310.51 108.067 310.345 108.211L310.097 107.8C310.303 107.625 310.551 107.491 310.841 107.398C311.13 107.299 311.435 107.25 311.755 107.25C312.282 107.25 312.687 107.382 312.971 107.646C313.261 107.904 313.405 108.299 313.405 108.831V111.357H312.878ZM311.476 111.396C311.171 111.396 310.905 111.347 310.678 111.248C310.456 111.145 310.285 111.006 310.166 110.83C310.048 110.649 309.988 110.443 309.988 110.21C309.988 109.998 310.037 109.807 310.135 109.637C310.239 109.461 310.404 109.322 310.631 109.218C310.864 109.11 311.174 109.056 311.561 109.056H312.964V109.466H311.577C311.184 109.466 310.91 109.536 310.755 109.676C310.606 109.815 310.531 109.988 310.531 110.195C310.531 110.427 310.621 110.613 310.802 110.753C310.983 110.892 311.236 110.962 311.561 110.962C311.871 110.962 312.137 110.892 312.359 110.753C312.586 110.608 312.752 110.401 312.855 110.133L312.979 110.512C312.876 110.781 312.695 110.995 312.437 111.155C312.184 111.316 311.863 111.396 311.476 111.396Z" fill="#0B1B54"/>
<path d="M306.239 107.25C306.569 107.25 306.858 107.315 307.106 107.444C307.359 107.568 307.556 107.759 307.695 108.017C307.84 108.276 307.912 108.601 307.912 108.994V111.357H307.362V109.048C307.362 108.619 307.254 108.296 307.037 108.079C306.825 107.857 306.525 107.746 306.138 107.746C305.849 107.746 305.596 107.806 305.379 107.924C305.167 108.038 305.001 108.206 304.883 108.428C304.769 108.645 304.712 108.908 304.712 109.218V111.357H304.162V107.289H304.689V108.405L304.604 108.196C304.733 107.901 304.94 107.671 305.224 107.506C305.508 107.336 305.846 107.25 306.239 107.25Z" fill="#FF7655"/>
<path d="M301.151 111.357V107.289H301.701V111.357H301.151ZM301.43 106.39C301.317 106.39 301.221 106.352 301.144 106.274C301.066 106.197 301.027 106.104 301.027 105.995C301.027 105.887 301.066 105.796 301.144 105.724C301.221 105.647 301.317 105.608 301.43 105.608C301.544 105.608 301.639 105.644 301.717 105.716C301.794 105.789 301.833 105.879 301.833 105.988C301.833 106.101 301.794 106.197 301.717 106.274C301.645 106.352 301.549 106.39 301.43 106.39Z" fill="#FF7655"/>
<defs>
<linearGradient id="paint0_linear_1828_219" x1="240.389" y1="326.44" x2="312.545" y2="326.44" gradientUnits="userSpaceOnUse">
<stop stop-color="#FF7655"/>
<stop offset="1" stop-color="#FFBE93"/>
</linearGradient>
</defs>
</svg>
