<svg width="48" height="46" viewBox="0 0 48 46" fill="none" xmlns="http://www.w3.org/2000/svg">
<path fill-rule="evenodd" clip-rule="evenodd" d="M15.5233 19.0141C17.6719 21.1185 20.37 22.1706 23.6174 22.1706C26.8648 22.1706 29.5628 21.1185 31.7115 19.0141C33.8597 16.9093 34.9338 14.2664 34.9338 11.0853C34.9338 7.90424 33.8597 5.2613 31.7115 3.15649C29.5628 1.05217 26.8648 0 23.6174 0C20.37 0 17.6719 1.05217 15.5233 3.15649C13.3751 5.2613 12.301 7.90424 12.301 11.0853C12.301 14.2664 13.3751 16.9093 15.5233 19.0141ZM2.45134e-09 38.1244L0 45.3541H4.92053V40.5341V38.1244C4.92053 37.4337 5.11316 36.7831 5.49842 36.1724C5.88368 35.5617 6.37989 35.1039 6.98705 34.7988C9.93923 33.3687 12.7519 32.3607 15.4251 31.7746C18.0983 31.188 20.8291 30.8947 23.6174 30.8947C26.4057 30.8947 29.12 31.188 31.7602 31.7746C34.4009 32.3607 37.2139 33.3687 40.199 34.7988C40.8057 35.1039 41.31 35.5617 41.712 36.1724C42.1135 36.7831 42.3142 37.4337 42.3142 38.1244V40.5341V45.3541H47.2348V38.1244C47.2348 36.357 46.7814 34.8132 45.8745 33.4931C44.9682 32.1729 43.7637 31.1653 42.2611 30.4703C39.0491 29.034 35.9179 27.9423 32.8673 27.1953C29.8167 26.4482 26.7334 26.0747 23.6174 26.0747C20.5014 26.0747 17.4097 26.4402 14.3424 27.1714C11.2756 27.9026 8.13496 28.9991 4.92053 30.4609C3.46068 31.1516 2.27563 32.1597 1.36538 33.4851C0.455127 34.8106 2.45134e-09 36.357 2.45134e-09 38.1244ZM28.1807 15.5554C26.959 16.7527 25.4379 17.3513 23.6174 17.3513C21.7969 17.3513 20.2758 16.7527 19.0541 15.5554C17.8319 14.3587 17.2208 12.8686 17.2208 11.0853C17.2208 9.30198 17.8319 7.81194 19.0541 6.61518C20.2758 5.41794 21.7969 4.81933 23.6174 4.81933C25.4379 4.81933 26.959 5.41794 28.1807 6.61518C29.4029 7.81194 30.014 9.30198 30.014 11.0853C30.014 12.8686 29.4029 14.3587 28.1807 15.5554Z" fill="#FF7655"/>
<path d="M42.3142 40.5341H4.92053V45.3541H42.3142V40.5341Z" fill="#FF7655"/>
</svg>
