<svg width="41" height="36" viewBox="0 0 41 36" fill="none" xmlns="http://www.w3.org/2000/svg">
<path d="M0 35.4091L20.5 0L41 35.4091H0ZM6.42955 31.6818H34.5705L20.5 7.45455L6.42955 31.6818ZM20.5 29.8182C21.028 29.8182 21.4706 29.6396 21.8278 29.2824C22.185 28.9252 22.3636 28.4826 22.3636 27.9545C22.3636 27.4265 22.185 26.9839 21.8278 26.6267C21.4706 26.2695 21.028 26.0909 20.5 26.0909C19.972 26.0909 19.5294 26.2695 19.1722 26.6267C18.815 26.9839 18.6364 27.4265 18.6364 27.9545C18.6364 28.4826 18.815 28.9252 19.1722 29.2824C19.5294 29.6396 19.972 29.8182 20.5 29.8182ZM18.6364 24.2273H22.3636V14.9091H18.6364V24.2273Z" fill="#FF7655"/>
</svg>
