<svg width="1238" height="504" viewBox="0 0 1238 504" fill="none" xmlns="http://www.w3.org/2000/svg">
<path d="M380.786 290.57C380.786 267.94 362.441 249.594 339.81 249.594C317.18 249.594 298.834 267.94 298.834 290.57C298.834 313.201 317.18 331.546 339.81 331.546V337.186C314.065 337.186 293.194 316.315 293.194 290.57C293.194 264.825 314.065 243.955 339.81 243.954C365.555 243.954 386.426 264.825 386.426 290.57C386.426 316.315 365.555 337.186 339.81 337.186V331.546C362.441 331.546 380.786 313.201 380.786 290.57Z" fill="#407BFF" fill-opacity="0.21"/>
<path d="M330.066 324.608C324.091 322.347 318.817 318.552 314.773 313.606C310.73 308.659 308.059 302.736 307.031 296.431L311.466 295.707C312.368 301.234 314.709 306.426 318.253 310.761C321.797 315.096 326.42 318.422 331.657 320.405L330.066 324.608Z" fill="#83EEFF" fill-opacity="0.22"/>
<circle cx="832.476" cy="359.989" r="24.0115" stroke="#407BFF" stroke-opacity="0.16" stroke-width="6"/>
<circle cx="213.991" cy="476.996" r="24.0115" stroke="#407BFF" stroke-opacity="0.16" stroke-width="6"/>
<path d="M831.399 375.518C827.761 374.836 824.366 373.209 821.555 370.799C818.745 368.389 816.619 365.282 815.39 361.79L818.928 360.545C819.938 363.416 821.686 365.97 823.997 367.952C826.307 369.933 829.099 371.271 832.09 371.832L831.399 375.518Z" fill="#83EEFF" fill-opacity="0.22"/>
<path d="M212.679 461.896C216.305 462.641 219.671 464.328 222.439 466.786C225.206 469.245 227.278 472.389 228.446 475.902L224.887 477.085C223.927 474.196 222.223 471.612 219.948 469.591C217.673 467.569 214.905 466.183 211.924 465.57L212.679 461.896Z" fill="#83EEFF" fill-opacity="0.22"/>
<circle cx="412.801" cy="35.5114" r="24.6843" transform="rotate(73 412.801 35.5114)" stroke="#407BFF" stroke-opacity="0.16" stroke-width="6"/>
<path d="M397.256 39.109C396.834 35.3384 397.412 31.5232 398.932 28.0467C400.452 24.5703 402.86 21.5552 405.914 19.3044L408.195 22.399C405.684 24.2495 403.704 26.7284 402.454 29.5865C401.205 32.4447 400.73 35.5814 401.077 38.6814L397.256 39.109Z" fill="#83EEFF" fill-opacity="0.22"/>
<path d="M166.242 73.976C166.347 109.342 137.761 138.097 102.395 138.202C67.0285 138.307 38.2735 109.721 38.1689 74.3548C38.0643 38.9884 66.6497 10.2334 102.016 10.1287C137.383 10.0241 166.138 38.6095 166.242 73.976ZM50.9763 74.3169C51.0599 102.61 74.0639 125.478 102.357 125.395C130.65 125.311 153.519 102.307 153.435 74.0138C153.351 45.7207 130.347 22.8524 102.054 22.9361C73.7609 23.0198 50.8926 46.0238 50.9763 74.3169Z" fill="#3953A8"/>
<path d="M140.859 74.1655C140.859 68.5739 139.646 63.0488 137.304 57.9715C134.961 52.8943 131.545 48.3857 127.291 44.7569C123.036 41.1281 118.046 38.4654 112.663 36.9527C107.279 35.4399 101.632 35.1131 96.1105 35.9947L97.424 44.2212C101.756 43.5296 106.186 43.786 110.409 44.9727C114.632 46.1594 118.547 48.2482 121.884 51.095C125.222 53.9417 127.902 57.4786 129.739 61.4616C131.577 65.4447 132.529 69.779 132.529 74.1655H140.859Z" fill="#7CA7C5" fill-opacity="0.46"/>
<path d="M63.5508 329.983C77.1935 329.983 88.2695 341.08 88.2695 354.789C88.2694 368.498 77.1934 379.596 63.5508 379.596C49.9081 379.596 38.8321 368.498 38.832 354.789C38.832 341.08 49.908 329.983 63.5508 329.983Z" stroke="#8ABBF4" stroke-opacity="0.16" stroke-width="6"/>
<path d="M62.4452 370.775C58.7114 370.073 55.2275 368.398 52.3437 365.917C49.46 363.436 47.2779 360.238 46.0169 356.643L49.6475 355.361C50.6843 358.317 52.4782 360.946 54.8491 362.986C57.22 365.025 60.0843 366.403 63.1541 366.98L62.4452 370.775Z" fill="#83EEFF" fill-opacity="0.22"/>
<path d="M33.7924 142.364C33.7924 134.266 27.2268 127.7 19.1281 127.7C11.0293 127.7 4.46383 134.266 4.46383 142.364C4.46392 150.463 11.0294 157.029 19.1281 157.029V161.216L18.6415 161.209C8.61664 160.955 0.536602 152.876 0.282501 142.851L0.276367 142.364C0.276367 131.953 8.71667 123.513 19.1281 123.513L19.6147 123.519C29.8012 123.777 37.9799 132.116 37.9799 142.364L37.973 142.851C37.7148 153.037 29.3767 161.216 19.1281 161.216V157.029C27.2267 157.029 33.7923 150.463 33.7924 142.364Z" fill="#6FC3FF" fill-opacity="0.16"/>
<path d="M18.376 153.202C15.8366 152.726 13.4672 151.59 11.5059 149.908C9.54467 148.227 8.06066 146.058 7.20306 143.621L9.67225 142.752C10.3773 144.756 11.5974 146.539 13.2099 147.921C14.8223 149.304 16.7703 150.238 18.8581 150.629L18.376 153.202Z" fill="#83EEFF" fill-opacity="0.22"/>
<circle cx="1152.81" cy="100.496" r="79.0875" stroke="#407BFF" stroke-opacity="0.21" stroke-width="11"/>
<path d="M1139.78 37.1052C1154.65 37.1052 1169.26 41.0196 1182.14 48.455C1195.02 55.8905 1205.71 66.5849 1213.15 79.4635L1204.09 84.6944C1197.57 73.4062 1188.19 64.0324 1176.91 57.5152C1165.62 50.998 1152.81 47.5669 1139.78 47.5669V37.1052Z" fill="#83EEFF" fill-opacity="0.22"/>
<path d="M1179.82 254.556C1193.07 254.556 1203.83 265.336 1203.83 278.653C1203.83 291.97 1193.07 302.75 1179.82 302.751C1166.57 302.751 1155.81 291.97 1155.81 278.653C1155.81 265.336 1166.57 254.556 1179.82 254.556Z" stroke="#88EBFF" stroke-opacity="0.16" stroke-width="6"/>
<path d="M1178.74 294.231C1175.1 293.547 1171.71 291.915 1168.9 289.497C1166.09 287.08 1163.96 283.963 1162.73 280.46L1166.27 279.211C1167.28 282.091 1169.03 284.654 1171.34 286.641C1173.65 288.629 1176.44 289.971 1179.43 290.533L1178.74 294.231Z" fill="#83EEFF" fill-opacity="0.22"/>
<path d="M577.395 381.103C595.515 381.103 610.222 395.842 610.222 414.044C610.222 432.245 595.515 446.984 577.395 446.984C559.274 446.984 544.567 432.245 544.567 414.044C544.567 395.842 559.274 381.103 577.395 381.103Z" stroke="#88EBFF" stroke-opacity="0.16" stroke-width="6"/>
<path d="M575.966 434.706C571.14 433.799 566.637 431.634 562.909 428.427C559.182 425.221 556.362 421.087 554.732 416.44L559.425 414.784C560.765 418.604 563.083 422.003 566.148 424.639C569.212 427.275 572.914 429.055 576.882 429.801L575.966 434.706Z" fill="#83EEFF" fill-opacity="0.22"/>
</svg>
