<svg width="44" height="60" viewBox="0 0 44 60" fill="none" xmlns="http://www.w3.org/2000/svg">
<path d="M5.43154 59.209C4.19977 59.209 3.14515 58.7506 2.26768 57.8337C1.39066 56.9164 0.952148 55.8139 0.952148 54.5262V24.8394C0.952148 23.5517 1.39066 22.4492 2.26768 21.5319C3.14515 20.615 4.19977 20.1566 5.43154 20.1566H9.46279V13.7881C9.46279 10.0313 10.7297 6.82892 13.2636 4.18095C15.7975 1.53297 18.8619 0.208984 22.4569 0.208984C26.0518 0.208984 29.1147 1.53297 31.6454 4.18095C34.1761 6.82892 35.4415 10.0313 35.4415 13.7881V20.1566H39.4728C40.7045 20.1566 41.7591 20.615 42.6366 21.5319C43.5136 22.4492 43.9521 23.5517 43.9521 24.8394V54.5262C43.9521 55.8139 43.5136 56.9164 42.6366 57.8337C41.7591 58.7506 40.7045 59.209 39.4728 59.209H5.43154ZM5.43154 54.5262H39.4728V24.8394H5.43154V54.5262ZM22.4595 45.1614C23.9027 45.1614 25.1358 44.6341 26.1589 43.5796C27.1815 42.5251 27.6928 41.2573 27.6928 39.7762C27.6928 38.3246 27.1788 37.0332 26.1508 35.9019C25.1233 34.7701 23.8879 34.2042 22.4448 34.2042C21.0016 34.2042 19.7685 34.7701 18.7454 35.9019C17.7228 37.0332 17.2115 38.3326 17.2115 39.8001C17.2115 41.2671 17.7255 42.5274 18.7535 43.581C19.781 44.6346 21.0164 45.1614 22.4595 45.1614ZM13.9415 20.1566H30.9628V13.7881C30.9628 11.3171 30.1359 9.21655 28.4822 7.48635C26.8281 5.75662 24.8198 4.89176 22.4575 4.89176C20.0948 4.89176 18.0847 5.75662 16.4274 7.48635C14.7702 9.21655 13.9415 11.3171 13.9415 13.7881V20.1566Z" fill="#FF7655"/>
</svg>
