<svg width="71" height="71" viewBox="0 0 71 71" fill="none" xmlns="http://www.w3.org/2000/svg">
<path fill-rule="evenodd" clip-rule="evenodd" d="M33.5507 0.86409C33.3267 0.890424 32.5625 0.969425 31.8555 1.03965C23.6299 1.86038 15.3428 6.10008 9.73902 12.3587C3.54237 19.28 0.393542 27.8691 0.683392 37.0201C1.18843 52.8246 12.0578 66.2064 27.477 70.016C36.5194 72.2499 46.4622 70.6568 54.3408 65.7148C62.2019 60.7773 67.7047 53.1713 69.9049 44.1916C70.6603 41.1149 70.8359 39.5481 70.8359 35.9097C70.8359 32.2712 70.6603 30.7044 69.9049 27.6278C66.4267 13.4296 54.7273 2.98394 40.1689 1.07915C38.9217 0.916758 34.3851 0.771923 33.5507 0.86409ZM39.5233 7.65815C44.4156 8.29015 48.9962 10.173 53.098 13.2365C54.5428 14.3161 57.3842 17.1558 58.4646 18.5997C60.9283 21.8958 62.7509 25.7712 63.5765 29.4799C64.5163 33.7152 64.5163 38.1041 63.5765 42.3394C61.7584 50.5072 56.0009 57.7577 48.3681 61.4883C45.6102 62.8357 42.7644 63.7179 39.6419 64.1919C37.7798 64.4772 33.7746 64.4772 31.9126 64.1919C23.3576 62.8928 16.1377 58.2273 11.5923 51.0558C10.6525 49.5768 9.42282 46.9961 8.80798 45.2098C7.74959 42.1507 7.29286 39.3374 7.29286 35.9097C7.29286 31.3496 8.17558 27.461 10.1299 23.4451C11.623 20.3816 13.1426 18.2662 15.6326 15.7777C18.1227 13.2891 20.2395 11.7706 23.3049 10.2783C28.3685 7.81615 33.8756 6.92958 39.5233 7.65815ZM34.4861 19.6267C33.5023 19.9471 32.9446 20.5089 32.6723 21.4481C32.5142 21.9836 32.4966 23.2081 32.523 30.7132C32.5581 39.3593 32.5581 39.3637 32.8129 39.8421C33.1334 40.4434 33.7483 40.9876 34.3324 41.1939C34.9121 41.3958 36.6424 41.3958 37.2221 41.1939C37.8062 40.9876 38.421 40.4434 38.7416 39.8421C38.9963 39.3637 38.9963 39.3593 39.0315 30.7132C39.0666 21.2682 39.0666 21.2594 38.3947 20.465C37.8501 19.8155 37.266 19.6004 35.9529 19.5653C35.3073 19.5477 34.6486 19.5741 34.4861 19.6267ZM34.8374 47.0136C34.0074 47.2857 33.1861 47.9924 32.7865 48.778C32.4791 49.3924 32.4264 50.5028 32.6767 51.2489C33.0895 52.4998 34.4466 53.4654 35.7772 53.4654C37.1079 53.4654 38.4649 52.4998 38.8778 51.2489C39.1281 50.5028 39.0754 49.3924 38.768 48.778C38.4825 48.2162 37.7974 47.5227 37.2397 47.2331C36.7302 46.9697 35.3556 46.8425 34.8374 47.0136Z" fill="#FF7655"/>
</svg>
