<svg width="79" height="54" viewBox="0 0 79 54" fill="none" xmlns="http://www.w3.org/2000/svg">
<path d="M39.0469 16.669C36.2259 16.669 33.5205 17.7896 31.5258 19.7843C29.5311 21.779 28.4105 24.4844 28.4105 27.3054C28.4105 30.1263 29.5311 32.8317 31.5258 34.8264C33.5205 36.8211 36.2259 37.9417 39.0469 37.9417C41.8678 37.9417 44.5732 36.8211 46.5679 34.8264C48.5626 32.8317 49.6832 30.1263 49.6832 27.3054C49.6832 24.4844 48.5626 21.779 46.5679 19.7843C44.5732 17.7896 41.8678 16.669 39.0469 16.669ZM39.0469 45.0327C34.3453 45.0327 29.8363 43.165 26.5118 39.8405C23.1873 36.516 21.3196 32.007 21.3196 27.3054C21.3196 22.6038 23.1873 18.0948 26.5118 14.7703C29.8363 11.4458 34.3453 9.57811 39.0469 9.57811C43.7484 9.57811 48.2574 11.4458 51.5819 14.7703C54.9065 18.0948 56.7741 22.6038 56.7741 27.3054C56.7741 32.007 54.9065 36.516 51.5819 39.8405C48.2574 43.165 43.7484 45.0327 39.0469 45.0327ZM39.0469 0.714478C21.3196 0.714478 6.18051 11.7408 0.046875 27.3054C6.18051 42.8699 21.3196 53.8963 39.0469 53.8963C56.7741 53.8963 71.9132 42.8699 78.0469 27.3054C71.9132 11.7408 56.7741 0.714478 39.0469 0.714478Z" fill="#FF7655"/>
</svg>
