<svg width="50" height="49" viewBox="0 0 50 49" fill="none" xmlns="http://www.w3.org/2000/svg">
<path d="M17.9285 48.9766L16.9461 41.1403C16.414 40.9362 15.9126 40.6914 15.4418 40.4057C14.9711 40.12 14.5106 39.8139 14.0604 39.4874L6.75388 42.5484L0 30.9165L6.32409 26.1412C6.28316 25.8555 6.26269 25.58 6.26269 25.3148V23.6618C6.26269 23.3965 6.28316 23.121 6.32409 22.8353L0 18.0601L6.75388 6.42817L14.0604 9.48921C14.5106 9.1627 14.9813 8.8566 15.4725 8.5709C15.9637 8.2852 16.4549 8.04032 16.9461 7.83625L17.9285 0H31.4362L32.4186 7.83625C32.9508 8.04032 33.4522 8.2852 33.9229 8.5709C34.3936 8.8566 34.8541 9.1627 35.3044 9.48921L42.6109 6.42817L49.3647 18.0601L43.0406 22.8353C43.0816 23.121 43.102 23.3965 43.102 23.6618V25.3148C43.102 25.58 43.0611 25.8555 42.9792 26.1412L49.3033 30.9165L42.5494 42.5484L35.3044 39.4874C34.8541 39.8139 34.3834 40.12 33.8922 40.4057C33.401 40.6914 32.9098 40.9362 32.4186 41.1403L31.4362 48.9766H17.9285ZM22.2264 44.0789H27.0769L27.9365 37.5895C29.2054 37.263 30.3822 36.7834 31.4669 36.1508C32.5517 35.5182 33.5443 34.753 34.4448 33.855L40.5233 36.3651L42.9178 32.2021L37.6375 28.2227C37.8422 27.6514 37.9855 27.0493 38.0673 26.4167C38.1492 25.7841 38.1901 25.1413 38.1901 24.4883C38.1901 23.8353 38.1492 23.1924 38.0673 22.5598C37.9855 21.9272 37.8422 21.3252 37.6375 20.7538L42.9178 16.7745L40.5233 12.6115L34.4448 15.1827C33.5443 14.244 32.5517 13.4584 31.4669 12.8257C30.3822 12.1931 29.2054 11.7136 27.9365 11.3871L27.1383 4.89766H22.2878L21.4282 11.3871C20.1593 11.7136 18.9825 12.1931 17.8978 12.8257C16.8131 13.4584 15.8205 14.2236 14.9199 15.1215L8.84144 12.6115L6.44689 16.7745L11.7272 20.6926C11.5225 21.3048 11.3793 21.917 11.2974 22.5292C11.2155 23.1414 11.1746 23.7944 11.1746 24.4883C11.1746 25.1413 11.2155 25.7739 11.2974 26.3861C11.3793 26.9983 11.5225 27.6105 11.7272 28.2227L6.44689 32.2021L8.84144 36.3651L14.9199 33.7938C15.8205 34.7325 16.8131 35.5182 17.8978 36.1508C18.9825 36.7834 20.1593 37.263 21.4282 37.5895L22.2264 44.0789ZM24.8052 33.0592C27.1793 33.0592 29.2054 32.2225 30.8837 30.5491C32.5619 28.8758 33.401 26.8555 33.401 24.4883C33.401 22.1211 32.5619 20.1008 30.8837 18.4274C29.2054 16.7541 27.1793 15.9174 24.8052 15.9174C22.3901 15.9174 20.3537 16.7541 18.696 18.4274C17.0382 20.1008 16.2093 22.1211 16.2093 24.4883C16.2093 26.8555 17.0382 28.8758 18.696 30.5491C20.3537 32.2225 22.3901 33.0592 24.8052 33.0592Z" fill="#FF7655"/>
</svg>
