<svg width="58" height="58" viewBox="0 0 58 58" fill="none" xmlns="http://www.w3.org/2000/svg">
<path d="M25.6167 38.7888L42.6542 21.7513L39.2708 18.368L25.6167 32.0221L18.7292 25.1346L15.3458 28.518L25.6167 38.7888ZM12.0833 50.7513C10.7542 50.7513 9.61632 50.278 8.66979 49.3315C7.72326 48.385 7.25 47.2471 7.25 45.918V12.0846C7.25 10.7555 7.72326 9.61762 8.66979 8.67109C9.61632 7.72457 10.7542 7.2513 12.0833 7.2513H22.2333C22.7569 5.8013 23.633 4.63325 24.8615 3.74714C26.0899 2.86102 27.4694 2.41797 29 2.41797C30.5306 2.41797 31.9101 2.86102 33.1385 3.74714C34.367 4.63325 35.2431 5.8013 35.7667 7.2513H45.9167C47.2458 7.2513 48.3837 7.72457 49.3302 8.67109C50.2767 9.61762 50.75 10.7555 50.75 12.0846V45.918C50.75 47.2471 50.2767 48.385 49.3302 49.3315C48.3837 50.278 47.2458 50.7513 45.9167 50.7513H12.0833ZM12.0833 45.918H45.9167V12.0846H12.0833V45.918ZM29 10.2721C29.5236 10.2721 29.9566 10.101 30.299 9.75859C30.6413 9.41623 30.8125 8.98325 30.8125 8.45964C30.8125 7.93602 30.6413 7.50304 30.299 7.16068C29.9566 6.81832 29.5236 6.64714 29 6.64714C28.4764 6.64714 28.0434 6.81832 27.701 7.16068C27.3587 7.50304 27.1875 7.93602 27.1875 8.45964C27.1875 8.98325 27.3587 9.41623 27.701 9.75859C28.0434 10.101 28.4764 10.2721 29 10.2721Z" fill="#FF7655"/>
</svg>
