<svg width="469" height="267" viewBox="0 0 469 267" fill="none" xmlns="http://www.w3.org/2000/svg">
<line y1="1.5" x2="468.75" y2="1.5" stroke="#BFD4E3" stroke-opacity="0.29" stroke-width="3"/>
<line y1="45.4688" x2="468.75" y2="45.4688" stroke="#BFD4E3" stroke-opacity="0.29" stroke-width="3"/>
<line y1="89.4375" x2="468.75" y2="89.4375" stroke="#BFD4E3" stroke-opacity="0.29" stroke-width="3"/>
<line y1="133.406" x2="468.75" y2="133.406" stroke="#BFD4E3" stroke-opacity="0.29" stroke-width="3"/>
<line y1="177.375" x2="468.75" y2="177.375" stroke="#BFD4E3" stroke-opacity="0.29" stroke-width="3"/>
<line y1="221.344" x2="468.75" y2="221.344" stroke="#BFD4E3" stroke-opacity="0.29" stroke-width="3"/>
<line y1="265.312" x2="468.75" y2="265.312" stroke="#BFD4E3" stroke-opacity="0.29" stroke-width="3"/>
<rect x="430.5" y="11.4844" width="14.0977" height="255.328" fill="#FF7655"/>
<rect x="388.988" y="39.6797" width="14.0977" height="227.133" fill="#FF7655"/>
<rect x="352.176" y="80.4102" width="14.0977" height="186.402" fill="#FF7655"/>
<rect x="310.664" y="102.34" width="14.0977" height="164.473" fill="#FF7655"/>
<rect x="273.852" y="114.086" width="14.0977" height="152.727" fill="#FF7655"/>
<rect x="234.457" y="123.484" width="14.0977" height="143.328" fill="#FF7655"/>
<rect x="197.645" y="156.301" width="14.0977" height="110.512" fill="#FF7655"/>
<rect x="154.996" y="156.301" width="14.0977" height="110.512" fill="#FF7655"/>
<rect x="118.184" y="183.328" width="14.0977" height="83.4844" fill="#FF7655"/>
<rect x="78.7891" y="203.172" width="14.0977" height="63.6406" fill="#FF7655"/>
<rect x="39.3945" y="228.086" width="14.0977" height="38.7266" fill="#FF7655"/>
<rect y="258.492" width="14.0977" height="8.32031" fill="#FF7655"/>
<circle cx="4.24414" cy="121.697" r="3.74414" fill="#384994" stroke="#384994"/>
<circle cx="43.5684" cy="36.7754" r="3.74414" fill="#384994" stroke="#384994"/>
<circle cx="83.1621" cy="30.7285" r="3.74414" fill="#384994" stroke="#384994"/>
<circle cx="120.236" cy="254.248" r="3.74414" fill="#384994" stroke="#384994"/>
<circle cx="159.111" cy="123.436" r="3.74414" fill="#384994" stroke="#384994"/>
<circle cx="238.443" cy="110.479" r="3.74414" fill="#384994" stroke="#384994"/>
<circle cx="276.596" cy="116.959" r="3.74414" fill="#384994" stroke="#384994"/>
<circle cx="315.83" cy="159.072" r="3.74414" fill="#384994" stroke="#384994"/>
<circle cx="354.342" cy="65.4863" r="3.74414" fill="#384994" stroke="#384994"/>
<circle cx="394.654" cy="112.717" r="3.74414" fill="#384994" stroke="#384994"/>
<circle cx="433.529" cy="215.432" r="3.74414" fill="#384994" stroke="#384994"/>
<path d="M4.02344 122.084L43.5273 37.1933L82.7489 30.75L120.291 255.157L158.392 122.084L199.016 198.565L237.958 110.594L274.94 116.477L315.283 159.062L353.665 65.208L394.849 112.835L433.791 215.935" stroke="#384994" stroke-width="2"/>
<circle cx="199.209" cy="196.865" r="3.74414" fill="#384994" stroke="#384994"/>
</svg>
