<svg width="469" height="267" viewBox="0 0 469 267" fill="none" xmlns="http://www.w3.org/2000/svg">
<line y1="-1.5" x2="468.75" y2="-1.5" transform="matrix(-1 0 0 1 468.75 3)" stroke="#BFD4E3" stroke-opacity="0.29" stroke-width="3"/>
<line y1="-1.5" x2="468.75" y2="-1.5" transform="matrix(-1 0 0 1 468.75 46.9688)" stroke="#BFD4E3" stroke-opacity="0.29" stroke-width="3"/>
<line y1="-1.5" x2="468.75" y2="-1.5" transform="matrix(-1 0 0 1 468.75 90.9375)" stroke="#BFD4E3" stroke-opacity="0.29" stroke-width="3"/>
<line y1="-1.5" x2="468.75" y2="-1.5" transform="matrix(-1 0 0 1 468.75 134.906)" stroke="#BFD4E3" stroke-opacity="0.29" stroke-width="3"/>
<line y1="-1.5" x2="468.75" y2="-1.5" transform="matrix(-1 0 0 1 468.75 178.875)" stroke="#BFD4E3" stroke-opacity="0.29" stroke-width="3"/>
<line y1="-1.5" x2="468.75" y2="-1.5" transform="matrix(-1 0 0 1 468.75 222.844)" stroke="#BFD4E3" stroke-opacity="0.29" stroke-width="3"/>
<line y1="-1.5" x2="468.75" y2="-1.5" transform="matrix(-1 0 0 1 468.75 266.812)" stroke="#BFD4E3" stroke-opacity="0.29" stroke-width="3"/>
<rect x="454.652" y="11.4844" width="14.0977" height="255.328" fill="#384994"/>
<rect x="413.141" y="39.6797" width="14.0977" height="227.133" fill="#384994"/>
<rect x="376.328" y="80.4102" width="14.0977" height="186.402" fill="#384994"/>
<rect x="334.816" y="102.34" width="14.0977" height="164.473" fill="#384994"/>
<rect x="298.004" y="114.086" width="14.0977" height="152.727" fill="#384994"/>
<rect x="258.609" y="123.484" width="14.0977" height="143.328" fill="#384994"/>
<rect x="221.797" y="156.301" width="14.0977" height="110.512" fill="#384994"/>
<rect x="179.148" y="156.301" width="14.0977" height="110.512" fill="#384994"/>
<rect x="142.336" y="183.328" width="14.0977" height="83.4844" fill="#384994"/>
<rect x="102.941" y="203.172" width="14.0977" height="63.6406" fill="#384994"/>
<rect x="63.5469" y="228.086" width="14.0977" height="38.7266" fill="#384994"/>
<rect x="24.1523" y="258.492" width="14.0977" height="8.32031" fill="#384994"/>
<circle cx="4.24414" cy="4.24414" r="3.74414" transform="matrix(-1 0 0 1 468.75 117.453)" fill="#FF7655" stroke="#FF7655"/>
<circle cx="4.24414" cy="4.24414" r="3.74414" transform="matrix(-1 0 0 1 429.426 32.5312)" fill="#FF7655" stroke="#FF7655"/>
<circle cx="4.24414" cy="4.24414" r="3.74414" transform="matrix(-1 0 0 1 389.832 26.4844)" fill="#FF7655" stroke="#FF7655"/>
<circle cx="4.24414" cy="4.24414" r="3.74414" transform="matrix(-1 0 0 1 352.758 250.004)" fill="#FF7655" stroke="#FF7655"/>
<circle cx="4.24414" cy="4.24414" r="3.74414" transform="matrix(-1 0 0 1 313.883 119.191)" fill="#FF7655" stroke="#FF7655"/>
<circle cx="4.24414" cy="4.24414" r="3.74414" transform="matrix(-1 0 0 1 234.551 106.234)" fill="#FF7655" stroke="#FF7655"/>
<circle cx="4.24414" cy="4.24414" r="3.74414" transform="matrix(-1 0 0 1 196.398 112.715)" fill="#FF7655" stroke="#FF7655"/>
<circle cx="4.24414" cy="4.24414" r="3.74414" transform="matrix(-1 0 0 1 157.164 154.828)" fill="#FF7655" stroke="#FF7655"/>
<circle cx="4.24414" cy="4.24414" r="3.74414" transform="matrix(-1 0 0 1 118.652 61.2422)" fill="#FF7655" stroke="#FF7655"/>
<circle cx="4.24414" cy="4.24414" r="3.74414" transform="matrix(-1 0 0 1 78.3398 108.473)" fill="#FF7655" stroke="#FF7655"/>
<circle cx="4.24414" cy="4.24414" r="3.74414" transform="matrix(-1 0 0 1 39.4648 211.188)" fill="#FF7655" stroke="#FF7655"/>
<path d="M464.727 122.084L425.223 37.1933L386.001 30.75L348.459 255.157L310.358 122.084L269.734 198.565L230.792 110.594L193.81 116.477L153.467 159.062L115.085 65.208L73.9014 112.835L34.959 215.935" stroke="#FF7655" stroke-width="2"/>
<circle cx="4.24414" cy="4.24414" r="3.74414" transform="matrix(-1 0 0 1 273.785 192.621)" fill="#FF7655" stroke="#FF7655"/>
</svg>
