<svg width="230" height="155" viewBox="0 0 212 137" fill="none" xmlns="http://www.w3.org/2000/svg">
<path d="M61.8268 9.68799H36.3756C29.8542 9.68799 23.5606 12.0888 18.6959 16.4321C7.87973 26.0894 6.81389 42.6394 16.3024 53.604L47.1656 89.2671C48.8 91.1558 48.5933 94.0125 46.7047 95.647C44.8161 97.2812 41.9604 97.0752 40.3258 95.187L9.46252 59.5229C-3.25912 44.8222 -1.83031 22.6331 12.6715 9.68506C19.1938 3.86163 27.6319 0.643066 36.3756 0.643066H70.735L61.8268 9.68799Z" fill="#FF7655"/>
<path d="M27.0068 31.0282C28.8954 29.394 31.7512 29.6001 33.3857 31.4882L64.249 67.1522C76.9707 81.853 75.5418 104.042 61.04 116.99C54.5177 122.814 46.0797 126.032 37.3359 126.032H2.98145L11.8896 116.987H37.3359C43.8574 116.987 50.151 114.586 55.0156 110.243C65.8318 100.586 66.8977 84.0357 57.4092 73.0712L26.5459 37.4081C24.9117 35.5193 25.1182 32.6626 27.0068 31.0282Z" fill="#0B1B54"/>
<path d="M81.932 125.937V102.193H85.1432V125.937H81.932ZM83.5602 96.9464C82.8969 96.9464 82.3391 96.7202 81.8868 96.268C81.4346 95.8157 81.2084 95.273 81.2084 94.6398C81.2084 94.0066 81.4346 93.479 81.8868 93.0568C82.3391 92.6046 82.8969 92.3784 83.5602 92.3784C84.2235 92.3784 84.7813 92.5895 85.2336 93.0116C85.6859 93.4337 85.912 93.9614 85.912 94.5946C85.912 95.2579 85.6859 95.8157 85.2336 96.268C84.8115 96.7202 84.2537 96.9464 83.5602 96.9464ZM111.626 101.967C113.556 101.967 115.244 102.343 116.691 103.097C118.169 103.821 119.315 104.936 120.129 106.444C120.973 107.952 121.395 109.851 121.395 112.143V125.937H118.184V112.459C118.184 109.957 117.551 108.072 116.284 106.806C115.048 105.509 113.299 104.861 111.038 104.861C109.35 104.861 107.872 105.208 106.606 105.901C105.37 106.565 104.405 107.545 103.711 108.841C103.048 110.107 102.716 111.645 102.716 113.454V125.937H99.5052V102.193H102.581V108.705L102.083 107.484C102.837 105.766 104.043 104.424 105.701 103.459C107.36 102.464 109.334 101.967 111.626 101.967Z" fill="#FF7655"/>
<path d="M150.375 125.937V120.69L150.24 119.831V111.057C150.24 109.037 149.667 107.484 148.521 106.399C147.406 105.313 145.732 104.771 143.501 104.771C141.963 104.771 140.501 105.027 139.114 105.539C137.727 106.052 136.551 106.73 135.586 107.575L134.139 105.178C135.345 104.153 136.792 103.369 138.481 102.826C140.169 102.253 141.948 101.967 143.818 101.967C146.893 101.967 149.26 102.735 150.918 104.273C152.607 105.781 153.451 108.087 153.451 111.193V125.937H150.375ZM142.189 126.163C140.41 126.163 138.858 125.876 137.531 125.304C136.235 124.701 135.24 123.886 134.546 122.861C133.853 121.806 133.506 120.6 133.506 119.243C133.506 118.007 133.792 116.891 134.365 115.896C134.968 114.871 135.933 114.057 137.26 113.454C138.616 112.821 140.426 112.504 142.687 112.504H150.873V114.901H142.777C140.486 114.901 138.888 115.308 137.983 116.123C137.109 116.937 136.672 117.947 136.672 119.153C136.672 120.51 137.199 121.595 138.255 122.409C139.31 123.223 140.787 123.63 142.687 123.63C144.496 123.63 146.049 123.223 147.345 122.409C148.672 121.565 149.637 120.359 150.24 118.791L150.963 121.007C150.36 122.575 149.305 123.826 147.798 124.761C146.32 125.696 144.451 126.163 142.189 126.163ZM167.6 125.937V102.193H170.675V108.66L170.359 107.529C171.022 105.72 172.138 104.348 173.705 103.414C175.273 102.449 177.218 101.967 179.54 101.967V105.087C179.419 105.087 179.299 105.087 179.178 105.087C179.057 105.057 178.937 105.042 178.816 105.042C176.314 105.042 174.354 105.811 172.937 107.349C171.519 108.856 170.811 111.012 170.811 113.816V125.937H167.6ZM203.939 125.937V120.69L203.804 119.831V111.057C203.804 109.037 203.231 107.484 202.085 106.399C200.969 105.313 199.296 104.771 197.065 104.771C195.527 104.771 194.065 105.027 192.678 105.539C191.291 106.052 190.115 106.73 189.15 107.575L187.703 105.178C188.909 104.153 190.356 103.369 192.045 102.826C193.733 102.253 195.512 101.967 197.381 101.967C200.457 101.967 202.824 102.735 204.482 104.273C206.17 105.781 207.015 108.087 207.015 111.193V125.937H203.939ZM195.753 126.163C193.974 126.163 192.421 125.876 191.095 125.304C189.798 124.701 188.803 123.886 188.11 122.861C187.416 121.806 187.07 120.6 187.07 119.243C187.07 118.007 187.356 116.891 187.929 115.896C188.532 114.871 189.497 114.057 190.823 113.454C192.18 112.821 193.989 112.504 196.251 112.504H204.437V114.901H196.341C194.05 114.901 192.452 115.308 191.547 116.123C190.673 116.937 190.236 117.947 190.236 119.153C190.236 120.51 190.763 121.595 191.818 122.409C192.874 123.223 194.351 123.63 196.251 123.63C198.06 123.63 199.613 123.223 200.909 122.409C202.236 121.565 203.201 120.359 203.804 118.791L204.527 121.007C203.924 122.575 202.869 123.826 201.361 124.761C199.884 125.696 198.015 126.163 195.753 126.163Z" fill="#0B1B54"/>
</svg>
