<svg width="60" height="60" viewBox="0 0 60 60" fill="none" xmlns="http://www.w3.org/2000/svg">
<path d="M49.5 52.457L33.2919 36.2489C32.0419 37.3043 30.591 38.1308 28.9394 38.7283C27.2877 39.3254 25.5302 39.6239 23.6669 39.6239C19.1485 39.6239 15.3244 38.0579 12.1944 34.9258C9.06479 31.7941 7.5 27.9991 7.5 23.5408C7.5 19.0824 9.06604 15.2872 12.1981 12.1552C15.3298 9.02307 19.1319 7.45703 23.6044 7.45703C28.0765 7.45703 31.8715 9.02307 34.9894 12.1552C38.1077 15.2872 39.6669 19.0845 39.6669 23.547C39.6669 25.3483 39.3752 27.0754 38.7919 28.7283C38.2085 30.3808 37.3612 31.9016 36.25 33.2908L52.5 49.457L49.5 52.457ZM23.625 35.457C26.9237 35.457 29.7275 34.2939 32.0363 31.9677C34.3454 29.6414 35.5 26.8324 35.5 23.5408C35.5 20.2491 34.3454 17.4399 32.0363 15.1133C29.7275 12.787 26.9237 11.6239 23.625 11.6239C20.3033 11.6239 17.4798 12.787 15.1544 15.1133C12.8294 17.4399 11.6669 20.2491 11.6669 23.5408C11.6669 26.8324 12.8294 29.6414 15.1544 31.9677C17.4798 34.2939 20.3033 35.457 23.625 35.457Z" fill="#384994" fill-opacity="0.35"/>
</svg>
