<svg width="58" height="58" viewBox="0 0 58 58" fill="none" xmlns="http://www.w3.org/2000/svg">
<path d="M26.5833 29.0013C23.925 29.0013 21.6493 28.0548 19.7563 26.1617C17.8632 24.2687 16.9167 21.993 16.9167 19.3346C16.9167 16.6763 17.8632 14.4006 19.7563 12.5076C21.6493 10.6145 23.925 9.66797 26.5833 9.66797C29.2417 9.66797 31.5174 10.6145 33.4104 12.5076C35.3035 14.4006 36.25 16.6763 36.25 19.3346C36.25 21.993 35.3035 24.2687 33.4104 26.1617C31.5174 28.0548 29.2417 29.0013 26.5833 29.0013ZM26.5833 24.168C27.9125 24.168 29.0504 23.6947 29.9969 22.7482C30.9434 21.8016 31.4167 20.6638 31.4167 19.3346C31.4167 18.0055 30.9434 16.8676 29.9969 15.9211C29.0504 14.9746 27.9125 14.5013 26.5833 14.5013C25.2542 14.5013 24.1163 14.9746 23.1698 15.9211C22.2233 16.8676 21.75 18.0055 21.75 19.3346C21.75 20.6638 22.2233 21.8016 23.1698 22.7482C24.1163 23.6947 25.2542 24.168 26.5833 24.168ZM53.4083 56.793L45.675 49.0596C44.8292 49.543 43.9229 49.9458 42.9563 50.268C41.9896 50.5902 40.9625 50.7513 39.875 50.7513C36.8542 50.7513 34.2865 49.694 32.1719 47.5794C30.0573 45.4648 29 42.8971 29 39.8763C29 36.8555 30.0573 34.2878 32.1719 32.1732C34.2865 30.0586 36.8542 29.0013 39.875 29.0013C42.8958 29.0013 45.4635 30.0586 47.5781 32.1732C49.6927 34.2878 50.75 36.8555 50.75 39.8763C50.75 40.9638 50.5889 41.9909 50.2667 42.9576C49.9445 43.9242 49.5417 44.8305 49.0583 45.6763L56.7917 53.4096L53.4083 56.793ZM39.875 45.918C41.5667 45.918 42.9965 45.3339 44.1646 44.1659C45.3326 42.9978 45.9167 41.568 45.9167 39.8763C45.9167 38.1846 45.3326 36.7548 44.1646 35.5867C42.9965 34.4187 41.5667 33.8346 39.875 33.8346C38.1833 33.8346 36.7535 34.4187 35.5854 35.5867C34.4174 36.7548 33.8333 38.1846 33.8333 39.8763C33.8333 41.568 34.4174 42.9978 35.5854 44.1659C36.7535 45.3339 38.1833 45.918 39.875 45.918ZM7.25 48.3346V41.6284C7.25 40.2589 7.59236 38.9902 8.27708 37.8221C8.96181 36.6541 9.90833 35.768 11.1167 35.1638C13.1708 34.1166 15.4868 33.2305 18.0646 32.5055C20.6424 31.7805 23.5021 31.418 26.6438 31.418C26.1604 32.143 25.7476 32.9183 25.4052 33.744C25.0629 34.5697 24.791 35.4256 24.5896 36.3117C22.1729 36.5131 20.0181 36.926 18.125 37.5503C16.2319 38.1746 14.641 38.8291 13.3521 39.5138C12.9493 39.7152 12.6372 40.0072 12.4156 40.3898C12.1941 40.7725 12.0833 41.1853 12.0833 41.6284V43.5013H24.5896C24.791 44.3874 25.0629 45.2332 25.4052 46.0388C25.7476 46.8444 26.1604 47.6096 26.6438 48.3346H7.25Z" fill="#FF7655"/>
</svg>
