<svg width="40" height="39" viewBox="0 0 40 39" fill="none" xmlns="http://www.w3.org/2000/svg">
<path fill-rule="evenodd" clip-rule="evenodd" d="M13.1247 16.0764C14.9414 17.8556 17.2225 18.7452 19.9682 18.7452C22.7138 18.7452 24.9949 17.8556 26.8116 16.0764C28.6279 14.2968 29.536 12.0622 29.536 9.37261C29.536 6.68302 28.6279 4.44842 26.8116 2.66881C24.9949 0.889605 22.7138 0 19.9682 0C17.2225 0 14.9414 0.889605 13.1247 2.66881C11.3084 4.44842 10.4003 6.68302 10.4003 9.37261C10.4003 12.0622 11.3084 14.2968 13.1247 16.0764ZM2.07257e-09 32.2341L0 38.3468H4.16024V34.2715V32.2341C4.16024 31.6502 4.32311 31.1 4.64884 30.5837C4.97457 30.0674 5.39411 29.6802 5.90746 29.4223C8.40348 28.2132 10.7816 27.3609 13.0417 26.8653C15.3019 26.3694 17.6107 26.1214 19.9682 26.1214C22.3257 26.1214 24.6205 26.3694 26.8528 26.8653C29.0855 27.3609 31.4638 28.2132 33.9877 29.4223C34.5006 29.6802 34.927 30.0674 35.2669 30.5837C35.6064 31.1 35.7761 31.6502 35.7761 32.2341V34.2715V38.3468H39.9363V32.2341C39.9363 30.7398 39.553 29.4345 38.7863 28.3183C38.02 27.2022 37.0016 26.3502 35.7312 25.7626C33.0155 24.5482 30.3681 23.6252 27.7888 22.9936C25.2096 22.3619 22.6027 22.0461 19.9682 22.0461C17.3336 22.0461 14.7197 22.3552 12.1263 22.9734C9.53334 23.5916 6.87799 24.5187 4.16024 25.7547C2.92596 26.3386 1.92402 27.1909 1.15441 28.3116C0.384803 29.4323 2.07257e-09 30.7398 2.07257e-09 32.2341ZM23.8264 13.1521C22.7935 14.1644 21.5074 14.6705 19.9682 14.6705C18.429 14.6705 17.1429 14.1644 16.1099 13.1521C15.0766 12.1402 14.5599 10.8804 14.5599 9.37261C14.5599 7.86481 15.0766 6.60498 16.1099 5.59313C17.1429 4.58086 18.429 4.07473 19.9682 4.07473C21.5074 4.07473 22.7935 4.58086 23.8264 5.59313C24.8597 6.60498 25.3764 7.86481 25.3764 9.37261C25.3764 10.8804 24.8597 12.1402 23.8264 13.1521Z" fill="#FF7655"/>
<path d="M19.9682 14.6705C21.5074 14.6705 22.7935 14.1644 23.8264 13.1521C24.8597 12.1402 25.3764 10.8804 25.3764 9.37261C25.3764 7.86481 24.8597 6.60498 23.8264 5.59313C22.7935 4.58086 21.5074 4.07473 19.9682 4.07473C18.429 4.07473 17.1429 4.58086 16.1099 5.59313C15.0766 6.60498 14.5599 7.86481 14.5599 9.37261C14.5599 10.8804 15.0766 12.1402 16.1099 13.1521C17.1429 14.1644 18.429 14.6705 19.9682 14.6705Z" fill="#4B5997"/>
<path d="M35.7761 34.2715H4.16024V38.3468H35.7761V34.2715Z" fill="#FF7655"/>
</svg>
