<svg width="51" height="51" viewBox="0 0 51 51" fill="none" xmlns="http://www.w3.org/2000/svg">
<path d="M32.6538 47.6887L21.7653 37.0452L25.3521 33.5391L32.6538 40.6765L47.129 26.527L50.7158 30.0331L32.6538 47.6887ZM46.7447 22.8331H41.6208V10.3113H36.4968V17.8244H10.8769V10.3113H5.75289V45.3722H21.1248V50.3809H5.75289C4.34379 50.3809 3.13752 49.8904 2.13408 48.9096C1.13063 47.9287 0.628906 46.7496 0.628906 45.3722V10.3113C0.628906 8.93394 1.13063 7.75481 2.13408 6.77394C3.13752 5.79307 4.34379 5.30264 5.75289 5.30264H16.4492C16.9189 3.84177 17.8369 2.64177 19.2033 1.70264C20.5697 0.76351 22.0642 0.293945 23.6868 0.293945C25.3948 0.293945 26.9213 0.76351 28.2664 1.70264C29.6114 2.64177 30.5188 3.84177 30.9885 5.30264H41.6208C43.0299 5.30264 44.2361 5.79307 45.2396 6.77394C46.243 7.75481 46.7447 8.93394 46.7447 10.3113V22.8331ZM23.6868 10.3113C24.4127 10.3113 25.0212 10.0713 25.5122 9.59133C26.0033 9.11133 26.2488 8.51655 26.2488 7.80698C26.2488 7.09742 26.0033 6.50264 25.5122 6.02264C25.0212 5.54264 24.4127 5.30264 23.6868 5.30264C22.9609 5.30264 22.3525 5.54264 21.8614 6.02264C21.3704 6.50264 21.1248 7.09742 21.1248 7.80698C21.1248 8.51655 21.3704 9.11133 21.8614 9.59133C22.3525 10.0713 22.9609 10.3113 23.6868 10.3113Z" fill="#384994"/>
</svg>
