<svg width="214" height="131" viewBox="0 0 214 131" fill="none" xmlns="http://www.w3.org/2000/svg">
<path d="M63.193 9.36395H36.8447C30.0935 9.36395 23.5781 11.849 18.5421 16.3454C7.34497 26.3428 6.24174 43.4761 16.0644 54.8269L48.015 91.746C49.707 93.7013 49.4934 96.6588 47.5381 98.3508C45.5828 100.043 42.6254 99.8291 40.9334 97.8739L8.98374 60.9538C-4.18571 45.7352 -2.70656 22.7649 12.3059 9.36091C19.0579 3.33231 27.793 5.82443e-06 36.8447 0H72.4152L63.193 9.36395Z" fill="#FF7655"/>
<path d="M28.5389 31.575C30.4942 29.8832 33.4517 30.0968 35.1437 32.0519L67.0934 68.972C80.2628 84.1905 78.7836 107.161 63.7712 120.565C57.0192 126.593 48.2841 129.926 39.2324 129.926H3.66797L12.8902 120.562H39.2324C45.9836 120.562 52.499 118.077 57.535 113.58C68.732 103.583 69.8354 86.4496 60.0127 75.0989L28.062 38.1797C26.3702 36.2244 26.5838 33.2669 28.5389 31.575Z" fill="#F5F5F5"/>
<path d="M87.4679 129.9V105.32H90.7921V129.9H87.4679ZM89.1534 99.889C88.4667 99.889 87.8892 99.6549 87.421 99.1867C86.9528 98.7185 86.7188 98.1566 86.7188 97.5011C86.7188 96.8457 86.9528 96.2994 87.421 95.8625C87.8892 95.3943 88.4667 95.1602 89.1534 95.1602C89.8401 95.1602 90.4175 95.3786 90.8857 95.8156C91.3539 96.2526 91.588 96.7988 91.588 97.4543C91.588 98.141 91.3539 98.7185 90.8857 99.1867C90.4487 99.6549 89.8713 99.889 89.1534 99.889Z" fill="#FF7655"/>
<path d="M104.724 129.9V105.32H107.907V112.062L107.392 110.798C108.173 109.019 109.421 107.63 111.138 106.631C112.855 105.601 114.899 105.086 117.271 105.086C119.269 105.086 121.017 105.476 122.515 106.256C124.044 107.006 125.231 108.16 126.073 109.721C126.947 111.282 127.384 113.248 127.384 115.62V129.9H124.06V115.948C124.06 113.357 123.405 111.407 122.094 110.096C120.814 108.753 119.004 108.082 116.663 108.082C114.915 108.082 113.385 108.441 112.074 109.159C110.794 109.846 109.796 110.86 109.078 112.203C108.391 113.513 108.048 115.105 108.048 116.978V129.9H104.724Z" fill="#FF7655"/>
<path d="M156.449 129.9V124.469L156.309 123.58V114.497C156.309 112.405 155.716 110.798 154.529 109.674C153.375 108.551 151.642 107.989 149.332 107.989C147.741 107.989 146.227 108.254 144.791 108.785C143.355 109.315 142.138 110.018 141.139 110.892L139.641 108.41C140.889 107.349 142.388 106.537 144.135 105.976C145.883 105.382 147.725 105.086 149.66 105.086C152.844 105.086 155.294 105.882 157.011 107.474C158.759 109.034 159.633 111.422 159.633 114.637V129.9H156.449ZM147.975 130.135C146.133 130.135 144.526 129.838 143.152 129.245C141.81 128.621 140.78 127.778 140.062 126.717C139.344 125.624 138.985 124.376 138.985 122.971C138.985 121.691 139.282 120.536 139.875 119.506C140.499 118.445 141.498 117.602 142.871 116.978C144.276 116.323 146.149 115.995 148.49 115.995H156.964V118.476H148.583C146.211 118.476 144.557 118.898 143.62 119.741C142.715 120.583 142.263 121.629 142.263 122.877C142.263 124.282 142.809 125.406 143.901 126.248C144.994 127.091 146.523 127.513 148.49 127.513C150.363 127.513 151.97 127.091 153.312 126.248C154.686 125.374 155.684 124.126 156.309 122.503L157.058 124.797C156.433 126.42 155.341 127.715 153.78 128.683C152.251 129.651 150.316 130.135 147.975 130.135Z" fill="#F5F5F5"/>
<path d="M173.344 129.9V105.32H176.527V112.015L176.2 110.845C176.886 108.972 178.041 107.552 179.664 106.584C181.287 105.585 183.301 105.086 185.704 105.086V108.317C185.579 108.317 185.454 108.317 185.33 108.317C185.205 108.285 185.08 108.27 184.955 108.27C182.364 108.27 180.335 109.066 178.868 110.657C177.401 112.218 176.668 114.45 176.668 117.353V129.9H173.344Z" fill="#F5F5F5"/>
<path d="M210.301 129.9V124.469L210.16 123.58V114.497C210.16 112.405 209.567 110.798 208.381 109.674C207.226 108.551 205.494 107.989 203.184 107.989C201.592 107.989 200.079 108.254 198.643 108.785C197.207 109.315 195.99 110.018 194.991 110.892L193.493 108.41C194.741 107.349 196.239 106.537 197.987 105.976C199.735 105.382 201.577 105.086 203.512 105.086C206.696 105.086 209.146 105.882 210.863 107.474C212.611 109.034 213.485 111.422 213.485 114.637V129.9H210.301ZM201.827 130.135C199.985 130.135 198.377 129.838 197.004 129.245C195.662 128.621 194.632 127.778 193.914 126.717C193.196 125.624 192.837 124.376 192.837 122.971C192.837 121.691 193.134 120.536 193.727 119.506C194.351 118.445 195.35 117.602 196.723 116.978C198.128 116.323 200.001 115.995 202.342 115.995H210.816V118.476H202.435C200.063 118.476 198.409 118.898 197.472 119.741C196.567 120.583 196.115 121.629 196.115 122.877C196.115 124.282 196.661 125.406 197.753 126.248C198.846 127.091 200.375 127.513 202.342 127.513C204.214 127.513 205.822 127.091 207.164 126.248C208.537 125.374 209.536 124.126 210.16 122.503L210.91 124.797C210.285 126.42 209.193 127.715 207.632 128.683C206.103 129.651 204.168 130.135 201.827 130.135Z" fill="#F5F5F5"/>
</svg>
