<svg width="201" height="201" viewBox="0 0 201 201" fill="none" xmlns="http://www.w3.org/2000/svg">
<g clip-path="url(#clip0_3420_360)">
<path d="M153.125 0.657227L137.877 16.1406H98.3691C88.2405 16.1407 78.4656 19.8695 70.9102 26.6152C54.1111 41.6144 52.4563 67.3192 67.1934 84.3486L116.167 140.938C119.084 144.309 118.716 149.406 115.346 152.322C111.975 155.239 106.879 154.871 103.962 151.501L54.9893 94.9102C34.4826 71.2137 36.785 35.4463 60.1611 14.5752C70.6744 5.18863 84.2753 3.74497e-05 98.3691 0H153.125V0.657227Z" fill="#FF7655"/>
<path d="M85.0449 48.6084C88.4151 45.6919 93.5121 46.0597 96.4287 49.4297L145.401 106.021C165.908 129.717 163.606 165.484 140.229 186.355C129.716 195.742 116.115 200.931 102.021 200.931H47.2656V200.284L62.5264 184.79H102.021C112.15 184.79 121.925 181.061 129.48 174.315C146.28 159.316 147.935 133.611 133.197 116.582L84.2236 59.9922C81.3073 56.622 81.6748 51.5249 85.0449 48.6084Z" fill="#F5F5F5"/>
</g>
<defs>
<clipPath id="clip0_3420_360">
<rect width="200.93" height="200.93" fill="white"/>
</clipPath>
</defs>
</svg>
