<svg width="70" height="69" viewBox="0 0 70 69" fill="none" xmlns="http://www.w3.org/2000/svg">
<path d="M11.668 54.625V48.875H17.5013V28.75C17.5013 24.7729 18.7166 21.2391 21.1471 18.1484C23.5777 15.0578 26.7374 13.0333 30.6263 12.075V10.0625C30.6263 8.86458 31.0517 7.84635 31.9023 7.00781C32.753 6.16927 33.786 5.75 35.0013 5.75C36.2166 5.75 37.2496 6.16927 38.1003 7.00781C38.951 7.84635 39.3763 8.86458 39.3763 10.0625V12.075C43.2652 13.0333 46.4249 15.0578 48.8555 18.1484C51.286 21.2391 52.5013 24.7729 52.5013 28.75V48.875H58.3346V54.625H11.668ZM35.0013 63.25C33.3971 63.25 32.0239 62.687 30.8815 61.5609C29.7392 60.4349 29.168 59.0812 29.168 57.5H40.8346C40.8346 59.0812 40.2635 60.4349 39.1211 61.5609C37.9787 62.687 36.6055 63.25 35.0013 63.25ZM23.3346 48.875H46.668V28.75C46.668 25.5875 45.5256 22.8802 43.2409 20.6281C40.9562 18.376 38.2096 17.25 35.0013 17.25C31.793 17.25 29.0464 18.376 26.7617 20.6281C24.477 22.8802 23.3346 25.5875 23.3346 28.75V48.875Z" fill="#BFD4E3"/>
</svg>
