<svg width="1280" height="377" viewBox="0 0 1280 377" fill="none" xmlns="http://www.w3.org/2000/svg">
<path fill-rule="evenodd" clip-rule="evenodd" d="M0 321.997L73.9742 331.767C149.344 340.142 297.292 358.286 446.637 331.767C595.981 305.248 743.929 232.67 893.273 206.151C1042.62 179.632 1190.57 197.776 1339.91 232.67C1489.25 268.959 1637.2 321.997 1712.57 349.912L1786.55 376.431V0.977064H1712.57C1637.2 0.977064 1489.25 0.977064 1339.91 0.977064C1190.57 0.977064 1042.62 0.977064 893.273 0.977064C743.929 0.977064 595.981 0.977064 446.637 0.977064C297.292 0.977064 149.344 0.977064 73.9742 0.977064H0V321.997Z" fill="url(#paint0_linear_2722_420)"/>
<defs>
<linearGradient id="paint0_linear_2722_420" x1="-4.32058e-07" y1="65.9655" x2="1277.79" y2="70.5153" gradientUnits="userSpaceOnUse">
<stop stop-color="#395197"/>
<stop offset="1" stop-color="#4182A8"/>
</linearGradient>
</defs>
</svg>
