<svg width="1280" height="329" viewBox="0 0 1280 329" fill="none" xmlns="http://www.w3.org/2000/svg">
<path fill-rule="evenodd" clip-rule="evenodd" d="M-0.65332 122.881L52.3467 88.6866C106.347 54.4925 212.347 -13.8958 319.347 13.887C426.347 40.6011 532.347 163.486 639.347 191.269C746.347 219.052 852.347 150.663 959.347 102.578C1066.35 54.4925 1172.35 26.7098 1226.35 13.887L1279.35 -0.00439453V328.046H1226.35C1172.35 328.046 1066.35 328.046 959.347 328.046C852.347 328.046 746.347 328.046 639.347 328.046C532.347 328.046 426.347 328.046 319.347 328.046C212.347 328.046 106.347 328.046 52.3467 328.046H-0.65332V122.881Z" fill="#384994"/>
</svg>
