<svg width="1280" height="269" viewBox="0 0 1280 269" fill="none" xmlns="http://www.w3.org/2000/svg">
<path fill-rule="evenodd" clip-rule="evenodd" d="M0 63.2805L53 42.9778C107 8.78365 237.48 -15.7512 344.48 12.0315C451.48 38.7457 533 103.886 640 131.669C747 159.452 874.326 111.366 981.326 63.2805C1088.33 15.195 1122.5 12.0316 1183 12.0316C1243.5 12.0316 1280 42.9778 1280 42.9778V268.445H1227C1173 268.445 1067 268.445 960 268.445C853 268.445 747 268.445 640 268.445C533 268.445 427 268.445 320 268.445C213 268.445 107 268.445 53 268.445H0V63.2805Z" fill="#384994"/>
</svg>
