<svg width="1279" height="216" viewBox="0 0 1279 216" fill="none" xmlns="http://www.w3.org/2000/svg">
<path fill-rule="evenodd" clip-rule="evenodd" d="M-254 196.416L-190.125 204.6C-126.25 212.784 1.49999 229.152 129.25 196.416C257 163.68 384.75 81.84 512.5 90.024C640.25 98.208 768 196.416 895.75 212.784C1023.5 229.152 1151.25 163.68 1215.12 130.944L1279 98.208V0H1215.12C1151.25 0 1023.5 0 895.75 0C768 0 640.25 0 512.5 0C384.75 0 257 0 129.25 0C1.49999 0 -126.25 0 -190.125 0H-254V196.416Z" fill="#4082A7"/>
</svg>
