<svg width="798" height="804" viewBox="0 0 798 804" fill="none" xmlns="http://www.w3.org/2000/svg">
<path d="M425.112 -28C425.112 -28 431.331 -14.5592 433.315 -5.46071C435.052 2.50009 435.316 15.2461 435.316 15.2461C435.316 15.2461 436.18 30.5788 435.316 40.3509L435.247 41.133C434.455 50.1203 433.98 55.5073 431.115 64.3561C428.507 72.41 426.843 77.0638 421.911 84.1467C416.796 91.493 412.941 95.2051 405.505 100.639C399.503 105.025 395.539 106.789 388.698 109.984C378.434 114.779 372.001 116.126 361.088 119.513C348.889 123.299 329.476 128.126 329.476 128.126L300.265 134.906L266.452 142.053L244.844 146.817C244.844 146.817 227.497 150.83 216.633 154.147C207.766 156.854 202.718 158.272 194.224 161.843C185.803 165.384 173.416 172.288 173.416 172.288C173.416 172.288 161.511 178.399 154.609 183.283C147.703 188.17 144.375 191.547 138.203 197.21C131.679 203.195 127.834 206.453 122.197 213.152C116.534 219.882 114.039 224.123 109.392 231.477C104.543 239.15 101.557 243.393 97.9877 251.634C94.8611 258.853 93.8892 263.168 91.7853 270.691C89.5457 278.7 88.2249 283.21 86.9835 291.398C84.5871 307.205 84.4734 316.47 86.9835 332.262C88.2398 340.166 91.7853 352.236 91.7853 352.236C91.7853 352.236 96.6693 370.833 100.189 382.655C103.077 392.357 104.792 397.774 107.991 407.393C111.412 417.676 114.151 423.215 117.195 433.597C119.564 441.679 121.192 446.193 122.397 454.487C124.096 466.181 123.486 473.029 122.457 484.602L122.397 485.273C121.363 496.905 120.732 503.563 117.195 514.775C114.468 523.419 107.991 536.215 107.991 536.215C107.991 536.215 101.85 549.536 97.7876 558.021C93.799 566.353 91.7907 571.125 87.3836 579.278C82.1543 588.952 72.7781 603.467 72.7781 603.467C72.7781 603.467 66.1656 615.081 61.5738 622.341C57.2519 629.174 53.5984 633.181 48.1686 639.135L47.8218 639.515C42.9506 644.858 41.1114 647.304 35.5639 652.027C334.194 652.027 800.255 652.027 800.255 652.027V-28H425.112Z" fill="url(#paint0_linear_3149_335)"/>
<path d="M800.255 652.027H35.5639C35.5639 652.027 20.2432 665.818 13.8718 677C9.28955 685.042 5.19663 699 5.19663 699C5.19663 699 1.92467 713.838 1.11417 723.5C0.281607 733.425 1.11417 749 1.11417 749L5.19663 781L13.8718 804H800.255V652.027Z" fill="url(#paint1_linear_3149_335)"/>
<path d="M773.588 69.5C773.588 43.0824 752.173 21.6667 725.755 21.6667C699.337 21.6667 677.922 43.0824 677.922 69.5C677.922 95.9176 699.337 117.333 725.755 117.333V129C692.894 129 666.255 102.361 666.255 69.5C666.255 36.6391 692.894 10 725.755 10C758.616 10 785.255 36.6391 785.255 69.5C785.255 102.361 758.616 129 725.755 129V117.333C752.173 117.333 773.588 95.9176 773.588 69.5Z" fill="#407BFF" fill-opacity="0.21"/>
<path d="M716.255 25C726.795 25 737.149 27.7144 746.277 32.8704C755.405 38.0264 762.985 45.4423 768.255 54.3727L761.833 58C757.214 50.1724 750.57 43.6723 742.57 39.153C734.569 34.6338 725.493 32.2546 716.255 32.2546V25Z" fill="#83EEFF" fill-opacity="0.22"/>
<circle cx="163.918" cy="659.663" r="50.1627" stroke="#407BFF" stroke-opacity="0.21" stroke-width="9"/>
<path d="M152.491 699.576C145.485 696.924 139.3 692.474 134.558 686.674C129.817 680.874 126.685 673.928 125.479 666.535L130.681 665.686C131.738 672.167 134.483 678.255 138.639 683.339C142.795 688.422 148.216 692.323 154.357 694.647L152.491 699.576Z" fill="#83EEFF" fill-opacity="0.22"/>
<path d="M757.255 327C757.255 342.464 744.495 355 728.755 355C713.015 355 700.255 342.464 700.255 327C700.255 311.536 713.015 299 728.755 299C744.495 299 757.255 311.536 757.255 327ZM707.186 327C707.186 338.703 716.843 348.191 728.755 348.191C740.667 348.191 750.324 338.703 750.324 327C750.324 315.297 740.667 305.809 728.755 305.809C716.843 305.809 707.186 315.297 707.186 327Z" fill="#496EAB"/>
<path d="M430.091 442.336C430.182 472.898 405.48 497.746 374.919 497.836C344.357 497.927 319.509 473.225 319.419 442.664C319.328 412.102 344.03 387.254 374.591 387.164C405.153 387.073 430.001 411.775 430.091 442.336ZM330.486 442.631C330.558 467.08 350.437 486.841 374.886 486.769C399.335 486.697 419.096 466.818 419.024 442.369C418.952 417.92 399.073 398.159 374.624 398.231C350.175 398.303 330.414 418.182 330.486 442.631Z" fill="#3472B0"/>
<path d="M407.689 442.5C407.689 437.613 406.642 432.784 404.621 428.347C402.6 423.91 399.652 419.969 395.982 416.798C392.311 413.626 388.005 411.299 383.361 409.977C378.716 408.655 373.844 408.37 369.08 409.14L370.213 416.33C373.951 415.725 377.773 415.949 381.416 416.986C385.06 418.024 388.438 419.849 391.317 422.337C394.197 424.825 396.509 427.916 398.095 431.397C399.68 434.878 400.501 438.666 400.501 442.5H407.689Z" fill="#7CA7C5" fill-opacity="0.46"/>
<path d="M208.859 298.62C204.643 311.595 190.666 318.7 177.628 314.464C164.59 310.227 157.458 296.264 161.674 283.289C165.889 270.314 179.866 263.209 192.905 267.446C205.943 271.682 213.074 285.645 208.859 298.62Z" stroke="#8ABBF4" stroke-opacity="0.16" stroke-width="6"/>
<path d="M170.404 284.963C172.226 281.629 174.896 278.833 178.146 276.857C181.397 274.881 185.113 273.794 188.921 273.706L189.018 277.555C185.887 277.627 182.832 278.521 180.16 280.146C177.487 281.77 175.292 284.069 173.795 286.81L170.404 284.963Z" fill="#83EEFF" fill-opacity="0.22"/>
<circle cx="325.255" cy="203" r="17" stroke="#6FC3FF" stroke-opacity="0.11" stroke-width="6"/>
<defs>
<linearGradient id="paint0_linear_3149_335" x1="417.909" y1="-28" x2="417.909" y2="652.027" gradientUnits="userSpaceOnUse">
<stop stop-color="#384994"/>
<stop offset="1" stop-color="#4182A8"/>
</linearGradient>
<linearGradient id="paint1_linear_3149_335" x1="417.909" y1="-28" x2="417.909" y2="652.027" gradientUnits="userSpaceOnUse">
<stop stop-color="#384994"/>
<stop offset="1" stop-color="#4182A8"/>
</linearGradient>
</defs>
</svg>
