<svg width="1280" height="731" viewBox="0 0 1280 731" fill="none" xmlns="http://www.w3.org/2000/svg">
<path fill-rule="evenodd" clip-rule="evenodd" d="M0 57.5384L42.5574 43.3029C85.1147 29.0674 170.229 0.596436 255.344 0.596436C340.459 0.596436 425.574 29.0674 510.688 57.5384C595.803 86.0094 680.918 114.48 766.033 121.598C851.147 128.716 936.262 114.48 1021.38 93.1272C1106.49 71.7739 1191.61 43.3029 1234.16 29.0674L1290.02 14.8319V730.482H1234.16C1191.61 730.482 1106.49 730.482 1021.38 730.482C936.262 730.482 851.147 730.482 766.033 730.482C680.918 730.482 595.803 730.482 510.688 730.482C425.574 730.482 340.459 730.482 255.344 730.482C170.229 730.482 85.1147 730.482 42.5574 730.482H0V57.5384Z" fill="url(#paint0_linear_1448_1002)"/>
<defs>
<linearGradient id="paint0_linear_1448_1002" x1="645.01" y1="0.596436" x2="645.01" y2="730.482" gradientUnits="userSpaceOnUse">
<stop stop-color="#E8EDFF"/>
<stop offset="1" stop-color="#E8ECFF" stop-opacity="0"/>
</linearGradient>
</defs>
</svg>
